<svg xmlns="http://www.w3.org/2000/svg" xmlns:xlink="http://www.w3.org/1999/xlink" width="618" height="491" viewBox="0 0 618 491">
  <defs>
    <linearGradient id="linear-gradient" x1="0.804" y1="0.773" x2="0.111" y2="0.252" gradientUnits="objectBoundingBox">
      <stop offset="0" stop-color="#9a5ae1"/>
      <stop offset="1" stop-color="#4439a9"/>
    </linearGradient>
    <linearGradient id="linear-gradient-2" x1="0.35" y1="0.161" x2="0.775" y2="0.935" gradientUnits="objectBoundingBox">
      <stop offset="0" stop-color="#4439a9"/>
      <stop offset="0.276" stop-color="#9a5ae1"/>
      <stop offset="0.677" stop-color="#9a5ae1"/>
      <stop offset="0.918" stop-color="#9a5ae1"/>
      <stop offset="1" stop-color="#9a5ae1"/>
    </linearGradient>
    <linearGradient id="linear-gradient-3" x1="0.5" y1="-0.367" x2="0.775" y2="0.935" xlink:href="#linear-gradient-2"/>
    <linearGradient id="linear-gradient-4" x1="0.5" y1="0.5" x2="0.96" y2="1.694" xlink:href="#linear-gradient-2"/>
    <linearGradient id="linear-gradient-5" x1="0.5" y1="1.287" x2="0.5" y2="2.134" gradientUnits="objectBoundingBox">
      <stop offset="0" stop-color="#7f5eff"/>
      <stop offset="0.242" stop-color="#8664ff"/>
      <stop offset="0.595" stop-color="#97f"/>
      <stop offset="0.94" stop-color="#b391ff"/>
    </linearGradient>
    <linearGradient id="linear-gradient-6" x1="0.5" y1="2.777" x2="0.5" y2="-0.873" gradientUnits="objectBoundingBox">
      <stop offset="0" stop-color="#9a79ff"/>
      <stop offset="0.94" stop-color="#b391ff"/>
    </linearGradient>
    <linearGradient id="linear-gradient-7" x1="0.067" y1="-0.191" x2="0.932" y2="1.199" gradientUnits="objectBoundingBox">
      <stop offset="0" stop-color="#9a79ff"/>
      <stop offset="0.34" stop-color="#ba75e7"/>
      <stop offset="0.94" stop-color="#fb6fb9"/>
    </linearGradient>
    <linearGradient id="linear-gradient-8" x1="0.5" y1="-0.431" x2="0.5" y2="1.431" gradientUnits="objectBoundingBox">
      <stop offset="0" stop-color="#5155d4"/>
      <stop offset="1" stop-color="#45f7ff"/>
    </linearGradient>
    <linearGradient id="linear-gradient-9" x1="0" y1="0.5" x2="1" y2="0.5" xlink:href="#linear-gradient-8"/>
    <linearGradient id="linear-gradient-10" x1="-1.211" y1="0.284" x2="0.96" y2="1.694" xlink:href="#linear-gradient-2"/>
    <linearGradient id="linear-gradient-13" x1="12.187" y1="1.794" x2="12.531" y2="-0.972" xlink:href="#linear-gradient-5"/>
    <linearGradient id="linear-gradient-14" x1="16.9" y1="0.872" x2="17.79" y2="-0.296" xlink:href="#linear-gradient-5"/>
    <linearGradient id="linear-gradient-15" x1="20.739" y1="0.5" x2="21.739" y2="0.5" gradientUnits="objectBoundingBox">
      <stop offset="0" stop-color="#ff4f00"/>
      <stop offset="1" stop-color="#ff3d9d"/>
    </linearGradient>
    <linearGradient id="linear-gradient-16" x1="15.474" y1="-1.011" x2="15.494" y2="0.922" xlink:href="#linear-gradient-5"/>
  </defs>
  <g id="_1" data-name="1" transform="translate(60.057 -1.014)">
    <rect id="canvas" width="618" height="491" transform="translate(-60.057 1.014)" fill="#ec2323" opacity="0"/>
    <g id="Group_401" data-name="Group 401" transform="translate(0 -6)">
      <path id="Path_1756" data-name="Path 1756" d="M338.059,65.365c-20.937-.137-41.122-6.784-61.351-11.938a440.773,440.773,0,0,0-68.189-11.766c-24.4-2.261-49.365-2.447-73.063,3.553S89.275,63.922,75.633,83.338c-23.157,32.893-16.855,76.893-4.674,114.777,14.451,44.928,36.253,88.275,68.6,123.711,23.007,25.182,50.832,45.869,78.468,66.385,15.617,11.588,31.35,23.258,49.081,31.615,16.5,7.746,34.368,12.426,52.109,17.058,18.963,4.948,37.926,9.911,57.3,12.99,61.819,9.842,125.05.316,186.774-10.028,21.752-3.643,44.4-7.787,61.7-20.845,13.475-10.179,22.4-24.914,28.757-40.144,8.333-19.931,12.627-43,3.558-62.667-13.386-29.017-51.116-41.869-65.924-70.247-18.963-36.378,7.133-81.354-5.053-120.275-5.07-16.2-16.392-29.89-28.221-42.474-28.193-30.055-64.379-55.911-108.786-45.12C411.73,47.207,378.383,65.633,338.059,65.365Z" transform="translate(-113.016 8.631)" fill="#ebeaf5"/>
      <g id="Group_361" data-name="Group 361" opacity="0.32">
        <path id="Path_1136" data-name="Path 1136" d="M220.229,353.43c-2.657,1.535-2.666,4.017-.031,5.548l88.247,51.284a10.542,10.542,0,0,0,9.578,0l20.689-9.686c2.653-1.531,2.672-4.014.032-5.548L250.5,343.745a10.558,10.558,0,0,0-9.578,0Z" fill="url(#linear-gradient)"/>
      </g>
      <g id="Group_366" data-name="Group 366">
        <g id="Group_362" data-name="Group 362">
          <path id="Path_1137" data-name="Path 1137" d="M195.93,139.138l.006,2.2a1.687,1.687,0,0,0,2.534,1.455l10.391-6.028a1.688,1.688,0,0,0,.84-1.464l-.006-2.2a1.687,1.687,0,0,0-2.534-1.455l-10.39,6.028A1.687,1.687,0,0,0,195.93,139.138Z" fill="#9a5ae1"/>
        </g>
        <g id="Group_363" data-name="Group 363">
          <path id="Path_1138" data-name="Path 1138" d="M163.062,169.064l.006,2.207a1.688,1.688,0,0,0,2.531,1.457l43.29-24.994a1.686,1.686,0,0,0,.843-1.466l-.006-2.207A1.688,1.688,0,0,0,207.2,142.6L163.9,167.6A1.686,1.686,0,0,0,163.062,169.064Z" fill="#9a5ae1"/>
        </g>
        <g id="Group_364" data-name="Group 364" opacity="0.53">
          <path id="Path_1139" data-name="Path 1139" d="M180.971,180.694l.007,2.207a1.687,1.687,0,0,0,2.531,1.457l25.442-14.689a1.689,1.689,0,0,0,.843-1.466l-.006-2.208a1.688,1.688,0,0,0-2.531-1.457l-25.442,14.69A1.687,1.687,0,0,0,180.971,180.694Z" fill="#9a5ae1"/>
        </g>
        <g id="Group_365" data-name="Group 365">
          <path id="Path_1140" data-name="Path 1140" d="M169.8,176.155l.007,2.208a1.686,1.686,0,0,0,2.53,1.456L208.92,158.7a1.689,1.689,0,0,0,.843-1.467l-.006-2.207a1.688,1.688,0,0,0-2.531-1.457l-36.577,21.118A1.69,1.69,0,0,0,169.8,176.155Z" fill="#9a5ae1"/>
        </g>
      </g>
      <g id="Group_371" data-name="Group 371">
        <g id="Group_368" data-name="Group 368" opacity="0.37">
          <g id="Group_367" data-name="Group 367">
            <path id="Path_1141" data-name="Path 1141" d="M396.164,172.5a1.9,1.9,0,0,1,.861,1.492l-.043,15c0,.547-.389.768-.866.493l-18.991-10.965a1.9,1.9,0,0,1-.862-1.49l.043-15c0-.549.389-.77.867-.494Z" fill="#8ed2ff"/>
          </g>
        </g>
        <g id="Group_370" data-name="Group 370" opacity="0.47">
          <g id="Group_369" data-name="Group 369">
            <path id="Path_1142" data-name="Path 1142" d="M403.14,199.19a1.9,1.9,0,0,1,.86,1.491l-.043,15c0,.547-.389.768-.865.493L384.1,205.21a1.9,1.9,0,0,1-.861-1.491l.042-15c0-.549.39-.77.867-.494Z" fill="#7974f5"/>
          </g>
        </g>
      </g>
      <g id="Group_376" data-name="Group 376">
        <g id="Group_373" data-name="Group 373" opacity="0.37">
          <g id="Group_372" data-name="Group 372">
            <path id="Path_1143" data-name="Path 1143" d="M209.981,213.346a1.228,1.228,0,0,1,.556.964L210.509,224c0,.353-.251.5-.559.318l-12.271-7.084a1.226,1.226,0,0,1-.556-.963l.027-9.692c0-.354.252-.5.561-.319Z" fill="#8ed2ff"/>
          </g>
        </g>
        <g id="Group_375" data-name="Group 375" opacity="0.47">
          <g id="Group_374" data-name="Group 374">
            <path id="Path_1144" data-name="Path 1144" d="M214.488,230.589a1.226,1.226,0,0,1,.556.964l-.028,9.691c0,.354-.251.5-.559.319l-12.271-7.084a1.227,1.227,0,0,1-.556-.963l.027-9.692c0-.354.252-.5.56-.319Z" fill="#7974f5"/>
          </g>
        </g>
      </g>
      <g id="Group_387" data-name="Group 387">
        <g id="Group_382" data-name="Group 382">
          <path id="Path_1145" data-name="Path 1145" d="M339.752,131.012l.2.167q.879.72,1.729,1.51l.2.189q.859.81,1.686,1.685c.047.05.094.1.14.147q.882.942,1.719,1.947l.019.023q.856,1.032,1.661,2.123h0c.49.664.96,1.349,1.418,2.041.284.43.551.872.822,1.311.225.365.458.725.674,1.1.1.176.2.356.3.533.354.626.7,1.256,1.026,1.9.035.069.072.137.107.206q.588,1.169,1.111,2.359c.017.04.034.081.052.121a38.157,38.157,0,0,1,3.409,15.006l9.1-5.287a37.024,37.024,0,0,0-2.721-13.3l.014-.008q-.192-.5-.4-.988c-.1-.238-.2-.475-.305-.712-.018-.041-.035-.081-.052-.122s-.039-.091-.059-.136q-.217-.494-.447-.982-.254-.54-.52-1.075c-.028-.055-.058-.109-.085-.164s-.072-.138-.107-.207c-.145-.284-.289-.568-.439-.85-.189-.354-.391-.7-.589-1.049-.1-.176-.194-.354-.3-.528-.04-.069-.077-.14-.117-.21-.178-.3-.376-.592-.56-.891-.27-.439-.537-.879-.82-1.308-.046-.068-.086-.14-.131-.208q-.624-.933-1.287-1.834h0q-.444-.6-.9-1.187c-.248-.316-.5-.627-.756-.935l-.019-.023-.009-.012q-.389-.467-.786-.92t-.792-.877c-.043-.046-.088-.091-.131-.137l-.142-.149c-.186-.2-.371-.394-.559-.586q-.425-.431-.857-.847c-.089-.085-.18-.166-.269-.25l-.2-.191c-.14-.13-.279-.264-.421-.391q-.448-.405-.9-.79c-.133-.112-.268-.219-.4-.328l-.2-.167c-.1-.08-.2-.165-.3-.244-.3-.233-.593-.461-.893-.681-.217-.16-.436-.312-.654-.465-.04-.028-.079-.057-.119-.084s-.074-.054-.112-.08q-.429-.294-.864-.571t-.861-.527c-.066-.04-.133-.078-.2-.117L257.982,72.8c-.216-.125-.432-.245-.646-.362q-.42-.227-.834-.431c-.179-.089-.357-.17-.536-.253-.043-.02-.087-.042-.13-.061s-.1-.051-.158-.075q-.409-.183-.814-.345t-.821-.309l-.139-.045c-.042-.015-.083-.027-.125-.041-.184-.062-.368-.125-.551-.18-.282-.086-.563-.163-.841-.232-.134-.034-.266-.059-.4-.089-.059-.013-.117-.027-.176-.039-.086-.018-.173-.041-.259-.058q-.45-.087-.89-.147c-.181-.024-.358-.037-.537-.054l-.188-.02c-.06,0-.121-.014-.181-.018-.323-.022-.642-.033-.956-.031-.139,0-.273.014-.41.019-.106,0-.212.008-.317.015s-.221.005-.328.015a11.11,11.11,0,0,0-1.173.171l-.021,0c-.086.018-.165.05-.25.069a10.381,10.381,0,0,0-1.151.317c-.044.016-.085.036-.128.052-.063.023-.122.051-.184.075a9.791,9.791,0,0,0-1.336.635l-9.1,5.287a9.906,9.906,0,0,1,1.336-.635c.062-.024.122-.052.184-.075a10.2,10.2,0,0,1,1.281-.369c.084-.02.163-.051.248-.069a11.383,11.383,0,0,1,1.522-.191c.1-.007.211-.011.317-.015a12.778,12.778,0,0,1,1.547.031c.062.005.126.013.189.019a14.981,14.981,0,0,1,1.685.259c.059.012.117.026.176.039a17.768,17.768,0,0,1,1.791.5c.042.014.084.026.125.041q.951.326,1.932.774c.044.019.088.041.131.062.664.307,1.335.652,2.016,1.045l86.866,50.152c.687.4,1.366.831,2.036,1.295.04.027.079.056.119.084Q338.844,130.276,339.752,131.012Z" fill="url(#linear-gradient-2)"/>
          <path id="Path_1146" data-name="Path 1146" d="M365.118,157.168q-.015-.489-.046-.984t-.079-.989c-.031-.331-.068-.664-.111-1s-.091-.681-.145-1.022-.113-.685-.178-1.028-.138-.707-.215-1.062-.161-.71-.249-1.065-.183-.72-.283-1.08-.2-.717-.314-1.075-.22-.7-.338-1.052-.236-.692-.361-1.037-.246-.665-.375-1l-9.1,5.287q.193.5.374,1,.188.518.362,1.037t.337,1.052q.165.537.314,1.075t.284,1.08c.088.355.17.711.248,1.065s.149.709.215,1.062.124.686.178,1.028.1.682.146,1.022.079.666.111,1,.057.661.078.989.036.658.046.984c.009.308.014.614.013.918l-.591,208.43c0,.773-.041,1.514-.107,2.231-.006.065-.013.128-.02.192q-.1.985-.277,1.9c-.015.081-.032.162-.048.242q-.183.882-.437,1.691c-.032.1-.066.2-.1.3a15.179,15.179,0,0,1-.569,1.455c-.023.05-.042.1-.065.154a12.723,12.723,0,0,1-.818,1.481c-.04.063-.087.118-.128.18a11.3,11.3,0,0,1-.787,1.038c-.1.119-.207.232-.313.345a10.359,10.359,0,0,1-.762.737c-.11.1-.218.2-.331.286a9.643,9.643,0,0,1-1.177.819l9.1-5.287a9.631,9.631,0,0,0,1.177-.819c.113-.09.22-.19.33-.285a10.394,10.394,0,0,0,.763-.738c.106-.114.212-.226.313-.345a11.117,11.117,0,0,0,.786-1.038c.042-.062.089-.117.129-.18.009-.014.02-.026.029-.04a12.777,12.777,0,0,0,.768-1.392c.007-.016.013-.033.02-.048.024-.051.043-.106.067-.157.141-.31.278-.622.4-.952.06-.162.11-.334.166-.5.034-.1.068-.2.1-.3s.062-.177.089-.27q.148-.506.271-1.038c.028-.124.05-.255.076-.381.017-.081.033-.162.049-.244.024-.124.053-.244.075-.37.055-.318.1-.641.145-.972.023-.181.039-.369.057-.555.007-.064.014-.127.02-.192s.018-.153.024-.232c.026-.314.046-.634.059-.958s.022-.65.023-.983v-.058l.591-208.43Q365.131,157.63,365.118,157.168Z" fill="url(#linear-gradient-3)"/>
          <g id="Group_377" data-name="Group 377">
            <path id="Path_1147" data-name="Path 1147" d="M335.751,128.243c11.233,6.486,20.318,22.213,20.282,35.13l-.591,208.43c-.037,12.908-9.182,18.119-20.415,11.633l-86.866-50.152c-11.233-6.485-20.319-22.222-20.282-35.13l.591-208.429c.036-12.918,9.181-18.119,20.415-11.634Z" fill="url(#linear-gradient-4)"/>
          </g>
          <g id="Group_381" data-name="Group 381">
            <g id="Group_378" data-name="Group 378">
              <path id="Path_1148" data-name="Path 1148" d="M303.716,129.789a5.415,5.415,0,0,1,2.456,4.254c0,1.572-1.112,2.2-2.472,1.419l-22.4-12.933a5.423,5.423,0,0,1-2.457-4.264c.005-1.563,1.113-2.194,2.473-1.409Z" fill="url(#linear-gradient-5)"/>
            </g>
            <g id="Group_379" data-name="Group 379">
              <ellipse id="Ellipse_32" data-name="Ellipse 32" cx="5.424" cy="9.364" rx="5.424" ry="9.364" transform="translate(282.519 330.614) rotate(-30.162)" fill="url(#linear-gradient-6)"/>
            </g>
            <g id="Group_380" data-name="Group 380">
              <path id="Path_1149" data-name="Path 1149" d="M347.114,173.2a4.49,4.49,0,0,1,2.037,3.529l-.494,174.157c0,1.3-.921,1.82-2.05,1.168l-109.3-63.1a4.488,4.488,0,0,1-2.037-3.529l.494-174.156c0-1.3.921-1.821,2.05-1.169Z" fill="#f9fbfc"/>
            </g>
          </g>
          <path id="Path_1150" data-name="Path 1150" d="M360.8,233.619h0a1.291,1.291,0,0,1-1.291-1.291V193.6a1.291,1.291,0,0,1,1.291-1.291h0a1.291,1.291,0,0,1,1.291,1.291v38.725A1.291,1.291,0,0,1,360.8,233.619Z" fill="#f9fbfc"/>
          <path id="Path_1151" data-name="Path 1151" d="M360.8,281.81h0a1.291,1.291,0,0,1-1.291-1.291V241.794A1.291,1.291,0,0,1,360.8,240.5h0a1.291,1.291,0,0,1,1.291,1.291v38.725A1.291,1.291,0,0,1,360.8,281.81Z" fill="#f9fbfc"/>
          <path id="Path_1152" data-name="Path 1152" d="M360.8,341.027h0a1.291,1.291,0,0,1-1.291-1.291V319.674a1.291,1.291,0,0,1,1.291-1.29h0a1.291,1.291,0,0,1,1.291,1.29v20.062A1.291,1.291,0,0,1,360.8,341.027Z" fill="#113c7a"/>
        </g>
        <g id="Group_383" data-name="Group 383">
          <path id="Path_1153" data-name="Path 1153" d="M291.189,185.389c5.591,3.229,10.121,11.024,10.176,17.471,0,.053,0,.106,0,.158-.235.094-4.7,1.872-10.365-1.288l-.2-.113c-4.434-2.56-8.065-7.636-9.359-9.6-.331-.5-.5-.783-.509-.8C280.954,184.745,285.543,182.13,291.189,185.389Z" fill="#fff"/>
        </g>
        <g id="Group_384" data-name="Group 384">
          <path id="Path_1154" data-name="Path 1154" d="M337.2,241.568a5.135,5.135,0,0,1,2.333,4.032l-.028,9.82c0,1.487-1.054,2.085-2.348,1.338L247.332,204.9A5.138,5.138,0,0,1,245,200.857l.028-9.82c0-1.478,1.054-2.076,2.348-1.329Z" fill="#cfe3ff"/>
        </g>
        <path id="Path_1155" data-name="Path 1155" d="M306.541,183.134a31.052,31.052,0,0,1,1.112,5.217,24.7,24.7,0,0,1,.185,3.047c0,.3-.009.6-.022.893l-.006.134c-.014.278-.034.55-.058.819-.005.052-.01.1-.016.155-.027.268-.058.532-.1.791-.053.351-.1.6-.145.846-.063.317-.121.561-.182.8-.011.04-.02.082-.031.122q-.093.35-.2.682c-.013.041-.027.081-.04.121-.074.224-.152.445-.236.658-.107.267-.194.468-.285.663-.13.278-.229.469-.332.657l-.06.108q-.156.276-.324.536c-.018.028-.037.055-.055.082-.119.18-.242.356-.37.523s-.267.333-.4.488c-.019.022-.038.045-.058.066-.133.148-.27.289-.411.425l-.08.077c-.142.133-.286.261-.435.383l-.07.055q-.224.179-.457.341c-.194.134-.359.236-.527.333l-.1.055q-.244.138-.5.259l-.106.048c-.175.08-.353.155-.534.223-.15.053-.245.081-.339.111-.059-6.447-4.587-14.237-10.177-17.464-5.645-3.259-10.234-.644-10.253,5.833.009.014.164.273.465.731-.133-.184-.267-.368-.4-.556-.252-.366-.424-.62-.593-.877-.03-.047-.061-.093-.092-.14q-.268-.413-.527-.832c-.037-.059-.073-.119-.11-.179-.175-.287-.349-.576-.517-.868-.182-.316-.343-.606-.5-.9-.031-.056-.062-.112-.092-.168q-.236-.437-.459-.878l-.081-.161q-.213-.425-.416-.852c-.18-.383-.317-.687-.451-.991-.028-.063-.055-.125-.082-.188q-.2-.454-.383-.912c-.158-.395-.269-.684-.377-.974l-.054-.144q-.168-.459-.323-.918c-.021-.061-.041-.123-.061-.184q-.312-.94-.567-1.883c-.017-.062-.034-.124-.05-.186q-.121-.457-.228-.913c-.013-.054-.024-.108-.037-.162q-.1-.435-.185-.867c-.08-.406-.133-.711-.183-1.015-.01-.066-.021-.131-.031-.2-.047-.3-.09-.608-.127-.91-.045-.387-.074-.671-.1-.954,0-.051-.009-.1-.013-.154-.024-.295-.042-.59-.054-.882,0-.063-.005-.126-.007-.188-.011-.3-.018-.6-.017-.9a19.833,19.833,0,0,1,.2-2.823,13.965,13.965,0,0,1,1.138-3.918c.107-.227.22-.446.338-.659,2.727-4.9,8.491-6.033,15.149-2.189,5.976,3.45,11.21,10.071,14.168,17.193.2.469.383.939.557,1.411Q306.223,182.083,306.541,183.134Zm-15.116.485c3.445,1.989,6.239.387,6.251-3.562a13.674,13.674,0,0,0-6.211-10.757c-3.437-1.985-6.24-.4-6.251,3.562a13.7,13.7,0,0,0,6.211,10.757" fill="url(#linear-gradient-7)"/>
        <path id="Path_1156" data-name="Path 1156" d="M306.541,183.134a31.052,31.052,0,0,1,1.112,5.217,24.7,24.7,0,0,1,.185,3.047c0,.3-.009.6-.022.893l-.006.134c-.014.278-.034.55-.058.819-.005.052-.01.1-.016.155-.027.268-.058.532-.1.791-.053.351-.1.6-.145.846-.063.317-.121.561-.182.8-.011.04-.02.082-.031.122q-.093.35-.2.682c-.013.041-.027.081-.04.121-.074.224-.152.445-.236.658-.107.267-.194.468-.285.663-.13.278-.229.469-.332.657l-.06.108q-.156.276-.324.536c-.018.028-.037.055-.055.082-.119.18-.242.356-.37.523s-.267.333-.4.488c-.019.022-.038.045-.058.066-.133.148-.27.289-.411.425l-.08.077c-.142.133-.286.261-.435.383l-.07.055q-.224.179-.457.341c-.194.134-.359.236-.527.333l-.1.055q-.244.138-.5.259l-.106.048c-.175.08-.353.155-.534.223-.15.053-.245.081-.339.111-.059-6.447-4.587-14.237-10.177-17.464-5.645-3.259-10.234-.644-10.253,5.833.009.014.164.273.465.731-.133-.184-.267-.368-.4-.556-.252-.366-.424-.62-.593-.877-.03-.047-.061-.093-.092-.14q-.268-.413-.527-.832c-.037-.059-.073-.119-.11-.179-.175-.287-.349-.576-.517-.868-.182-.316-.343-.606-.5-.9-.031-.056-.062-.112-.092-.168q-.236-.437-.459-.878l-.081-.161q-.213-.425-.416-.852c-.18-.383-.317-.687-.451-.991-.028-.063-.055-.125-.082-.188q-.2-.454-.383-.912c-.158-.395-.269-.684-.377-.974l-.054-.144q-.168-.459-.323-.918c-.021-.061-.041-.123-.061-.184q-.312-.94-.567-1.883c-.017-.062-.034-.124-.05-.186q-.121-.457-.228-.913c-.013-.054-.024-.108-.037-.162q-.1-.435-.185-.867c-.08-.406-.133-.711-.183-1.015-.01-.066-.021-.131-.031-.2-.047-.3-.09-.608-.127-.91-.045-.387-.074-.671-.1-.954,0-.051-.009-.1-.013-.154-.024-.295-.042-.59-.054-.882,0-.063-.005-.126-.007-.188-.011-.3-.018-.6-.017-.9a19.833,19.833,0,0,1,.2-2.823,13.965,13.965,0,0,1,1.138-3.918c.107-.227.22-.446.338-.659,2.727-4.9,8.491-6.033,15.149-2.189,5.976,3.45,11.21,10.071,14.168,17.193.2.469.383.939.557,1.411Q306.223,182.083,306.541,183.134Zm-15.116.485c3.445,1.989,6.239.387,6.251-3.562a13.674,13.674,0,0,0-6.211-10.757c-3.437-1.985-6.24-.4-6.251,3.562a13.7,13.7,0,0,0,6.211,10.757" fill="none"/>
        <g id="Group_385" data-name="Group 385">
          <path id="Path_1157" data-name="Path 1157" d="M291.465,169.3a13.674,13.674,0,0,1,6.211,10.757c-.012,3.949-2.806,5.551-6.251,3.562a13.7,13.7,0,0,1-6.211-10.757C285.226,168.9,288.029,167.316,291.465,169.3Z" fill="#fff"/>
        </g>
        <g id="Group_386" data-name="Group 386">
          <path id="Path_1158" data-name="Path 1158" d="M337.139,262.942a5.139,5.139,0,0,1,2.333,4.041l-.028,9.821c0,1.487-1.054,2.076-2.348,1.329l-89.825-51.861a5.12,5.12,0,0,1-2.333-4.031l.028-9.821c0-1.487,1.054-2.085,2.348-1.338Z" fill="#cfe3ff"/>
        </g>
        <path id="Path_1159" data-name="Path 1159" d="M302.076,278.858a12.19,12.19,0,0,1,5.529,9.576l-.007,2.254c-.01,3.523-2.5,4.941-5.565,3.171l-29.051-16.773a12.193,12.193,0,0,1-5.537-9.581l.007-2.253c.01-3.514,2.506-4.937,5.572-3.167Z" fill="url(#linear-gradient-8)"/>
      </g>
      <ellipse id="Ellipse_33" data-name="Ellipse 33" cx="33.011" cy="19.615" rx="33.011" ry="19.615" transform="translate(206.412 395.612)" opacity="0.32" fill="url(#linear-gradient-9)"/>
      <g id="Group_389" data-name="Group 389">
        <path id="Path_1160" data-name="Path 1160" d="M272.935,281.931a15.639,15.639,0,0,0,2.465-1.971c.493-.658,1.15-4.437.493-4.6s-1.15,2.465-1.15,2.465-.165-6.9-.986-7.887-3.45,3.943-3.615,4.765-.821,4.272-.821,4.272S270.307,281.931,272.935,281.931Z" fill="#ff9d6f"/>
        <path id="Path_1161" data-name="Path 1161" d="M222.716,301.743s-5.152,5.163-1.537,11.407,28.261-9.2,30.889-11.5,19.882-17.745,20.867-19.717-1.15-3.943-3.779-3.614-13.144,11.5-21.36,16.759C247.8,295.076,228.2,299.537,222.716,301.743Z" fill="#113c7a"/>
        <path id="Path_1162" data-name="Path 1162" d="M225.735,411s-.424,3.111.142,4.383a3.193,3.193,0,0,0,4.383.848,45.012,45.012,0,0,0,4.241-3.959s4.525-2.4,4.949-3.676-1.131-2.4-2.4-2.121-4.948,2.545-6.645,2.545S226.3,409.448,225.735,411Z" fill="#113c7a"/>
        <path id="Path_1163" data-name="Path 1163" d="M221.074,344.791s3.957,65.306,4.45,67.2,5.626,2.978,6.578-.027c.6-1.908,2.094-62.343,2.094-62.343Z" fill="url(#linear-gradient-10)"/>
        <path id="Path_1164" data-name="Path 1164" d="M238.821,414.889a1.012,1.012,0,0,0-.347.761c-.009.9.033,2.9.541,3.679a3.8,3.8,0,0,0,4.913.918c1.832-.994,7.468-5.207,8.613-6.14a3.369,3.369,0,0,0,1.139-1.8,1.023,1.023,0,0,0-.579-1.185,4.916,4.916,0,0,0-3.387-.39c-1.867.628-4.218,2.65-6.76,2.541A6.247,6.247,0,0,0,238.821,414.889Z" fill="#113c7a"/>
        <path id="Path_1165" data-name="Path 1165" d="M247.554,345.5c-.286-2.714-3.534-3.6-6.525-2.672-5.707-.308-14.544-.064-14.854,4.366-.459,6.558,2.616,11.238,5.582,14.422,2.192,2.352,3.65,6.852,4.263,9.045.52,17.321,1.667,41.744,2.384,44.082,1.154,3.766,6.835,3.6,7.092-.071C246.646,402.276,247.554,345.5,247.554,345.5Z" fill="url(#linear-gradient-10)"/>
        <path id="Path_1166" data-name="Path 1166" d="M247.569,347.541c-.67,3.351-10.221,5.026-15.806,4.133s-11.6-3.634-11.4-10.109c0,0,1.061-15.482.637-18.239a77.755,77.755,0,0,1-1.485-12.725,15.039,15.039,0,0,1,3.2-8.858s3.127-3.575,12.957-1.564c0,0,8.009,1.744,11.695,7.665,0,0,2.545,6.5,1.7,20.077S247.569,347.541,247.569,347.541Z" fill="#113c7a"/>
        <path id="Path_1167" data-name="Path 1167" d="M228,293s.849,4.948,0,7.211c-.141,1.131,4.808,4.948,9.191,3.959,2.545-.566,2.4-1.839,2.4-1.839s-2.121-3.534-1.838-6.928S230.966,292.291,228,293Z" fill="#ff7c40"/>
        <g id="Group_388" data-name="Group 388">
          <path id="Path_1168" data-name="Path 1168" d="M244.54,283.03a11.664,11.664,0,1,1-11.665-11.665A11.665,11.665,0,0,1,244.54,283.03Z" fill="#ff9d6f"/>
          <path id="Path_1169" data-name="Path 1169" d="M244.54,283.808s.141,11.684-2.4,14.043-6.452-2.208-12.7-3.672c-6.247-1.6,5.064-13.754,5.064-13.754Z" fill="#ff9d6f"/>
        </g>
        <path id="Path_1170" data-name="Path 1170" d="M270.43,301.073s-1.109-4.559-.74-4.929,1.849,1.6,1.849,1.6.739-4.683,1.355-5.176,3.081,1.972,3.451,3.327-1.479,6.778-2.218,6.9S270.8,303.291,270.43,301.073Z" fill="#ff9d6f"/>
        <path id="Path_1171" data-name="Path 1171" d="M243.935,306.495s-5.175,2.465-2.957,8.873,18.731,8.872,20.7,6.9,10.6-12.077,13.063-19.717c0,0-.986-2.958-4.929-1.725,0,0-9.366,11.83-10.845,13.062S246.4,306,243.935,306.495Z" fill="#113c7a"/>
        <path id="Path_1172" data-name="Path 1172" d="M222.893,274.141a14.9,14.9,0,0,1,9.895-4.846c6.26-.4,9.289,1.616,11.712,1.414a3.651,3.651,0,0,1,3.837,4.846c-.808,3.029-2.625,6.058-6.664,6.058s-5.048-.606-5.048-.606,3.231,1.414,3.635,4.241a62.968,62.968,0,0,1,.4,7.068h-1.009s-.808-4.645-2.423-4.645-1.616,5.048-.2,5.856l1.413.808s-2.711,5.024-4.182,5.238-6.318-3.421-6.318-3.421-8.078-3.836-8.885-10.1S222.893,274.141,222.893,274.141Z" fill="#843837"/>
      </g>
      <g id="Group_400" data-name="Group 400">
        <g id="Group_394" data-name="Group 394">
          <ellipse id="Ellipse_34" data-name="Ellipse 34" cx="33.011" cy="19.615" rx="33.011" ry="19.615" transform="translate(102.337 363.112)" opacity="0.32" fill="url(#linear-gradient-9)"/>
          <g id="Group_393" data-name="Group 393">
            <g id="Group_390" data-name="Group 390">
              <path id="Path_1173" data-name="Path 1173" d="M118.627,329.079s2.219,14.048,4.067,21.811c0,0,.37,12.939.739,17.375s1.479,14.048,1.479,14.048a2.657,2.657,0,0,0,2.773.37s1.848-27.542,2.218-31.978,1.663-24.4,1.663-24.4S127.315,322.425,118.627,329.079Z" fill="#f5b697"/>
              <path id="Path_1174" data-name="Path 1174" d="M132.49,323.534s2.219,14.048,4.067,21.811c0,0,.37,12.939.739,17.375s1.479,14.048,1.479,14.048a2.655,2.655,0,0,0,2.773.369s1.848-27.541,2.218-31.977.554-24.214.554-24.214S141.178,316.88,132.49,323.534Z" fill="#f5b697"/>
              <path id="Path_1175" data-name="Path 1175" d="M121.4,310.1s-5.237,5.73-2.218,25.138a87.316,87.316,0,0,0,2.033,9.92,31.547,31.547,0,0,0,14.972-2.033c8.133-3.142,8.318-4.806,8.318-4.806s.37-24.337-1.479-30.622S121.4,310.1,121.4,310.1Z" fill="#113c7a"/>
              <path id="Path_1176" data-name="Path 1176" d="M141.64,375.843a2.855,2.855,0,0,0,1.294,2.5c1.479,1.109,4.251,3.142,4.713,4.344,0,.924-3.512-.093-5.083-.925a11.681,11.681,0,0,1-3.05-2.772l.093.831a1.566,1.566,0,0,1-1.017-.462c-.462-.462.093-3.327.093-3.327Z" fill="#5167b0"/>
              <path id="Path_1177" data-name="Path 1177" d="M127.777,382.22a2.855,2.855,0,0,0,1.294,2.5c1.479,1.109,4.251,3.142,4.713,4.343,0,.925-3.512-.092-5.083-.924a11.663,11.663,0,0,1-3.05-2.772l.093.831a1.566,1.566,0,0,1-1.017-.462c-.462-.462.093-3.327.093-3.327Z" fill="#5167b0"/>
            </g>
            <path id="Path_1178" data-name="Path 1178" d="M141.332,273.37s4.8.758,7.907,11.184c1.86,6.894,4.561,7.517,7.678,8.141s16.209,0,17.248,0,2.285,2.286.831,3.948-19.533,3.325-23.066,3.325-11.637-6.65-14.961-12.053S136.969,272.954,141.332,273.37Z" fill="url(#linear-gradient-13)"/>
            <path id="Path_1179" data-name="Path 1179" d="M139.047,247.4s4.779,6.13,3.74,12.987-7.065,6.546-8.1,10.286,2.909,9.143-2.494,12.676-7.9,2.7-9.351,10.182-6.649,11.429-15.584,12.26-15.17-9.974-12.884-17.871,10.182-5.4,11.845-11.844,1.039-11.533,6.649-14.026,3.533-11.949,9.143-14.858C127.738,244.216,134.891,242.615,139.047,247.4Z" fill="#113c7a"/>
            <g id="Group_391" data-name="Group 391">
              <path id="Path_1180" data-name="Path 1180" d="M126.6,271.286s-10.278,7.344-11.295,9.786-2.452,10.046.885,13.774c5.779,6.456,2.3,17.549,3.062,20.81s8.6,3.668,14.047,2.615,10.484-3.837,10.278-10.183,1.473-15.053,1.818-17.912a49.56,49.56,0,0,0-1.357-14.854c-.28-1.015-3.7-2.082-3.7-2.082S136.734,270.856,126.6,271.286Z" fill="url(#linear-gradient-14)"/>
              <path id="Path_1181" data-name="Path 1181" d="M135.539,269.9a1.052,1.052,0,0,0,0,.331c.113.753.488,2.68.558,3.485.067.771-.808,2.108-2.891,2.065s-5.616-.913-6.792-3.394a57.439,57.439,0,0,0-.346-7.329Z" fill="#ff7c40"/>
              <path id="Path_1182" data-name="Path 1182" d="M141.312,256.052c-1.115-5.957-5.835-9.339-11.173-8.09,0,0-5.787.58-8.357,5.662s1.205,9.357,3.623,12.052c1.02,1.106,1.79,1.96,2.276,2.5.176.205.349.414.533.6l.051.059.006,0a12.086,12.086,0,0,0,4.946,3c2.328.694,5.081.3,6.567-1.288S142.427,262.01,141.312,256.052Z" fill="#ff9d6f"/>
            </g>
            <path id="Path_1183" data-name="Path 1183" d="M142.268,260.07s-4.26.416-6.754-2.493-6.026,0-8.935-2.494a9.236,9.236,0,0,1,0,6.234,34.147,34.147,0,0,0-1.663,7.9l-5.4-8.52v-7.481l6.857-6.442,9.143-.415,4.364,4.156S142.683,256.953,142.268,260.07Z" fill="#113c7a"/>
            <path id="Path_1184" data-name="Path 1184" d="M118.544,296.372l12.915,4.069,12.029-3.361c-.176.531-3.361,10.26-10.26,12.03-4.96,1.271-10.817-3.115-13.728-5.687a17.431,17.431,0,0,0-1.253-5.266Z" opacity="0.43" fill="url(#linear-gradient-15)"/>
            <g id="Group_392" data-name="Group 392">
              <path id="Path_1185" data-name="Path 1185" d="M119.115,284.186s-6.857-1.662-3.948,7.689,12.675,16.208,16.208,15.792,17.871-15.584,17.871-17.455a2.7,2.7,0,0,0-3.325-2.7c-1.663.416-12.676,12.26-13.715,11.844S124.725,288.135,119.115,284.186Z" fill="url(#linear-gradient-16)"/>
              <path id="Path_1186" data-name="Path 1186" d="M147.295,290.9a2.058,2.058,0,0,1-1.373-2.632c.573-2.06,4.349-3.662,4.921-3.777s6.18,1.03,6.409,1.717-1.03,1.03-2.4.686a22.872,22.872,0,0,0-3.433-.457s1.488,1.6,1.373,2.288a4.327,4.327,0,0,1-2.059,2.632c-1.145.572-2.518-.686-2.518-.686Z" fill="#ff9d6f"/>
            </g>
            <path id="Path_1187" data-name="Path 1187" d="M172.439,293s4.531-3.857,4.784-3.167-1.547,2.6-1.547,2.6,6.065-2.323,6.136-1.535-3.2,3.258-4.067,3.842a22.172,22.172,0,0,1-3.955,1.422S172.094,293.9,172.439,293Z" fill="#ff9d6f"/>
          </g>
        </g>
        <g id="Group_395" data-name="Group 395" opacity="0.57">
          <path id="Path_1188" data-name="Path 1188" d="M151.876,258.57a5.984,5.984,0,0,0-2.7,4.691l.18,63.708c.012,4.059,2.9,5.72,6.413,3.69l37.95-21.91a5.985,5.985,0,0,0,2.7-4.691l-.181-63.708c-.011-4.059-2.9-5.72-6.413-3.69Z" fill="#4439a9"/>
        </g>
        <g id="Group_399" data-name="Group 399">
          <g id="Group_398" data-name="Group 398">
            <g id="Group_396" data-name="Group 396">
              <path id="Path_1189" data-name="Path 1189" d="M157.7,281.658a1.768,1.768,0,0,0-.8,1.388l.01,3.383c0,.513.363.719.809.461l30.943-17.865a1.769,1.769,0,0,0,.8-1.392l-.01-3.383c0-.508-.363-.715-.809-.457Z" fill="#fff"/>
            </g>
            <g id="Group_397" data-name="Group 397">
              <path id="Path_1190" data-name="Path 1190" d="M157.72,289.021a1.769,1.769,0,0,0-.8,1.392l.01,3.383c0,.512.363.715.809.457l30.943-17.865a1.762,1.762,0,0,0,.8-1.388l-.009-3.383c0-.513-.363-.719-.809-.461Z" fill="#fff"/>
            </g>
          </g>
          <path id="Path_1191" data-name="Path 1191" d="M169.8,294.5a4.2,4.2,0,0,0-1.9,3.3l0,.776c0,1.214.861,1.7,1.917,1.093l10.008-5.778a4.2,4.2,0,0,0,1.907-3.3l0-.777c0-1.21-.864-1.7-1.92-1.091Z" fill="#fff"/>
        </g>
      </g>
    </g>
    <g id="Group_421" data-name="Group 421" transform="translate(0 -6)">
      <g id="Group_420" data-name="Group 420">
        <g id="Group_402" data-name="Group 402">
          <path id="Path_1192" data-name="Path 1192" d="M151.509,108.539c2.8-1.618,4.617-.2,4.626,3.3a10.368,10.368,0,0,1-4.745,8.965c-2.707,1.563-4.616.247-4.626-3.326A10.541,10.541,0,0,1,151.509,108.539Zm-.046,10.969c2.1-1.213,3.282-4.114,3.274-6.792-.006-2.341-1.079-4.175-3.288-2.9-2.19,1.265-3.275,4.221-3.268,6.811.007,2.516,1.194,4.087,3.282,2.881" fill="#a0a9b0"/>
        </g>
        <g id="Group_403" data-name="Group 403">
          <path id="Path_1193" data-name="Path 1193" d="M174.6,111.053l0,1.291-3.135,1.81.03,10.5-1.341.774-.03-10.5-3.122,1.8,0-1.291Z" fill="#a0a9b0"/>
        </g>
        <g id="Group_404" data-name="Group 404">
          <path id="Path_1194" data-name="Path 1194" d="M167.369,99.573l.033,11.783-1.341.774-3.273-4.1a18.957,18.957,0,0,1-1.926-2.827l-.051.044c.081,1.445.117,2.843.122,4.8l.014,5.033-1.245.719-.033-11.783,1.443-.833,3.305,4.066a16.554,16.554,0,0,1,1.849,2.768l.032-.04c-.125-1.5-.161-2.92-.167-4.754l-.013-4.93Z" fill="#a0a9b0"/>
        </g>
        <g id="Group_405" data-name="Group 405">
          <path id="Path_1195" data-name="Path 1195" d="M172.834,96.418l.03,10.506,4.38-2.529,0,1.277-5.708,3.3-.033-11.783Z" fill="#a0a9b0"/>
        </g>
        <g id="Group_406" data-name="Group 406">
          <path id="Path_1196" data-name="Path 1196" d="M181.843,91.216,181.876,103l-1.328.767-.033-11.783Z" fill="#a0a9b0"/>
        </g>
        <g id="Group_407" data-name="Group 407">
          <path id="Path_1197" data-name="Path 1197" d="M193.68,84.381l.033,11.783-1.334.771-3.28-4.1a18.83,18.83,0,0,1-1.926-2.827l-.045.041c.081,1.445.117,2.843.122,4.8l.015,5.033-1.252.722-.033-11.783,1.449-.837,3.3,4.07a16.1,16.1,0,0,1,1.856,2.765l.032-.041c-.126-1.5-.162-2.919-.167-4.753l-.014-4.931Z" fill="#a0a9b0"/>
        </g>
        <g id="Group_408" data-name="Group 408">
          <path id="Path_1198" data-name="Path 1198" d="M203.359,78.793l0,1.277L199.149,82.5l.011,3.727,3.99-2.3,0,1.255-3.99,2.3.012,4.248,4.444-2.566,0,1.277-5.765,3.329-.033-11.783Z" fill="#a0a9b0"/>
        </g>
        <g id="Group_409" data-name="Group 409">
          <path id="Path_1199" data-name="Path 1199" d="M98.86,163.351a13.024,13.024,0,0,0,.8,2.778l-1.373.793A11.25,11.25,0,0,1,97.6,164.5c-.311-1.452-.862-1.744-2.062-1.1l-1.252.722.015,5.107-1.322.763-.033-11.629a20.524,20.524,0,0,1,2.541-1.717c1.417-.818,2.331-1.044,2.971-.753.519.23.809.864.811,1.774a5.972,5.972,0,0,1-1.92,4.121v.051C98.139,161.7,98.608,162.269,98.86,163.351Zm-3.22-1.176a4.339,4.339,0,0,0,2.305-3.572c0-1.519-.964-1.634-2.368-.837a8.141,8.141,0,0,0-1.309.895l.012,4.3,1.36-.785" fill="#a0a9b0"/>
        </g>
        <g id="Group_410" data-name="Group 410">
          <path id="Path_1200" data-name="Path 1200" d="M108.5,149.219l0,1.277-4.214,2.433.011,3.727,3.984-2.3,0,1.255-3.984,2.3.012,4.255,4.444-2.566,0,1.277-5.765,3.329-.033-11.79Z" fill="#a0a9b0"/>
        </g>
        <g id="Group_411" data-name="Group 411">
          <path id="Path_1201" data-name="Path 1201" d="M117.217,144.058a6.263,6.263,0,0,1,2.562-.935l-.316,1.424a5.175,5.175,0,0,0-2.274.806,8.259,8.259,0,0,0-4.112,7.121c.009,2.994,1.585,3.855,3.972,2.476a7.194,7.194,0,0,0,1.768-1.336l-.01-3.515-2.088,1.206,0-1.226,3.377-1.95.016,5.664a16.049,16.049,0,0,1-3.145,2.463c-1.552.9-2.837,1.182-3.842.661-.884-.468-1.437-1.728-1.443-3.562A11.132,11.132,0,0,1,117.217,144.058Z" fill="#a0a9b0"/>
        </g>
        <g id="Group_412" data-name="Group 412">
          <path id="Path_1202" data-name="Path 1202" d="M125.255,139.542l.033,11.79-1.328.767-.033-11.79Z" fill="#a0a9b0"/>
        </g>
        <g id="Group_413" data-name="Group 413">
          <path id="Path_1203" data-name="Path 1203" d="M132.406,135.222a4.3,4.3,0,0,1,2.268-.736l-.361,1.457a3.511,3.511,0,0,0-1.948.56,3.591,3.591,0,0,0-1.93,2.885c0,1.1.63,1.282,2.049,1.1,1.733-.229,2.623.22,2.628,1.951a6.666,6.666,0,0,1-3.585,5.472,4.7,4.7,0,0,1-2.62.756l.335-1.472a4.386,4.386,0,0,0,4.51-3.846c0-1.1-.547-1.418-1.934-1.234-1.675.283-2.719-.114-2.723-1.772A6.407,6.407,0,0,1,132.406,135.222Z" fill="#a0a9b0"/>
        </g>
        <g id="Group_414" data-name="Group 414">
          <path id="Path_1204" data-name="Path 1204" d="M145.143,128.059l0,1.291-3.135,1.81.03,10.5-1.341.774-.03-10.5-3.116,1.8,0-1.291Z" fill="#a0a9b0"/>
        </g>
        <g id="Group_415" data-name="Group 415">
          <path id="Path_1205" data-name="Path 1205" d="M154.029,131.5a13.064,13.064,0,0,0,.8,2.778l-1.372.793a11.226,11.226,0,0,1-.692-2.423c-.311-1.452-.861-1.744-2.062-1.1l-1.245.718.015,5.107-1.328.767-.033-11.629a20.291,20.291,0,0,1,2.54-1.717c1.418-.818,2.331-1.045,2.972-.753.518.23.808.864.81,1.773a5.971,5.971,0,0,1-1.919,4.122v.051C153.309,129.841,153.783,130.411,154.029,131.5Zm-3.22-1.176a4.339,4.339,0,0,0,2.3-3.572c0-1.519-.964-1.634-2.362-.841a8.033,8.033,0,0,0-1.308.9l.012,4.3,1.353-.781" fill="#a0a9b0"/>
        </g>
        <g id="Group_416" data-name="Group 416">
          <path id="Path_1206" data-name="Path 1206" d="M162.51,118.032l3.532,9.77-1.411.814-1.109-3.078-3.639,2.1-1.05,4.325-1.372.792,3.452-13.8Zm-2.356,8.26,3.09-1.784-1.012-2.811c-.232-.637-.387-1.246-.542-1.84l-.026.015c-.151.785-.315,1.6-.511,2.426l-1,3.994" fill="#a0a9b0"/>
        </g>
        <g id="Group_417" data-name="Group 417">
          <path id="Path_1207" data-name="Path 1207" d="M178.886,108.576l.033,11.79-1.322.763-.033-11.79Z" fill="#a0a9b0"/>
        </g>
        <g id="Group_418" data-name="Group 418">
          <path id="Path_1208" data-name="Path 1208" d="M187.179,103.6c2.8-1.619,4.623-.2,4.633,3.3a10.367,10.367,0,0,1-4.752,8.961c-2.707,1.563-4.616.248-4.626-3.318A10.551,10.551,0,0,1,187.179,103.6Zm-.046,10.976c2.1-1.213,3.282-4.122,3.275-6.8-.007-2.34-1.08-4.175-3.283-2.9s-3.281,4.224-3.274,6.814c.007,2.516,1.2,4.09,3.282,2.889" fill="#a0a9b0"/>
        </g>
        <g id="Group_419" data-name="Group 419">
          <path id="Path_1209" data-name="Path 1209" d="M203.039,94.63l.033,11.791-1.34.774-3.273-4.107a18.488,18.488,0,0,1-1.927-2.827l-.045.041c.081,1.445.111,2.846.116,4.805l.014,5.041-1.245.718-.033-11.79,1.443-.833,3.305,4.066a16.616,16.616,0,0,1,1.856,2.765l.032-.033c-.126-1.508-.162-2.92-.167-4.761l-.014-4.931Z" fill="#a0a9b0"/>
        </g>
      </g>
    </g>
    <g id="Ellipse_152" data-name="Ellipse 152" transform="translate(-38.057 17.014)" fill="#fff" stroke="#e539ac" stroke-width="3">
      <circle cx="8.5" cy="8.5" r="8.5" stroke="none"/>
      <circle cx="8.5" cy="8.5" r="7" fill="none"/>
    </g>
    <circle id="Ellipse_153" data-name="Ellipse 153" cx="5" cy="5" r="5" transform="translate(77.943 469.014)" fill="#7f5eff"/>
    <circle id="Ellipse_155" data-name="Ellipse 155" cx="5" cy="5" r="5" transform="translate(13.943 84.014)" fill="#0097cf"/>
    <circle id="Ellipse_154" data-name="Ellipse 154" cx="5" cy="5" r="5" transform="translate(522.943 38.014)" fill="#fc50ac"/>
    <path id="Path_1754" data-name="Path 1754" d="M152.045,111.687a6.884,6.884,0,0,0-3.025,3.025,8.588,8.588,0,0,0,.895,9.633.61.61,0,0,0,.9.042l10.907-10.907a.61.61,0,0,0-.042-.9A8.589,8.589,0,0,0,152.045,111.687Z" transform="matrix(0.53, 0.848, -0.848, 0.53, -2.409, 193.333)" fill="#e9208b"/>
    <path id="Path_1755" data-name="Path 1755" d="M152.045,111.687a6.884,6.884,0,0,0-3.025,3.025,8.588,8.588,0,0,0,.895,9.633.61.61,0,0,0,.9.042l10.907-10.907a.61.61,0,0,0-.042-.9A8.589,8.589,0,0,0,152.045,111.687Z" transform="matrix(0.53, 0.848, -0.848, 0.53, 525.591, 265.333)" fill="#ff861d"/>
    <path id="Path_1800" data-name="Path 1800" d="M152.045,111.687a6.884,6.884,0,0,0-3.025,3.025,8.588,8.588,0,0,0,.895,9.633.61.61,0,0,0,.9.042l10.907-10.907a.61.61,0,0,0-.042-.9A8.589,8.589,0,0,0,152.045,111.687Z" transform="matrix(0.53, 0.848, -0.848, 0.53, 515.591, -84.667)" fill="#7f5eff"/>
    <g id="cross" transform="translate(-150.344 313.06)">
      <rect id="Rectangle_335" data-name="Rectangle 335" width="17" height="3" rx="1.5" transform="translate(129.287 133.954)" fill="#0097cf"/>
      <rect id="Rectangle_336" data-name="Rectangle 336" width="19.264" height="2.964" rx="1.482" transform="translate(136.187 144.845) rotate(-90)" fill="#0097cf"/>
    </g>
    <g id="cross-2" data-name="cross" transform="translate(-176.344 -31.94)">
      <rect id="Rectangle_335-2" data-name="Rectangle 335" width="17" height="3" rx="1.5" transform="translate(129.287 133.954)" fill="#ff861d"/>
      <rect id="Rectangle_336-2" data-name="Rectangle 336" width="19.264" height="2.964" rx="1.482" transform="translate(136.187 144.845) rotate(-90)" fill="#ff861d"/>
    </g>
    <g id="cross-3" data-name="cross" transform="translate(342.656 -101.94)">
      <rect id="Rectangle_335-3" data-name="Rectangle 335" width="17" height="3" rx="1.5" transform="translate(129.287 133.954)" fill="#0097cf"/>
      <rect id="Rectangle_336-3" data-name="Rectangle 336" width="19.264" height="2.964" rx="1.482" transform="translate(136.187 144.845) rotate(-90)" fill="#0097cf"/>
    </g>
  </g>
</svg>
