<svg xmlns="http://www.w3.org/2000/svg" xmlns:xlink="http://www.w3.org/1999/xlink" width="618" height="491" viewBox="0 0 618 491">
  <defs>
    <linearGradient id="linear-gradient" x1="7.769" y1="0.161" x2="7.769" y2="1.155" gradientUnits="objectBoundingBox">
      <stop offset="0" stop-color="#f60000"/>
      <stop offset="0.276" stop-color="#049ed4"/>
      <stop offset="0.677" stop-color="#10b1e2"/>
      <stop offset="0.94" stop-color="#1bc2ef"/>
      <stop offset="1" stop-color="#1bc2ef"/>
    </linearGradient>
    <linearGradient id="linear-gradient-2" x1="0.585" y1="-0.036" x2="0.96" y2="1.694" gradientUnits="objectBoundingBox">
      <stop offset="0" stop-color="#4439a9"/>
      <stop offset="0.276" stop-color="#9a5ae1"/>
      <stop offset="0.758" stop-color="#9a5ae1"/>
      <stop offset="0.918" stop-color="#9a5ae1"/>
      <stop offset="1" stop-color="#9a5ae1"/>
    </linearGradient>
    <linearGradient id="linear-gradient-3" x1="0.185" y1="0.036" x2="1.065" y2="1.089" gradientUnits="objectBoundingBox">
      <stop offset="0" stop-color="#4439a9"/>
      <stop offset="0.276" stop-color="#9a5ae1"/>
      <stop offset="0.677" stop-color="#9a5ae1"/>
      <stop offset="0.918" stop-color="#9a5ae1"/>
      <stop offset="1" stop-color="#9a5ae1"/>
    </linearGradient>
    <linearGradient id="linear-gradient-4" x1="-0.092" x2="0.96" y2="1.694" gradientUnits="objectBoundingBox">
      <stop offset="0" stop-color="#4439a9"/>
      <stop offset="0.557" stop-color="#9a5ae1"/>
      <stop offset="0.677" stop-color="#9a5ae1"/>
      <stop offset="0.918" stop-color="#9a5ae1"/>
      <stop offset="1" stop-color="#9a5ae1"/>
    </linearGradient>
    <clipPath id="clip-path">
      <rect id="Rectangle_322" data-name="Rectangle 322" width="329.061" height="212.751" fill="none"/>
    </clipPath>
    <linearGradient id="linear-gradient-5" y1="0.5" x2="1" y2="0.5" gradientUnits="objectBoundingBox">
      <stop offset="0" stop-color="#737afb" stop-opacity="0"/>
      <stop offset="1" stop-color="#6c40e4" stop-opacity="0.502"/>
    </linearGradient>
    <linearGradient id="linear-gradient-7" x1="0.998" y1="0.509" x2="-1.107" y2="0.46" xlink:href="#linear-gradient-5"/>
    <linearGradient id="linear-gradient-8" x1="0.249" y1="0.508" x2="-0.279" y2="0.148" xlink:href="#linear-gradient-5"/>
    <linearGradient id="linear-gradient-9" x1="0.434" y1="0.885" x2="0.016" y2="0.473" xlink:href="#linear-gradient-5"/>
    <linearGradient id="linear-gradient-11" x1="-0.003" y1="0.5" x2="1.004" y2="0.5" gradientUnits="objectBoundingBox">
      <stop offset="0" stop-color="#0097cf"/>
      <stop offset="0.276" stop-color="#049ed4"/>
      <stop offset="0.677" stop-color="#10b1e2"/>
      <stop offset="0.94" stop-color="#1bc2ef"/>
    </linearGradient>
    <linearGradient id="linear-gradient-12" x1="0" y1="0.5" x2="1" y2="0.5" xlink:href="#linear-gradient-11"/>
  </defs>
  <g id="_2" data-name="2" transform="translate(60.951 -4.601)">
    <rect id="canvas" width="618" height="491" transform="translate(-60.951 4.601)" fill="#ec2323" opacity="0"/>
    <g id="Group_636" data-name="Group 636" transform="translate(14 -14)">
      <g id="Ellipse_147" data-name="Ellipse 147" transform="translate(-17.951 88.601)" fill="#fff" stroke="#e539ac" stroke-width="3">
        <circle cx="8.5" cy="8.5" r="8.5" stroke="none"/>
        <circle cx="8.5" cy="8.5" r="7" fill="none"/>
      </g>
      <g id="Ellipse_160" data-name="Ellipse 160" transform="translate(506.049 102.601)" fill="#fff" stroke="#e539ac" stroke-width="3">
        <circle cx="8.5" cy="8.5" r="8.5" stroke="none"/>
        <circle cx="8.5" cy="8.5" r="7" fill="none"/>
      </g>
      <circle id="Ellipse_148" data-name="Ellipse 148" cx="5" cy="5" r="5" transform="translate(92.049 78.601)" fill="#f6de00"/>
      <circle id="Ellipse_150" data-name="Ellipse 150" cx="5" cy="5" r="5" transform="translate(26.049 464.601)" fill="#f6de00"/>
      <circle id="Ellipse_151" data-name="Ellipse 151" cx="5" cy="5" r="5" transform="translate(447.049 59.601)" fill="#7f5eff"/>
      <path id="Path_1752" data-name="Path 1752" d="M152.045,111.687a6.884,6.884,0,0,0-3.025,3.025,8.588,8.588,0,0,0,.895,9.633.61.61,0,0,0,.9.042l10.907-10.907a.61.61,0,0,0-.042-.9A8.589,8.589,0,0,0,152.045,111.687Z" transform="matrix(0.53, 0.848, -0.848, 0.53, 513.697, 260.92)" fill="url(#linear-gradient)"/>
      <g id="cross" transform="translate(-64.238 -80.354)">
        <rect id="Rectangle_335" data-name="Rectangle 335" width="17" height="3" rx="1.5" transform="translate(129.287 133.954)" fill="#1388b4"/>
        <rect id="Rectangle_336" data-name="Rectangle 336" width="19.264" height="2.964" rx="1.482" transform="translate(136.187 144.845) rotate(-90)" fill="#1388b4"/>
      </g>
      <g id="cross-2" data-name="cross" transform="translate(-113.238 120.646)">
        <rect id="Rectangle_335-2" data-name="Rectangle 335" width="17" height="3" rx="1.5" transform="translate(129.287 133.954)" fill="#ff861d"/>
        <rect id="Rectangle_336-2" data-name="Rectangle 336" width="19.264" height="2.964" rx="1.482" transform="translate(136.187 144.845) rotate(-90)" fill="#ff861d"/>
      </g>
      <g id="cross-3" data-name="cross" transform="translate(-156.238 343.646)">
        <rect id="Rectangle_335-3" data-name="Rectangle 335" width="17" height="3" rx="1.5" transform="translate(129.287 133.954)" fill="#1388b4"/>
        <rect id="Rectangle_336-3" data-name="Rectangle 336" width="19.264" height="2.964" rx="1.482" transform="translate(136.187 144.845) rotate(-90)" fill="#1388b4"/>
      </g>
      <g id="cross-4" data-name="cross" transform="translate(359.762 63.646)">
        <rect id="Rectangle_335-4" data-name="Rectangle 335" width="17" height="3" rx="1.5" transform="translate(129.287 133.954)" fill="#1388b4"/>
        <rect id="Rectangle_336-4" data-name="Rectangle 336" width="19.264" height="2.964" rx="1.482" transform="translate(136.187 144.845) rotate(-90)" fill="#1388b4"/>
      </g>
      <path id="blob" d="M127.039,122.892c-10.855,6.854-20.37,15.679-28.838,25.329-14.509,16.537-26.374,36.491-28.242,58.412-2.375,27.86,11.488,54.57,13.52,82.459,2.184,29.979-9.382,60.2-4.028,89.782,4.023,22.233,17.6,42.115,35.351,56.095s39.433,22.374,61.611,26.691c18.431,3.588,38.383,4.279,55.124-4.222,10.832-5.5,19.493-14.424,29.553-21.231,30.868-20.885,70.85-19.881,107.749-25.112,20.45-2.9,40.924-8.069,58.642-18.682s32.527-27.21,37.666-47.215c5.046-19.644.484-40.52-6.581-59.532s-16.627-37.121-22.084-56.655c-5.8-20.779-6.794-42.541-8.928-64.009s-5.6-43.307-15.778-62.331-28.21-34.987-49.624-37.607c-36.066-4.414-76.84,23.911-112.6,29.8C208.5,101.621,163.476,99.889,127.039,122.892Z" transform="translate(2.384)" fill="#ebeaf5"/>
      <g id="Group_500" data-name="Group 500" transform="translate(33.049 123.774)">
        <g id="Group_493" data-name="Group 493" transform="translate(0 27.892)">
          <path id="Path_1500" data-name="Path 1500" d="M33.05,177.629h0c16.531-34.639,52.747-41.565,80.892-15.47h0C97.412,196.8,61.2,203.724,33.05,177.629Z" transform="translate(-33.049 -146.347)" fill="#9a5ae1"/>
          <g id="Group_488" data-name="Group 488" transform="translate(4.186 16.613)">
            <rect id="Rectangle_294" data-name="Rectangle 294" width="74.404" height="0.533" transform="translate(0 13.867) rotate(-10.742)" fill="#fff"/>
          </g>
          <g id="Group_489" data-name="Group 489" transform="translate(22.509 25.267)">
            <rect id="Rectangle_295" data-name="Rectangle 295" width="19.087" height="0.533" transform="translate(0 15.974) rotate(-56.814)" fill="#fff"/>
          </g>
          <g id="Group_490" data-name="Group 490" transform="translate(21.804 10.815)">
            <rect id="Rectangle_296" data-name="Rectangle 296" width="0.533" height="25.47" transform="matrix(0.477, -0.879, 0.879, 0.477, 0, 0.468)" fill="#fff"/>
          </g>
          <g id="Group_491" data-name="Group 491" transform="translate(50.657 5.912)">
            <rect id="Rectangle_297" data-name="Rectangle 297" width="0.533" height="25.315" transform="translate(0 0.475) rotate(-62.932)" fill="#fff"/>
          </g>
          <g id="Group_492" data-name="Group 492" transform="translate(46.958 20.433)">
            <rect id="Rectangle_298" data-name="Rectangle 298" width="23.288" height="0.533" transform="translate(0 19.554) rotate(-57.103)" fill="#fff"/>
          </g>
        </g>
        <g id="Group_499" data-name="Group 499" transform="translate(27.455)">
          <path id="Path_1501" data-name="Path 1501" d="M61.3,120.159h0c29.072.347,45.353,23.043,36.365,50.693h0C68.593,170.5,52.312,147.809,61.3,120.159Z" transform="translate(-58.827 -120.159)" fill="#4439a9"/>
          <g id="Group_494" data-name="Group 494" transform="translate(4.026 2.623)">
            <rect id="Rectangle_299" data-name="Rectangle 299" width="0.404" height="56.362" transform="matrix(0.813, -0.582, 0.582, 0.813, 0, 0.235)" fill="#fff"/>
          </g>
          <g id="Group_495" data-name="Group 495" transform="translate(2.726 18.642)">
            <rect id="Rectangle_300" data-name="Rectangle 300" width="0.404" height="14.458" transform="translate(0 0.4) rotate(-81.633)" fill="#fff"/>
          </g>
          <g id="Group_496" data-name="Group 496" transform="translate(21.914 8.63)">
            <rect id="Rectangle_301" data-name="Rectangle 301" width="19.294" height="0.404" transform="translate(0 19.254) rotate(-86.31)" fill="#fff"/>
          </g>
          <g id="Group_497" data-name="Group 497" transform="translate(34.95 26.908)">
            <rect id="Rectangle_302" data-name="Rectangle 302" width="19.176" height="0.404" transform="translate(0 19.162) rotate(-87.759)" fill="#fff"/>
          </g>
          <g id="Group_498" data-name="Group 498" transform="translate(11.367 35.054)">
            <rect id="Rectangle_303" data-name="Rectangle 303" width="0.404" height="17.641" transform="translate(0 0.4) rotate(-81.938)" fill="#fff"/>
          </g>
        </g>
      </g>
      <g id="Group_513" data-name="Group 513" transform="translate(417.968 256.065)">
        <g id="Group_506" data-name="Group 506">
          <path id="Path_1502" data-name="Path 1502" d="M444.294,244.369h0c17.3,37.908-2.192,72.874-43.531,78.1h0C383.467,284.559,402.955,249.593,444.294,244.369Z" transform="translate(-394.455 -244.369)" fill="url(#linear-gradient-2)"/>
          <g id="Group_501" data-name="Group 501" transform="translate(7.651 3.758)">
            <rect id="Rectangle_304" data-name="Rectangle 304" width="80.775" height="0.579" transform="matrix(0.488, -0.873, 0.873, 0.488, 0, 70.497)" fill="#fff"/>
          </g>
          <g id="Group_502" data-name="Group 502" transform="translate(25.303 11.784)">
            <rect id="Rectangle_305" data-name="Rectangle 305" width="0.579" height="20.721" transform="translate(0 0.168) rotate(-16.852)" fill="#fff"/>
          </g>
          <g id="Group_503" data-name="Group 503" transform="translate(25.553 32.086)">
            <rect id="Rectangle_306" data-name="Rectangle 306" width="27.651" height="0.579" transform="translate(0 10.144) rotate(-21.521)" fill="#fff"/>
          </g>
          <g id="Group_504" data-name="Group 504" transform="translate(9.93 59.509)">
            <rect id="Rectangle_307" data-name="Rectangle 307" width="27.482" height="0.579" transform="translate(0 10.725) rotate(-22.97)" fill="#fff"/>
          </g>
          <g id="Group_505" data-name="Group 505" transform="translate(9.301 33.003)">
            <rect id="Rectangle_308" data-name="Rectangle 308" width="0.579" height="25.282" transform="matrix(0.956, -0.295, 0.295, 0.956, 0, 0.171)" fill="#fff"/>
          </g>
        </g>
        <g id="Group_512" data-name="Group 512" transform="translate(10.672 44.503)">
          <path id="Path_1503" data-name="Path 1503" d="M472.014,307.812h0c-20.56,23.949-50.8,21.672-67.539-5.087h0C425.035,278.777,455.273,281.053,472.014,307.812Z" transform="translate(-404.475 -286.154)" fill="#4439a9"/>
          <g id="Group_507" data-name="Group 507" transform="translate(3.036 16.272)">
            <rect id="Rectangle_309" data-name="Rectangle 309" width="0.438" height="61.188" transform="translate(0 0.437) rotate(-85.607)" fill="#fff"/>
          </g>
          <g id="Group_508" data-name="Group 508" transform="translate(39.792 8.593)">
            <rect id="Rectangle_310" data-name="Rectangle 310" width="15.697" height="0.439" transform="matrix(0.747, -0.665, 0.665, 0.747, 0, 10.434)" fill="#fff"/>
          </g>
          <g id="Group_509" data-name="Group 509" transform="translate(30.478 18.394)">
            <rect id="Rectangle_311" data-name="Rectangle 311" width="0.439" height="20.946" transform="matrix(0.69, -0.724, 0.724, 0.69, 0, 0.317)" fill="#fff"/>
          </g>
          <g id="Group_510" data-name="Group 510" transform="translate(6.264 16.56)">
            <rect id="Rectangle_312" data-name="Rectangle 312" width="0.438" height="20.818" transform="matrix(0.672, -0.741, 0.741, 0.672, 0, 0.325)" fill="#fff"/>
          </g>
          <g id="Group_511" data-name="Group 511" transform="translate(17.597 4.34)">
            <rect id="Rectangle_313" data-name="Rectangle 313" width="19.152" height="0.439" transform="translate(0 12.807) rotate(-41.969)" fill="#fff"/>
          </g>
        </g>
      </g>
      <g id="Group_540" data-name="Group 540" transform="translate(53.09 123.616)">
        <g id="Group_515" data-name="Group 515">
          <path id="Path_1504" data-name="Path 1504" d="M431.235,120.011H91.053a12.346,12.346,0,0,0-12.346,12.346V366.63H443.582V132.357A12.346,12.346,0,0,0,431.235,120.011Z" transform="translate(-50.12 -120.011)" fill="url(#linear-gradient-3)"/>
          <path id="Rectangle_314" data-name="Rectangle 314" d="M4.055,0h413.94a4.054,4.054,0,0,1,4.054,4.054v6.124a4.054,4.054,0,0,1-4.054,4.054H4.054A4.054,4.054,0,0,1,0,10.178V4.055A4.055,4.055,0,0,1,4.055,0Z" transform="translate(0 242.411)" fill="url(#linear-gradient-4)"/>
          <g id="Group_514" data-name="Group 514" transform="translate(33.752 5.197)">
            <path id="Path_1505" data-name="Path 1505" d="M430.48,124.891H91.178a7.621,7.621,0,0,0-7.622,7.621V362.8H438.1V132.512A7.621,7.621,0,0,0,430.48,124.891Z" transform="translate(-83.556 -124.891)" fill="#070419"/>
            <rect id="Rectangle_315" data-name="Rectangle 315" width="329.061" height="212.751" transform="translate(12.742 17.037)" fill="#fff"/>
            <rect id="Rectangle_316" data-name="Rectangle 316" width="279.943" height="174.145" transform="translate(37.301 36.34)" fill="#fff"/>
          </g>
          <path id="Path_1506" data-name="Path 1506" d="M251.961,133.979a1.848,1.848,0,1,1-1.848-1.849A1.848,1.848,0,0,1,251.961,133.979Z" transform="translate(-39.088 -119.223)" fill="#f7f7f7"/>
          <path id="Path_1507" data-name="Path 1507" d="M287.743,353.472H216.8a1.689,1.689,0,0,0,0,3.378h70.946a1.689,1.689,0,0,0,0-3.378Z" transform="translate(-41.246 -104.822)" fill="#fff"/>
        </g>
        <rect id="Rectangle_317" data-name="Rectangle 317" width="202.472" height="87.805" transform="translate(110.909 87.867)" fill="#9a5ae1"/>
        <rect id="Rectangle_318" data-name="Rectangle 318" width="12.915" height="14.232" transform="translate(91.201 242.411)" fill="#737afb" opacity="0.3"/>
        <rect id="Rectangle_319" data-name="Rectangle 319" width="12.915" height="14.232" transform="translate(116.316 242.411)" fill="#737afb" opacity="0.3"/>
        <rect id="Rectangle_320" data-name="Rectangle 320" width="12.915" height="14.232" transform="translate(308.647 242.411)" fill="#737afb" opacity="0.3"/>
        <rect id="Rectangle_321" data-name="Rectangle 321" width="12.915" height="14.232" transform="translate(330.933 242.411)" fill="#737afb" opacity="0.3"/>
        <g id="Group_518" data-name="Group 518" transform="translate(46.494 22.235)">
          <g id="Group_517" data-name="Group 517" clip-path="url(#clip-path)">
            <g id="Group_516" data-name="Group 516" transform="translate(32.145 117.518)" opacity="0.1">
              <path id="Path_1508" data-name="Path 1508" d="M214.5,296.341a11.627,11.627,0,0,0-6.433-9.368l-2.188-1.08h0s-3.962-.237-8.25-.457l-.355-.018-.412-.02-.387-.019-.492-.024-.22-.011a14.8,14.8,0,0,0,5.725-7.37l.023-.066a14.44,14.44,0,0,0,.41-1.4c.017-.067.036-.133.052-.2.1-.435.173-.877.231-1.325.014-.1.034-.2.046-.3a15,15,0,0,0,.095-1.631h0a14.775,14.775,0,0,0-14.775-14.775c-.492,0-.979.027-1.459.073-.162.016-.32.047-.48.068-.314.042-.629.082-.937.144-.191.037-.376.089-.563.134-.271.064-.541.128-.805.207-.2.06-.394.132-.59.2-.243.084-.485.167-.721.264-.2.082-.4.175-.6.266-.218.1-.436.2-.648.312s-.4.219-.6.334-.389.228-.577.35-.4.265-.592.4c-.173.124-.342.249-.508.38-.2.154-.391.312-.58.476-.148.129-.292.261-.435.4-.193.181-.382.364-.566.555-.124.129-.241.262-.359.4-.187.21-.373.422-.547.642-.1.121-.185.247-.278.372-.179.24-.356.479-.52.731a7.977,7.977,0,0,0-2.586-1.819,4.739,4.739,0,0,0-6.253,6.58,8.193,8.193,0,0,0,5.4,4.185c.36.1.723.176,1.088.242a14.634,14.634,0,0,0,.688,3.494,2.027,2.027,0,0,0-.547.509,2.782,2.782,0,0,0-.193,2.557,5.053,5.053,0,0,0,4.315,3.288,2.828,2.828,0,0,0,.521-.052,14.768,14.768,0,0,0,3.7,2.467c-.73.212-1.448.432-2.124.649-2.8.9-5.128.819-6.489,3.427l-12.869,24.666H129.86a4.159,4.159,0,0,0-4.158,4.241,4.2,4.2,0,0,0,.141.981l7.521,28.337c.005.022.016.04.021.062a4.125,4.125,0,0,0,.206.574,4.083,4.083,0,0,0,.263.479c.018.03.032.063.051.092a4.154,4.154,0,0,0,3.476,1.884h15.525a8.6,8.6,0,0,0-1.888,8.305l13.823,51.357,1.68-.535,1.273,4.526h0l.494,1.755s.943,12.489.706,16.024,3.535,4.713,4.713,2.121-.943-19.794-.943-19.794l-1.079-6.275-6.075-47.241a5.356,5.356,0,0,1,4.47-6.069l5.872-.92a8.6,8.6,0,0,0-2.729,7.495l5.617,47.668.051,6.992s-.884,4.478-1.591,9.249-1.237,9.838-.529,11.016c1.413,2.357,4.241,0,4.712-2.356s1.179-16.966,1.179-16.966l.1-1.949h0l.135-2.71.112-2.234,2.057.514,2.778-46.933a7.257,7.257,0,0,1,5.046-6.429l12.3-3.9a6.75,6.75,0,0,0,3.15-4.7l.834.184L208.6,338.91l7.032-3.754a6.4,6.4,0,0,0,3.322-6.516ZM177.111,283.5a4.508,4.508,0,0,1-3.831-2.946,2.287,2.287,0,0,1,.129-2.088,1.511,1.511,0,0,1,.307-.315,14.776,14.776,0,0,0,3.407,5.348ZM173.7,328.093l-2.609-9.831a4.145,4.145,0,0,0-.828-1.579l4.44-10.471Z" transform="translate(-125.701 -250.768)" fill="#280e87"/>
              <path id="Path_1509" data-name="Path 1509" d="M416.016,315.173H386.028l-12.869-24.666c-1.36-2.608-3.687-2.528-6.489-3.427-.675-.216-1.393-.437-2.123-.649a14.734,14.734,0,0,0,6.9-20.114c-.022-.045-.04-.091-.064-.134-.159-.3-.336-.592-.514-.882-.063-.1-.12-.207-.185-.307-.167-.256-.347-.5-.529-.744-.092-.125-.181-.25-.277-.372-.176-.22-.361-.432-.548-.643-.118-.132-.235-.265-.358-.393-.183-.192-.373-.375-.566-.556-.144-.134-.286-.266-.436-.4-.189-.164-.382-.322-.58-.476-.166-.131-.335-.257-.507-.38-.195-.138-.391-.274-.592-.4s-.382-.238-.577-.35-.4-.229-.6-.334-.428-.212-.646-.312c-.2-.092-.4-.184-.6-.266-.236-.1-.478-.18-.72-.264-.2-.068-.391-.141-.591-.2-.264-.079-.535-.143-.8-.207-.189-.045-.374-.1-.564-.134-.308-.062-.622-.1-.936-.144-.161-.021-.318-.052-.481-.068-.48-.047-.966-.073-1.459-.073a14.782,14.782,0,0,0-3.151.345,9.821,9.821,0,0,0-5.154,1.671c-2.259,1.578-3.681,4.171-6.013,5.639-3.375,2.125-8.31,1.705-10.732,4.874-2.1,2.752-1.119,6.7-1.923,10.065-1.83,7.671-12.043,10.344-15.317,17.518-2.793,6.121.694,13.7,6.267,17.468a23.17,23.17,0,0,0,6.009,2.85l-1.371,9.932a6.4,6.4,0,0,0,3.323,6.516l6.825,3.644-.336,10.647-.029.574.012,0-.012.367.906-.217a6.735,6.735,0,0,0,3.078,4.366l12.3,3.9a7.257,7.257,0,0,1,5.046,6.429l2.778,46.933,2.057-.514h0l.247,4.944h0l.1,1.949s.706,14.609,1.178,16.966,3.3,4.713,4.713,2.356c.707-1.178.177-6.244-.53-11.016s-1.59-9.249-1.59-9.249l.05-6.992,5.617-47.668a8.6,8.6,0,0,0-2.729-7.495l5.872.92a5.356,5.356,0,0,1,4.47,6.069l-6.074,47.241-1.08,6.275s-2.121,17.2-.943,19.794,4.948,1.414,4.713-2.121.707-16.024.707-16.024l.493-1.755h0l1.274-4.526,1.68.535,13.822-51.357a8.6,8.6,0,0,0-1.888-8.305H408.5a4.152,4.152,0,0,0,3.475-1.884c.019-.029.033-.062.051-.092a4.1,4.1,0,0,0,.264-.479,4.264,4.264,0,0,0,.2-.574c.006-.021.016-.039.022-.062l7.52-28.337a4.2,4.2,0,0,0,.141-.981A4.159,4.159,0,0,0,416.016,315.173Zm-40.4,1.51a4.145,4.145,0,0,0-.828,1.579l-2.609,9.831-1-21.881Z" transform="translate(-113.383 -250.768)" fill="#280e87"/>
              <path id="Path_1510" data-name="Path 1510" d="M318.064,339.441a20.15,20.15,0,0,0-5.888-.692c-4.727-.082-9.453-.11-14.18-.112l.249-1.069,9.8-17.215a3.562,3.562,0,0,0,.425-2.455c-1.611-8.038-14.845-27.316-15.415-28.191-1.519-2.338-5.947-2.56-5.947-2.56l-.005.093a4.276,4.276,0,0,0-1.306-.211l-9.76.073v-.192a14.464,14.464,0,0,0,8.571-7.731,4.01,4.01,0,1,0,1.157-7.916c-.028-.2-.077-.39-.112-.585a15.52,15.52,0,0,0-.211-8.82c-.856-2.612-2.664-5.157-5.331-5.82a1.717,1.717,0,0,0-.54-.054c-.042-.089-.063-.185-.112-.272a7,7,0,0,0-2.915-2.461c-2.482-1.351-5.372-2.456-8.134-1.86-5.872,1.162-8.7,5.147-9.517,7.662a4.816,4.816,0,0,0-1.077,1.329,13.254,13.254,0,0,0-1.1,10.888,4.007,4.007,0,1,0,1.567,7.806,14.458,14.458,0,0,0,8.867,7.911v.181l-9.156.069a4.323,4.323,0,0,0-1.338.242l0-.088s-4.455.005-6,2.314c-.574.861-15.338,20.149-17.4,28.37a3.39,3.39,0,0,0,.468,2.716l11.934,17.843c-4.4.007-8.8.036-13.2.113a20.153,20.153,0,0,0-5.889.692,6.92,6.92,0,0,0-4.4,3.718,6.479,6.479,0,0,0,.94,6.006,12.361,12.361,0,0,0,4.953,3.842c4.741,2.244,10.083,2.8,15.313,3.2,7.484.566,14.99.837,22.5.856a8.025,8.025,0,0,1-.151,1.461c-.824,2.678-4.713,6.28-4.848,9.076-.061,1.259,2.063,3.2,3.831,3.575a39.854,39.854,0,0,0,4.992-11.071c.136-.493.909-1.816,1.286-2.725.376.91,1.149,2.232,1.286,2.725a39.824,39.824,0,0,0,4.992,11.071c1.767-.377,3.891-2.316,3.83-3.575-.134-2.8-4.024-6.4-4.847-9.076a7.933,7.933,0,0,1-.151-1.453q12.6.077,25.18-.865c5.23-.394,10.573-.954,15.313-3.2a12.364,12.364,0,0,0,4.954-3.842,6.478,6.478,0,0,0,.939-6.006A6.917,6.917,0,0,0,318.064,339.441ZM275.4,347.706c-1.013.668-2.045,1.27-3.081,1.86-1.036-.59-2.069-1.192-3.082-1.86a8.051,8.051,0,0,1,.28-.785h5.6A7.772,7.772,0,0,1,275.4,347.706Zm22.5-31.8a3.677,3.677,0,0,1,.475,3.555l-1.648,4.156a4.757,4.757,0,0,0-1.229-.155l-5.059.038-.135-17.734Zm-40.865-44.7v.033c-.031,0-.059.009-.089.01C256.973,271.235,257,271.219,257.031,271.205ZM244.3,317.49l9.469-12.321.142,18.61-6.053.046C245.63,320.543,243.985,317.859,244.3,317.49Z" transform="translate(-119.45 -251.226)" fill="#280e87"/>
            </g>
          </g>
        </g>
        <path id="Path_1511" data-name="Path 1511" d="M269.97,242.593l-27.863-16.087V258.68Z" transform="translate(-39.489 -113.082)" fill="#fff"/>
        <g id="Group_523" data-name="Group 523" transform="translate(57.325 147.262)">
          <path id="Path_1512" data-name="Path 1512" d="M155.73,401.048l.05,6.992s-.884,4.478-1.59,9.249-1.238,9.838-.53,11.016c1.413,2.357,4.241,0,4.713-2.356s1.178-16.966,1.178-16.966l.471-9.426Z" transform="translate(-102.59 -249.085)" fill="#6c40e4"/>
          <path id="Path_1513" data-name="Path 1513" d="M149.2,400.081l1.08,6.275s2.121,17.2.943,19.794-4.949,1.414-4.713-2.121-.707-16.024-.707-16.024l-2.121-7.541Z" transform="translate(-103.217 -249.051)" fill="#6c40e4"/>
          <g id="Group_521" data-name="Group 521" transform="translate(24.649 0)">
            <path id="Path_1514" data-name="Path 1514" d="M153.066,328.155l.517,7.744-19.953,9.628a8.6,8.6,0,0,0-4.147,10.071l13.822,51.357,6.844-2.178-6.074-47.241a5.355,5.355,0,0,1,4.469-6.069l7.1-1.113,7.567-7.71-8.747,7.85a8.6,8.6,0,0,0-2.78,7.548l5.617,47.668,6.222,1.556,2.778-46.933a7.256,7.256,0,0,1,5.045-6.429l12.3-3.9a6.752,6.752,0,0,0,3.236-5.587l-.517-16.521Z" transform="translate(-128.814 -253.748)" fill="#241084"/>
            <path id="Path_1515" data-name="Path 1515" d="M187.65,348.383l-3.293-64.127s-13.639-.818-17.7-.818c-2.21,0-5.988,1.049-8.97,2.006-2.8.9-5.128.818-6.488,3.426l-22.368,42.871,13.744,1.309,4.582-5.236-2.33-3.533,8.355-19.706-1.64,35.785Z" transform="translate(-128.832 -256.64)" fill="#737afb"/>
            <path id="Path_1516" data-name="Path 1516" d="M152.323,295.945,137.5,322.731l4.616,5.408a8.159,8.159,0,0,0,3.661-.2l.821-.938-2.33-3.533,8.355-19.706Z" transform="translate(-128.268 -255.827)" fill="url(#linear-gradient-5)"/>
            <path id="Path_1517" data-name="Path 1517" d="M168.617,294.69a8.149,8.149,0,0,0,7.727-10.771c-4.2-.226-9.472-.481-11.742-.481a18.278,18.278,0,0,0-3.733.541,8.149,8.149,0,0,0,7.748,10.711Z" transform="translate(-126.775 -256.64)" fill="#fff"/>
            <path id="Path_1518" data-name="Path 1518" d="M183.726,294.6l2.573,32.4-22.96,15.74Z" transform="translate(-126.587 -255.914)" fill="url(#linear-gradient-5)"/>
            <path id="Path_1519" data-name="Path 1519" d="M163.056,277.479c.382.765,3.06,11.286,3.06,11.286a3.393,3.393,0,0,0,3.253,1.529c2.3-.191,3.252-3.443,3.252-3.443l-4.017-13.2Z" transform="translate(-126.605 -257.277)" fill="#f6a091"/>
            <path id="Path_1520" data-name="Path 1520" d="M177.952,271.963c0,7.248-7.7,15.268-14.942,15.268s-11.3-8.02-11.3-15.268a13.123,13.123,0,1,1,26.245,0Z" transform="translate(-127.344 -258.241)" fill="#f6a091"/>
            <circle id="Ellipse_139" data-name="Ellipse 139" cx="14.774" cy="14.774" r="14.774" transform="translate(22.442)" fill="#f6a091"/>
            <g id="Group_519" data-name="Group 519" transform="translate(22.231 18.991)">
              <path id="Path_1521" data-name="Path 1521" d="M154.236,282.856a5.054,5.054,0,0,1-4.316-3.288,2.788,2.788,0,0,1,.193-2.557,2.247,2.247,0,0,1,1.906-.9,5.056,5.056,0,0,1,4.315,3.288,2.779,2.779,0,0,1-.193,2.556A2.245,2.245,0,0,1,154.236,282.856Zm-2.216-6.234a1.744,1.744,0,0,0-1.486.686,2.287,2.287,0,0,0-.13,2.088,4.51,4.51,0,0,0,3.832,2.946,1.748,1.748,0,0,0,1.486-.686,2.286,2.286,0,0,0,.129-2.088A4.508,4.508,0,0,0,152.019,276.622Z" transform="translate(-149.705 -276.108)" fill="#241084"/>
            </g>
            <g id="Group_520" data-name="Group 520" transform="translate(30.934 18.991)">
              <path id="Path_1522" data-name="Path 1522" d="M162.407,282.856a5.054,5.054,0,0,1-4.316-3.288,2.785,2.785,0,0,1,.194-2.557,2.243,2.243,0,0,1,1.905-.9,5.056,5.056,0,0,1,4.316,3.288,2.785,2.785,0,0,1-.193,2.556A2.247,2.247,0,0,1,162.407,282.856Zm-2.216-6.234a1.744,1.744,0,0,0-1.486.686,2.284,2.284,0,0,0-.129,2.088,4.507,4.507,0,0,0,3.831,2.946,1.748,1.748,0,0,0,1.486-.686,2.286,2.286,0,0,0,.129-2.088A4.508,4.508,0,0,0,160.19,276.622Z" transform="translate(-157.876 -276.108)" fill="#241084"/>
            </g>
            <path id="Path_1523" data-name="Path 1523" d="M155.489,280.145c.236.409.2.871-.081,1.033s-.7-.037-.935-.446-.2-.87.081-1.033S155.253,279.737,155.489,280.145Z" transform="translate(-127.174 -256.887)" fill="#2d2b42"/>
            <path id="Path_1524" data-name="Path 1524" d="M161.653,280.439c.236.408.2.871-.081,1.033s-.7-.037-.936-.446-.2-.871.082-1.033S161.417,280.03,161.653,280.439Z" transform="translate(-126.773 -256.868)" fill="#2d2b42"/>
          </g>
          <path id="Path_1525" data-name="Path 1525" d="M167.39,338.784c-.573-.192-5.421-2.541-8.865-2.541s-7.651,3.635-7.651,3.635-.574,1.913,1.722,1.53-.316,1.444-.316,1.444a20.823,20.823,0,0,0,2.8.469c2.679.382,13.119-.18,13.119-.18Z" transform="translate(-102.753 -253.205)" fill="#f6a091"/>
          <path id="Path_1526" data-name="Path 1526" d="M181.911,284.206l1.847,42.206L166.41,342.107l.825,4.406,24.43-13.045a6.4,6.4,0,0,0,3.323-6.516l-4.457-32.3a11.626,11.626,0,0,0-6.432-9.368Z" transform="translate(-101.739 -256.59)" fill="#737afb"/>
          <g id="Group_522" data-name="Group 522" transform="translate(0 56.895)">
            <path id="Path_1527" data-name="Path 1527" d="M170.751,346.306H126.558v-3.24h44.193a1.62,1.62,0,0,1,1.62,1.62h0A1.62,1.62,0,0,1,170.751,346.306Z" transform="translate(-104.331 -309.656)" fill="#fff"/>
            <path id="Path_1528" data-name="Path 1528" d="M159.984,348.347H117.368a4.157,4.157,0,0,1-4.017-3.09l-7.52-28.338a4.155,4.155,0,0,1,4.016-5.222h37.212a4.157,4.157,0,0,1,4.017,3.09Z" transform="translate(-105.689 -311.697)" fill="#fff"/>
            <path id="Path_1529" data-name="Path 1529" d="M109.847,311.7a4.155,4.155,0,0,0-4.016,5.222l7.52,28.338a4.143,4.143,0,0,0,1.4,2.155L140.659,311.7Z" transform="translate(-105.689 -311.697)" fill="url(#linear-gradient-7)"/>
            <path id="Path_1530" data-name="Path 1530" d="M133.531,331.462a2.556,2.556,0,0,1-2.6,3.347,4.654,4.654,0,0,1-4.288-3.347,2.555,2.555,0,0,1,2.6-3.346A4.655,4.655,0,0,1,133.531,331.462Z" transform="translate(-104.332 -310.629)" fill="#6c40e4"/>
          </g>
          <path id="Path_1531" data-name="Path 1531" d="M164.671,258.277A14.771,14.771,0,0,0,150,271.344a11.737,11.737,0,0,0,17.715-4.442,20.8,20.8,0,0,0,.045,4.911A7,7,0,0,0,170,276.081a7.479,7.479,0,0,1,.8-3.325,2.559,2.559,0,0,1,2.919-1.256,2.388,2.388,0,0,1,1.377,1.918,4.86,4.86,0,0,1-.4,2.416,10.415,10.415,0,0,1-2.052,3.275,21.538,21.538,0,0,0,5.334.314,14.749,14.749,0,0,0-13.314-21.146Z" transform="translate(-102.806 -258.277)" fill="#6c40e4"/>
          <path id="Path_1532" data-name="Path 1532" d="M176.224,274.708a4.476,4.476,0,1,1-4.476-4.476A4.477,4.477,0,0,1,176.224,274.708Z" transform="translate(-101.683 -257.499)" fill="#f6a091"/>
          <path id="Path_1533" data-name="Path 1533" d="M149.182,400.081l.806,4.689-4.7,1.481-1.3-4.628Z" transform="translate(-103.197 -249.051)" fill="#f6a091"/>
          <path id="Path_1534" data-name="Path 1534" d="M155.621,406.194l3.88.749.247-4.944-4.165-1.041Z" transform="translate(-102.443 -248.994)" fill="#f6a091"/>
          <path id="Path_1535" data-name="Path 1535" d="M168.364,266.408a14.972,14.972,0,0,1-3.182,4.972c-2.342,2.118-5.726,2.533-8.878,2.727a21.45,21.45,0,0,1-7.009-.409,8.2,8.2,0,0,1-5.4-4.185,4.739,4.739,0,0,1,6.253-6.58,9.14,9.14,0,0,1,3.743,3.155,32.56,32.56,0,0,1,6.042-3.41c1.779-.742,3.858-1.31,5.581-.446C166.778,262.865,167.636,265.193,168.364,266.408Z" transform="translate(-103.235 -258.048)" fill="#6c40e4"/>
        </g>
        <g id="Group_526" data-name="Group 526" transform="translate(258.978 147.262)">
          <path id="Path_1536" data-name="Path 1536" d="M340.416,259.371c-3.424-1.177-7.455-1.172-10.423.9-2.259,1.578-3.682,4.171-6.014,5.639-3.374,2.125-8.31,1.705-10.73,4.874-2.1,2.752-1.12,6.7-1.923,10.065-1.831,7.671-12.043,10.344-15.317,17.518-2.794,6.121.693,13.7,6.267,17.468s12.621,4.536,19.349,4.594c5.049.043,10.187-.268,14.936-1.986s9.111-5.006,11.185-9.61c2.813-6.24.967-13.695-2.505-19.593-1.05-1.784-2.285-3.636-2.206-5.7.089-2.343,1.823-4.236,3.062-6.227C351.014,269.4,349.116,262.362,340.416,259.371Z" transform="translate(-295.024 -258.257)" fill="#6c40e4"/>
          <path id="Path_1537" data-name="Path 1537" d="M344.109,401.048l-.051,6.992s.884,4.478,1.59,9.249,1.238,9.838.53,11.016c-1.413,2.357-4.241,0-4.713-2.356s-1.178-16.966-1.178-16.966l-.471-9.426Z" transform="translate(-292.11 -249.085)" fill="#c94bbd"/>
          <path id="Path_1538" data-name="Path 1538" d="M350.71,400.081l-1.08,6.275s-2.121,17.2-.941,19.794,4.948,1.414,4.712-2.121.707-16.024.707-16.024l2.121-7.541Z" transform="translate(-291.556 -249.051)" fill="#c94bbd"/>
          <g id="Group_524" data-name="Group 524" transform="translate(21.672 0)">
            <path id="Path_1539" data-name="Path 1539" d="M349.892,328.155l-.515,7.744,19.952,9.628a8.6,8.6,0,0,1,4.148,10.071l-13.823,51.357-6.844-2.178,6.075-47.241a5.357,5.357,0,0,0-4.47-6.069l-7.1-1.113-7.568-7.71,8.747,7.85a8.6,8.6,0,0,1,2.78,7.548l-5.616,47.668-6.222,1.556-2.778-46.933a7.258,7.258,0,0,0-5.046-6.429l-12.3-3.9a6.752,6.752,0,0,1-3.236-5.587l.517-16.521Z" transform="translate(-315.326 -253.748)" fill="#6c40e4"/>
            <path id="Path_1540" data-name="Path 1540" d="M315.372,348.383l3.294-64.127s13.638-.818,17.7-.818c2.211,0,5.988,1.049,8.97,2.006,2.8.9,5.128.818,6.489,3.426l22.367,42.871-13.744,1.309-4.581-5.236,2.329-3.533-8.355-19.706,1.64,35.785Z" transform="translate(-315.372 -256.64)" fill="#c94bbd"/>
            <path id="Path_1541" data-name="Path 1541" d="M348.03,295.945l14.827,26.786-4.616,5.408a8.159,8.159,0,0,1-3.661-.2l-.82-.938,2.329-3.533-8.355-19.706Z" transform="translate(-313.267 -255.827)" fill="url(#linear-gradient-8)"/>
            <path id="Path_1542" data-name="Path 1542" d="M336.423,302.805c-4.507,0-12.774-11.768-12.774-16.275a8.142,8.142,0,0,1,.434-2.61c4.2-.226,9.472-.481,11.742-.481a18.3,18.3,0,0,1,3.734.541,8.147,8.147,0,0,1,.412,2.551C339.971,291.037,340.93,302.805,336.423,302.805Z" transform="translate(-314.833 -256.64)" fill="#fff"/>
            <path id="Path_1543" data-name="Path 1543" d="M317.051,294.6l-1.679,53.424,22.066-5.289Z" transform="translate(-315.372 -255.914)" fill="url(#linear-gradient-9)"/>
            <path id="Path_1544" data-name="Path 1544" d="M336.957,277.479c-.382.765-3.06,11.286-3.06,11.286a3.393,3.393,0,0,1-3.253,1.529c-2.3-.191-3.252-3.443-3.252-3.443l4.017-13.2Z" transform="translate(-314.59 -257.277)" fill="#f6a091"/>
            <path id="Path_1545" data-name="Path 1545" d="M323.08,271.963c0,7.248,7.7,15.268,14.942,15.268s11.3-8.02,11.3-15.268a13.123,13.123,0,1,0-26.245,0Z" transform="translate(-314.871 -258.241)" fill="#f6a091"/>
            <circle id="Ellipse_140" data-name="Ellipse 140" cx="14.774" cy="14.774" r="14.774" transform="translate(6.828)" fill="#f6a091"/>
            <path id="Path_1546" data-name="Path 1546" d="M344.8,279.726c-.3.51-.249,1.087.1,1.29s.874-.047,1.169-.557.248-1.087-.1-1.29S345.1,279.216,344.8,279.726Z" transform="translate(-313.47 -256.923)" fill="#2d2b42"/>
            <path id="Path_1547" data-name="Path 1547" d="M337.821,280.485c-.324.56-.274,1.2.112,1.418s.96-.052,1.283-.612.274-1.2-.112-1.417S338.145,279.925,337.821,280.485Z" transform="translate(-313.925 -256.877)" fill="#2d2b42"/>
          </g>
          <path id="Path_1548" data-name="Path 1548" d="M333.1,338.784c.574-.192,5.421-2.541,8.865-2.541s7.651,3.635,7.651,3.635.574,1.913-1.721,1.53.315,1.444.315,1.444a20.822,20.822,0,0,1-2.8.469c-2.679.382-13.119-.18-13.119-.18Z" transform="translate(-292.599 -253.205)" fill="#f6a091"/>
          <path id="Path_1549" data-name="Path 1549" d="M319.268,284.206l-1.847,42.206,17.348,15.695-.825,4.406-24.43-13.045a6.4,6.4,0,0,1-3.323-6.516l4.457-32.3a11.628,11.628,0,0,1,6.432-9.368Z" transform="translate(-294.301 -256.59)" fill="#c94bbd"/>
          <g id="Group_525" data-name="Group 525" transform="translate(37.099 56.895)">
            <path id="Path_1550" data-name="Path 1550" d="M331.477,346.306h44.193v-3.24H331.477a1.62,1.62,0,0,0-1.62,1.62h0A1.62,1.62,0,0,0,331.477,346.306Z" transform="translate(-329.857 -309.656)" fill="#fff"/>
            <path id="Path_1551" data-name="Path 1551" d="M342.762,348.347h42.615a4.156,4.156,0,0,0,4.017-3.09l7.521-28.338A4.156,4.156,0,0,0,392.9,311.7H355.686a4.157,4.157,0,0,0-4.017,3.09Z" transform="translate(-329.017 -311.697)" fill="#fff"/>
            <path id="Path_1552" data-name="Path 1552" d="M391.718,311.7a4.156,4.156,0,0,1,4.017,5.222l-7.521,28.338a4.143,4.143,0,0,1-1.4,2.155L360.906,311.7Z" transform="translate(-327.837 -311.697)" fill="url(#linear-gradient-5)"/>
            <path id="Path_1553" data-name="Path 1553" d="M366.331,331.462a2.556,2.556,0,0,0,2.6,3.347,4.654,4.654,0,0,0,4.288-3.347,2.555,2.555,0,0,0-2.6-3.346A4.655,4.655,0,0,0,366.331,331.462Z" transform="translate(-327.491 -310.629)" fill="#6c40e4"/>
          </g>
          <path id="Path_1554" data-name="Path 1554" d="M336.556,258.277a14.771,14.771,0,0,1,14.668,13.067A11.735,11.735,0,0,1,333.51,266.9a20.86,20.86,0,0,1-.046,4.911,7,7,0,0,1-2.238,4.268,7.465,7.465,0,0,0-.8-3.325A2.559,2.559,0,0,0,327.5,271.5a2.388,2.388,0,0,0-1.377,1.918,4.872,4.872,0,0,0,.4,2.416,10.414,10.414,0,0,0,2.052,3.275,21.532,21.532,0,0,1-5.333.314,14.748,14.748,0,0,1,13.313-21.146Z" transform="translate(-293.283 -258.277)" fill="#6c40e4"/>
          <path id="Path_1555" data-name="Path 1555" d="M323.752,274.708a4.476,4.476,0,1,0,4.476-4.476A4.477,4.477,0,0,0,323.752,274.708Z" transform="translate(-293.155 -257.499)" fill="#f6a091"/>
          <path id="Path_1556" data-name="Path 1556" d="M350.614,400.081l-.806,4.689,4.7,1.481,1.3-4.628Z" transform="translate(-291.46 -249.051)" fill="#f6a091"/>
          <path id="Path_1557" data-name="Path 1557" d="M344.063,406.194l-3.88.749L339.936,402l4.166-1.041Z" transform="translate(-292.102 -248.994)" fill="#f6a091"/>
        </g>
        <g id="Group_530" data-name="Group 530" transform="translate(159.658 139.752)">
          <path id="Rectangle_323" data-name="Rectangle 323" d="M4.093,0H32.434a4.093,4.093,0,0,1,4.093,4.093V41.115a0,0,0,0,1,0,0H0a0,0,0,0,1,0,0V4.093A4.093,4.093,0,0,1,4.093,0Z" transform="translate(31.849 36.046) rotate(-0.435)" fill="url(#linear-gradient-11)"/>
          <path id="Path_1558" data-name="Path 1558" d="M248.874,293.437h0a4.447,4.447,0,0,1-4.48-4.413l-.1-13.513a.6.6,0,0,1,.592-.6l7.7-.059a.6.6,0,0,1,.6.592l.1,13.515A4.448,4.448,0,0,1,248.874,293.437Z" transform="translate(-199.005 -249.689)" fill="#f6a091"/>
          <path id="Path_1559" data-name="Path 1559" d="M253.282,288.486l-.1-13.043a.6.6,0,0,0-.6-.592l-7.7.059a.6.6,0,0,0-.592.6l.1,13.07a14.283,14.283,0,0,0,8.891-.1Z" transform="translate(-199.005 -249.689)" fill="#ed897c"/>
          <path id="Path_1560" data-name="Path 1560" d="M263.29,269.472v-1.486a14.255,14.255,0,0,0-14.213-14.213h0a14.254,14.254,0,0,0-14.212,14.213v5.825a5.218,5.218,0,0,0,.128,1.139,14.437,14.437,0,1,0,28.3-5.478Z" transform="translate(-199.618 -251.061)" fill="#f6a091"/>
          <path id="Path_1561" data-name="Path 1561" d="M244.243,271.333a1.093,1.093,0,1,1-1.093-1.093A1.092,1.092,0,0,1,244.243,271.333Z" transform="translate(-199.15 -249.989)" fill="#241084"/>
          <path id="Path_1562" data-name="Path 1562" d="M253.991,271.333a1.093,1.093,0,1,1-1.094-1.093A1.093,1.093,0,0,1,253.991,271.333Z" transform="translate(-198.516 -249.989)" fill="#241084"/>
          <path id="Path_1563" data-name="Path 1563" d="M239.2,274.03a4.02,4.02,0,1,1-4.02-4.021A4.019,4.019,0,0,1,239.2,274.03Z" transform="translate(-199.859 -250.005)" fill="#f6a091"/>
          <path id="Path_1564" data-name="Path 1564" d="M265.82,274.03a4.02,4.02,0,1,1-4.021-4.021A4.02,4.02,0,0,1,265.82,274.03Z" transform="translate(-198.127 -250.005)" fill="#f6a091"/>
          <path id="Path_1565" data-name="Path 1565" d="M234.994,271.305a2.65,2.65,0,0,0,0,5.281Z" transform="translate(-199.767 -249.92)" fill="#ed897c"/>
          <path id="Path_1566" data-name="Path 1566" d="M261.3,271.305a2.65,2.65,0,0,1,0,5.281Z" transform="translate(-197.899 -249.92)" fill="#ed897c"/>
          <path id="Path_1567" data-name="Path 1567" d="M213.015,318.584a3.4,3.4,0,0,1-.469-2.717c2.06-8.221,16.824-27.509,17.4-28.37,1.541-2.309,6-2.314,6-2.314l.579,13.275-12.93,16.823c-.871,1.026,13.353,19.916,13.353,19.916l-9.2,5.417Z" transform="translate(-201.077 -249.017)" fill="url(#linear-gradient-12)"/>
          <path id="Path_1568" data-name="Path 1568" d="M284.082,318.158a3.563,3.563,0,0,0,.426-2.455c-1.611-8.038-14.846-27.316-15.415-28.191-1.52-2.338-5.948-2.56-5.948-2.56l-.628,13.521,11.414,15.241a3.671,3.671,0,0,1,.475,3.555l-8.644,21.811,5.528,1.548Z" transform="translate(-197.819 -249.032)" fill="url(#linear-gradient-12)"/>
          <g id="Group_527" data-name="Group 527" transform="translate(0 87.395)">
            <path id="Path_1569" data-name="Path 1569" d="M253.506,333.7q-20.524-.645-41.064-.29a20.153,20.153,0,0,0-5.889.692,6.918,6.918,0,0,0-4.4,3.718,6.478,6.478,0,0,0,.939,6.006,12.361,12.361,0,0,0,4.953,3.842c4.742,2.244,10.083,2.8,15.314,3.2a309.337,309.337,0,0,0,32.762.734c.5-1.42,1.456-2.534,1.959-3.952-2.887-1.945-5.949-3.365-8.856-5.281C250.184,339.055,253.234,337.139,253.506,333.7Z" transform="translate(-201.771 -333.283)" fill="#241084"/>
          </g>
          <g id="Group_528" data-name="Group 528" transform="translate(39.08 87.395)">
            <path id="Path_1570" data-name="Path 1570" d="M248.365,333.7q20.524-.645,41.064-.29a20.153,20.153,0,0,1,5.889.692,6.922,6.922,0,0,1,4.4,3.718,6.482,6.482,0,0,1-.94,6.006,12.361,12.361,0,0,1-4.953,3.842c-4.742,2.244-10.083,2.8-15.313,3.2a309.357,309.357,0,0,1-32.763.734c-.5-1.42-1.456-2.534-1.959-3.952,2.887-1.945,5.949-3.365,8.856-5.281C251.687,339.055,248.638,337.139,248.365,333.7Z" transform="translate(-238.117 -333.283)" fill="#241084"/>
            <path id="Path_1571" data-name="Path 1571" d="M242.3,364.889a39.825,39.825,0,0,0,4.992-11.071c.181-.653,1.478-2.761,1.492-3.437.02-.953-2.991-2.608-4.269-2.544-1.259.063-.918,3.49-1.2,4.4-.824,2.678-4.713,6.28-4.847,9.076C238.4,362.572,240.528,364.512,242.3,364.889Z" transform="translate(-238.464 -332.336)" fill="#241084"/>
          </g>
          <path id="Path_1572" data-name="Path 1572" d="M234.926,336.243a4.628,4.628,0,1,1-4.628-4.629A4.629,4.629,0,0,1,234.926,336.243Z" transform="translate(-200.217 -245.997)" fill="#f6a091"/>
          <path id="Path_1573" data-name="Path 1573" d="M272.831,337.045a4.628,4.628,0,1,0-4.9,4.342A4.628,4.628,0,0,0,272.831,337.045Z" transform="translate(-197.75 -245.962)" fill="#f6a091"/>
          <g id="Group_529" data-name="Group 529" transform="translate(20.846 72.237)">
            <path id="Path_1574" data-name="Path 1574" d="M230.04,342.508h42.013a3.428,3.428,0,0,0,3.339-2.648l3.55-15.188a4.773,4.773,0,0,0-4.734-5.621l-48.125.365a4.775,4.775,0,0,0-4.649,5.693l5.375,15.118A3.428,3.428,0,0,0,230.04,342.508Z" transform="translate(-221.344 -319.051)" fill="#fff"/>
            <path id="Path_1575" data-name="Path 1575" d="M252.45,332.154a4.245,4.245,0,1,1-4.231-3.906A4.079,4.079,0,0,1,252.45,332.154Z" transform="translate(-219.871 -318.453)" fill="#6c40e4"/>
          </g>
          <path id="Path_1576" data-name="Path 1576" d="M254.245,364.889a39.856,39.856,0,0,1-4.992-11.071c-.18-.653-1.478-2.761-1.492-3.437-.02-.953,2.991-2.608,4.269-2.544,1.259.063.918,3.49,1.2,4.4.824,2.678,4.713,6.28,4.848,9.076C258.137,362.572,256.013,364.512,254.245,364.889Z" transform="translate(-198.779 -244.941)" fill="#241084"/>
          <path id="Path_1577" data-name="Path 1577" d="M244.182,278.194h9.325s-1.263,3.611-4.933,3.611A4.539,4.539,0,0,1,244.182,278.194Z" transform="translate(-199.012 -249.472)" fill="#fff"/>
          <path id="Path_1578" data-name="Path 1578" d="M257.325,259.147c-5.6,2.936-12.382,3.116-18.451,1.35-1.272-.37-1.36,1.513-2.325.607-.907-.852,1.346-8.08,9.6-9.712,2.761-.6,5.651.509,8.133,1.86a6.99,6.99,0,0,1,2.915,2.461A3.86,3.86,0,0,1,257.325,259.147Z" transform="translate(-199.521 -251.226)" fill="#241084"/>
          <path id="Path_1579" data-name="Path 1579" d="M238.875,266.169a7.8,7.8,0,0,1-4.245,4.731,13.257,13.257,0,0,1,1.084-10.963,4.521,4.521,0,0,1,1.209-1.44,1.979,1.979,0,0,1,1.792-.316C240.792,258.963,239.4,264.7,238.875,266.169Z" transform="translate(-199.68 -250.78)" fill="#241084"/>
          <path id="Path_1580" data-name="Path 1580" d="M261.683,271.893a15.5,15.5,0,0,0,.272-10.325c-.855-2.612-2.664-5.157-5.331-5.82a1.484,1.484,0,0,0-.665-.049,1.089,1.089,0,0,0-.77,1.123c.028.636.518.877.737,1.384a14.978,14.978,0,0,1,.459,2.041,30.264,30.264,0,0,0,1.418,4.085c.552,1.3,1.177,2.577,1.834,3.831C259.914,268.69,261.862,271.431,261.683,271.893Z" transform="translate(-198.296 -250.937)" fill="#241084"/>
        </g>
        <g id="Group_534" data-name="Group 534" transform="translate(282.346 126.493)">
          <g id="Group_531" data-name="Group 531" transform="translate(33.054 10.899)">
            <rect id="Rectangle_324" data-name="Rectangle 324" width="1.859" height="18.535" fill="#c94bbd"/>
          </g>
          <g id="Group_532" data-name="Group 532" transform="translate(8.658 8.421)">
            <path id="Path_1581" data-name="Path 1581" d="M345.757,262.279l-.477.241a20.085,20.085,0,0,1-18.1,0l-.477-.241V248.292h19.054Z" transform="translate(-324.989 -246.579)" fill="#280e87"/>
            <path id="Path_1582" data-name="Path 1582" d="M336.334,266.482a21.807,21.807,0,0,1-9.821-2.327l-.478-.242a1.713,1.713,0,0,1-.94-1.529V248.4a1.713,1.713,0,0,1,1.714-1.714h19.054a1.713,1.713,0,0,1,1.714,1.714v13.986a1.713,1.713,0,0,1-.94,1.529l-.477.242A21.831,21.831,0,0,1,336.334,266.482Zm-7.812-5.161a18.461,18.461,0,0,0,15.627,0v-11.21H328.521Z" transform="translate(-325.094 -246.684)" fill="#280e87"/>
          </g>
          <g id="Group_533" data-name="Group 533">
            <path id="Path_1583" data-name="Path 1583" d="M336.759,240.387l-18.184,7.24,18.184,7.24,18.184-7.24Z" transform="translate(-316.86 -238.673)"/>
            <path id="Path_1584" data-name="Path 1584" d="M336.862,256.685a1.72,1.72,0,0,1-.635-.121l-18.183-7.24a1.714,1.714,0,0,1,0-3.185l18.183-7.239a1.71,1.71,0,0,1,1.27,0l18.185,7.239a1.714,1.714,0,0,1,0,3.185l-18.185,7.24A1.72,1.72,0,0,1,336.862,256.685Zm-13.551-8.954,13.551,5.4,13.551-5.4-13.551-5.395Z" transform="translate(-316.965 -238.777)"/>
          </g>
        </g>
        <g id="Group_538" data-name="Group 538" transform="translate(106.456 127.796)">
          <g id="Group_535" data-name="Group 535" transform="translate(31.147 14.267)">
            <rect id="Rectangle_325" data-name="Rectangle 325" width="1.858" height="18.535" transform="translate(0.259 0) rotate(0.801)" fill="#c94bbd"/>
          </g>
          <g id="Group_536" data-name="Group 536" transform="translate(4.364 5.619)">
            <path id="Path_1585" data-name="Path 1585" d="M175.91,265.391l-.524.107a20.089,20.089,0,0,1-17.463-4.76l-.4-.357,3.678-13.5,18.384,5.01Z" transform="translate(-155.812 -245.172)" fill="#280e87"/>
            <path id="Path_1586" data-name="Path 1586" d="M165.744,266.945a21.8,21.8,0,0,1-8.863-4.828l-.4-.359a1.712,1.712,0,0,1-.5-1.723l3.678-13.494a1.714,1.714,0,0,1,2.1-1.2l18.383,5.01a1.712,1.712,0,0,1,1.2,2.1l-3.678,13.5a1.712,1.712,0,0,1-1.31,1.228l-.523.108A21.821,21.821,0,0,1,165.744,266.945Zm-6.181-7.034a18.465,18.465,0,0,0,15.077,4.109l2.947-10.817L162.512,249.1Z" transform="translate(-155.917 -245.277)" fill="#280e87"/>
          </g>
          <g id="Group_537" data-name="Group 537">
            <path id="Path_1587" data-name="Path 1587" d="M172.876,241.611l-19.448,2.2,15.64,11.766,19.448-2.2Z" transform="translate(-151.715 -239.896)"/>
            <path id="Path_1588" data-name="Path 1588" d="M168.723,257.338a1.7,1.7,0,0,1-.58-.283L152.5,245.288a1.714,1.714,0,0,1,.837-3.073l19.447-2.2a1.713,1.713,0,0,1,1.224.334l15.643,11.766a1.715,1.715,0,0,1-.838,3.073l-19.449,2.2A1.7,1.7,0,0,1,168.723,257.338ZM158,245.137l11.655,8.769,14.493-1.642-11.656-8.769Z" transform="translate(-151.819 -240.001)"/>
          </g>
        </g>
        <g id="Group_539" data-name="Group 539" transform="translate(110.909 51.118)">
          <rect id="Rectangle_326" data-name="Rectangle 326" width="201.296" height="10.651" fill="#0097cf" opacity="0.25"/>
          <rect id="Rectangle_327" data-name="Rectangle 327" width="41.437" height="10.651" transform="translate(0 17.041)" fill="#0097cf" opacity="0.2"/>
        </g>
      </g>
    </g>
  </g>
</svg>
