<svg xmlns="http://www.w3.org/2000/svg" xmlns:xlink="http://www.w3.org/1999/xlink" width="618" height="491" viewBox="0 0 618 491">
  <defs>
    <linearGradient id="linear-gradient" x1="0.308" y1="0.221" x2="1.056" y2="1.113" gradientUnits="objectBoundingBox">
      <stop offset="0" stop-color="#4439a9"/>
      <stop offset="0.276" stop-color="#9a5ae1"/>
      <stop offset="0.677" stop-color="#9a5ae1"/>
      <stop offset="0.918" stop-color="#9a5ae1"/>
      <stop offset="1" stop-color="#9a5ae1"/>
    </linearGradient>
    <linearGradient id="linear-gradient-5" x1="0.008" y1="0.384" x2="0.614" y2="0.239" xlink:href="#linear-gradient"/>
  </defs>
  <g id="_4" data-name="4" transform="translate(-103.236 36.34)">
    <rect id="canvas" width="618" height="491" transform="translate(103.237 -36.34)" fill="#ec2323" opacity="0"/>
    <g id="Group_637" data-name="Group 637" transform="translate(-3)">
      <path id="Path_1799" data-name="Path 1799" d="M74.41,161.25c-19.75,21.67-43.83,40-58.41,65.45C-9.81,271.72.71,331.34,31.84,372.87c19.42,25.92,45.57,45.86,71.36,65.46,13.19,10,26.55,20.14,41.73,26.77,14.7,6.41,30.67,9.36,46.61,11.14,16.17,1.82,32.65,2.48,48.61-.73,23.93-4.81,45.3-18,68.52-25.57,54.61-17.78,113.71-3.16,171.11-1.05,11.65.43,23.56.29,34.63-3.38,28.83-9.56,45.16-41,49-71.11s-1.87-60.6-1.89-91c0-29.27,5.21-58.5,3.17-87.7S551.6,135.78,527,119.87c-10.87-7-23.54-10.65-36-14.16C423.11,86.53,354.73,67.29,284.47,58.87c-53.54-6.41-98.85-15.56-142.11,21.95C115.67,104,98.05,135.32,74.41,161.25Z" transform="translate(122.791 -49.344)" fill="#ebeaf5"/>
      <g id="Group_440" data-name="Group 440" transform="translate(262.399 146.223)">
        <g id="Group_430" data-name="Group 430" transform="translate(137.911)">
          <g id="Group_427" data-name="Group 427" transform="translate(0 92.564)">
            <path id="Path_1385" data-name="Path 1385" d="M386.487,253.974l4.323-37.1c25.716,1.534,50.969,6.223,73.871,14.086L429.8,262.236A181.346,181.346,0,0,0,386.487,253.974Z" transform="translate(-386.487 -216.879)" fill="#cfb8ef"/>
          </g>
          <g id="Group_428" data-name="Group 428" transform="translate(0 78.639)">
            <path id="Path_1386" data-name="Path 1386" d="M386.487,241.445l4.323-37.1c25.716,1.534,50.969,6.223,73.871,14.085L429.8,249.707A181.29,181.29,0,0,0,386.487,241.445Z" transform="translate(-386.487 -204.35)" fill="#f9bf30"/>
          </g>
          <path id="Path_1387" data-name="Path 1387" d="M386.487,166.969l42.451,1.9.863,6.364v78.639l-33.033-12.494-10.281,4.232Z" transform="translate(-386.487 -129.875)" fill="#f9bf30"/>
          <path id="Path_1388" data-name="Path 1388" d="M460.34,146.266v78.639l-34.881,31.272V177.538Z" transform="translate(-382.145 -132.181)" fill="#e8a200"/>
          <g id="Group_429" data-name="Group 429">
            <path id="Path_1389" data-name="Path 1389" d="M386.487,170.687l4.323-37.094c25.716,1.534,50.969,6.223,73.871,14.085L429.8,178.95A181.348,181.348,0,0,0,386.487,170.687Z" transform="translate(-386.487 -133.593)" fill="#fdd762"/>
          </g>
          <path id="Path_1390" data-name="Path 1390" d="M429.8,179.053a181.359,181.359,0,0,0-43.18-8.251l-.134,1.153a181.367,181.367,0,0,1,43.315,8.262l34.88-31.271v-1.161Z" transform="translate(-386.487 -132.012)" fill="#fdd762"/>
        </g>
        <g id="Group_434" data-name="Group 434" transform="translate(0 50.946)">
          <g id="Group_431" data-name="Group 431" transform="translate(0 40.858)">
            <path id="Path_1391" data-name="Path 1391" d="M387.147,253.322c-28.328-.176-56.739,5.543-79.244,17.168l-45.5-26.271c36.224-19.467,82.851-28.791,129.069-27.974Z" transform="translate(-262.399 -216.196)" fill="#cfb8ef"/>
          </g>
          <g id="Group_432" data-name="Group 432" transform="translate(0 27.148)">
            <path id="Path_1392" data-name="Path 1392" d="M387.147,240.986c-28.328-.176-56.739,5.543-79.244,17.168l-45.5-26.271c36.224-19.468,82.851-28.791,129.069-27.974Z" transform="translate(-262.399 -203.86)" fill="url(#linear-gradient)"/>
          </g>
          <path id="Path_1393" data-name="Path 1393" d="M374.643,243.7V216.555l4.321-37.077v27.147Z" transform="translate(-249.895 -179.428)" fill="#cc0293"/>
          <path id="Path_1394" data-name="Path 1394" d="M303.342,232.853l50.684-45.564,28.561,28.4v27.147l-73.71-.472L303.342,260Z" transform="translate(-257.838 -178.558)" fill="url(#linear-gradient)"/>
          <path id="Path_1395" data-name="Path 1395" d="M262.4,204.647v27.147l45.5,26.272V230.919Z" transform="translate(-262.399 -176.624)" fill="url(#linear-gradient)"/>
          <g id="Group_433" data-name="Group 433">
            <path id="Path_1396" data-name="Path 1396" d="M387.147,216.559c-28.328-.174-56.739,5.544-79.244,17.168l-45.5-26.271c36.224-19.467,82.851-28.79,129.069-27.974Z" transform="translate(-262.399 -179.433)" fill="url(#linear-gradient)"/>
          </g>
          <path id="Path_1397" data-name="Path 1397" d="M387.147,217.806c-28.328-.176-56.739,5.543-79.244,17.168L262.4,208.7v.792l45.5,26.271c22.5-11.625,50.915-17.343,79.244-17.168l4.321-37.077h-.091Z" transform="translate(-262.399 -179.201)" fill="#481194"/>
        </g>
        <g id="Group_439" data-name="Group 439" transform="translate(192.32 48.551)">
          <g id="Group_435" data-name="Group 435" transform="translate(0 61.656)">
            <path id="Path_1398" data-name="Path 1398" d="M466.3,354.1c27.823-26.052,22.207-60.636-16.911-83.222a124.2,124.2,0,0,0-13.95-6.884l34.845-31.24a195.15,195.15,0,0,1,24.59,11.864c61.5,35.509,69.572,90.163,24.28,130.722Z" transform="translate(-435.442 -232.754)" fill="#cfb8ef"/>
          </g>
          <g id="Group_436" data-name="Group 436" transform="translate(0 48.325)">
            <path id="Path_1399" data-name="Path 1399" d="M466.3,342.1c27.823-26.052,22.207-60.636-16.911-83.22A124.215,124.215,0,0,0,435.442,252l34.845-31.239a195,195,0,0,1,24.59,11.864c61.5,35.508,69.572,90.163,24.28,130.721Z" transform="translate(-435.442 -220.759)" fill="url(#linear-gradient-5)"/>
          </g>
          <path id="Path_1400" data-name="Path 1400" d="M435.442,206.563v48.325L466.3,266.354s40.08-21.878,40.08-22.388-6.764-46.844-11.714-48.926S435.442,206.563,435.442,206.563Z" transform="translate(-435.442 -175.323)" fill="url(#linear-gradient)"/>
          <path id="Path_1401" data-name="Path 1401" d="M463.21,334.785V286.46l52.852,21.24v48.324Z" transform="translate(-432.349 -165.115)" fill="url(#linear-gradient)"/>
          <path id="Path_1402" data-name="Path 1402" d="M511.1,281.362V360s27.584-23.252,28.827-54.106l-.066-50.481-32.1-4.647Z" transform="translate(-427.386 -169.091)" fill="url(#linear-gradient)"/>
          <g id="Group_437" data-name="Group 437">
            <path id="Path_1403" data-name="Path 1403" d="M466.3,298.623c27.823-26.052,22.207-60.636-16.911-83.222a124.587,124.587,0,0,0-13.95-6.884l34.845-31.239a194.993,194.993,0,0,1,24.59,11.863c61.5,35.509,69.572,90.163,24.28,130.723Z" transform="translate(-435.442 -177.278)" fill="url(#linear-gradient)"/>
          </g>
          <g id="Group_438" data-name="Group 438" transform="translate(0 33.124)">
            <path id="Path_1404" data-name="Path 1404" d="M516.063,312.851,463.21,291.605v1.256l52.853,21.24c19.373-17.348,28.974-37.274,28.816-57.178C544.632,276.41,535.03,295.866,516.063,312.851Z" transform="translate(-432.349 -201.53)" fill="#481194"/>
            <path id="Path_1405" data-name="Path 1405" d="M483.639,262.8c.491-17.651-10.914-35.391-34.247-48.863a141.456,141.456,0,0,0-13.95-6.86v1.226a124.207,124.207,0,0,1,13.95,6.884C472.174,228.345,483.57,245.568,483.639,262.8Z" transform="translate(-435.442 -207.082)" fill="#481194"/>
          </g>
        </g>
      </g>
      <g id="Group_466" data-name="Group 466" transform="translate(278.487 130.596)">
        <g id="Group_465" data-name="Group 465">
          <g id="Group_443" data-name="Group 443" transform="translate(31.063 69.618)">
            <g id="Group_441" data-name="Group 441">
              <ellipse id="Ellipse_130" data-name="Ellipse 130" cx="25.528" cy="14.738" rx="25.528" ry="14.738" transform="translate(1.599 6.189)" fill="#d3008d"/>
              <path id="Path_1406" data-name="Path 1406" d="M351.358,194.731l-5.543.033c-.4-.273-.825-.542-1.273-.8-9.087-5.246-23.818-5.246-32.905,0-.569.328-1.1.67-1.6,1.022l-5.214.032v8.443h0c0,3.439,2.272,6.876,6.815,9.5,9.087,5.246,23.818,5.246,32.9,0,4.543-2.623,6.815-6.06,6.815-9.5h0Z" transform="translate(-304.824 -181.298)" fill="#721bd5"/>
              <path id="Path_1407" data-name="Path 1407" d="M327.313,190.038a33.247,33.247,0,0,0-15.675,3.924c-.569.328-1.1.67-1.6,1.022l-5.214.032v8.443c0,3.439,2.272,6.876,6.815,9.5a33.255,33.255,0,0,0,15.674,3.924Z" transform="translate(-304.824 -181.297)" fill="#983be9"/>
              <path id="Path_1408" data-name="Path 1408" d="M308.021,194.5l-3.2.02v8.443a9.576,9.576,0,0,0,3.2,6.8Z" transform="translate(-304.824 -180.8)" fill="#b45ef4"/>
              <ellipse id="Ellipse_131" data-name="Ellipse 131" cx="23.267" cy="13.433" rx="23.267" ry="13.433" fill="#8a2ae3"/>
              <path id="Path_1409" data-name="Path 1409" d="M344.543,203.706c-9.086,5.246-23.817,5.246-32.9,0-4.314-2.491-6.576-5.717-6.794-8.98-.24,3.609,2.022,7.263,6.794,10.018,9.087,5.246,23.818,5.246,32.9,0,4.772-2.755,7.034-6.408,6.794-10.017C351.119,197.99,348.857,201.215,344.543,203.706Z" transform="translate(-304.823 -180.774)" fill="#b45ef4"/>
            </g>
            <g id="Group_442" data-name="Group 442" transform="translate(6.386 0)">
              <path id="Path_1410" data-name="Path 1410" d="M344.332,191.284l-4.021.026c-.293-.2-.6-.395-.924-.582-6.593-3.807-17.281-3.807-23.874,0q-.618.358-1.161.742l-3.782.023V194.4h0c0,2.494,1.648,4.988,4.945,6.892,6.593,3.805,17.281,3.805,23.873,0,3.3-1.9,4.945-4.4,4.945-6.892h0Z" transform="translate(-310.57 -181.538)" fill="#721bd5"/>
              <path id="Path_1411" data-name="Path 1411" d="M326.886,187.88a24.115,24.115,0,0,0-11.373,2.846q-.618.358-1.161.742l-3.782.023V194.4c0,2.494,1.648,4.988,4.945,6.892a24.12,24.12,0,0,0,11.372,2.846Z" transform="translate(-310.57 -181.537)" fill="#983be9"/>
              <path id="Path_1412" data-name="Path 1412" d="M312.889,191.117l-2.32.014v2.906a6.948,6.948,0,0,0,2.32,4.935Z" transform="translate(-310.57 -181.177)" fill="#b45ef4"/>
              <path id="Path_1413" data-name="Path 1413" d="M339.387,198.811c-6.592,3.807-17.28,3.807-23.873,0s-6.593-9.977,0-13.784,17.281-3.805,23.874,0S345.98,195.005,339.387,198.811Z" transform="translate(-310.57 -182.173)" fill="#8a2ae3"/>
            </g>
          </g>
          <g id="Group_464" data-name="Group 464">
            <g id="Group_446" data-name="Group 446" transform="translate(0 19.036)">
              <g id="Group_444" data-name="Group 444">
                <path id="Path_1414" data-name="Path 1414" d="M300.357,167.6a16.2,16.2,0,0,1-13.82-7.792l-8.848-14.669a5.592,5.592,0,0,1,4.789-8.481h17.479v4.555H282.478a1.038,1.038,0,0,0-.89,1.574l8.847,14.668a11.586,11.586,0,0,0,10.095,5.591l15.214-.23.068,4.553L300.6,167.6Z" transform="translate(-276.874 -136.661)" fill="#fdd762"/>
              </g>
              <g id="Group_445" data-name="Group 445" transform="translate(69.723)">
                <path id="Path_1415" data-name="Path 1415" d="M355.064,167.6l-.241,0-15.214-.229.069-4.553,15.213.23a11.581,11.581,0,0,0,10.1-5.594l8.845-14.666a1.038,1.038,0,0,0-.889-1.574H355.464v-4.555h17.479a5.593,5.593,0,0,1,4.789,8.481l-8.847,14.667A16.208,16.208,0,0,1,355.064,167.6Z" transform="translate(-339.609 -136.661)" fill="#fdd762"/>
              </g>
              <path id="Path_1416" data-name="Path 1416" d="M369.212,149.068l-4.224,7.005a11.581,11.581,0,0,1-10.1,5.594l-15.213-.23-.069,4.553,15.214.229.241,0a16.213,16.213,0,0,0,12.883-6.424C369.948,154.654,369.631,150.936,369.212,149.068Z" transform="translate(-269.886 -135.279)" fill="#e8a200"/>
            </g>
            <g id="Group_462" data-name="Group 462" transform="translate(20.886)">
              <g id="Group_461" data-name="Group 461">
                <g id="Group_448" data-name="Group 448" transform="translate(20.658 58.809)">
                  <g id="Group_447" data-name="Group 447">
                    <path id="Path_1417" data-name="Path 1417" d="M318,185.049c4.994,2.883,13.089,2.883,18.081,0s4.993-7.558,0-10.439-13.089-2.883-18.082,0S313.006,182.166,318,185.049Z" transform="translate(-314.254 -172.447)" fill="#fff"/>
                  </g>
                </g>
                <g id="Group_450" data-name="Group 450" transform="translate(16.563 69.618)">
                  <g id="Group_449" data-name="Group 449">
                    <path id="Path_1418" data-name="Path 1418" d="M312.521,186.127c2.693-2,2.174-3.954,2.174-3.954l2.038,2.46a26.742,26.742,0,0,1,21.44,0l2.039-2.461s-.519,1.955,2.174,3.954,1.814,5.926,1.814,5.926l-.006-.006c0,2.475-1.632,4.951-4.9,6.841-6.539,3.775-17.141,3.775-23.679,0-3.27-1.887-4.9-4.361-4.9-6.835C310.707,192.051,309.829,188.127,312.521,186.127Z" transform="translate(-310.57 -182.173)" fill="#f9bf30"/>
                  </g>
                </g>
                <g id="Group_452" data-name="Group 452" transform="translate(37.962 69.618)">
                  <g id="Group_451" data-name="Group 451">
                    <path id="Path_1419" data-name="Path 1419" d="M334.66,186.715s-4.836-2.863-4.836-3.466a1.008,1.008,0,0,1,.261-.449,22.452,22.452,0,0,1,5.943,1.834l2.039-2.461s-.519,1.955,2.174,3.954,1.814,5.926,1.814,5.926l-.006-.006A6.439,6.439,0,0,1,340.573,196c.044-.306.56-4.351-2.482-5.676C334.931,188.948,334.66,186.715,334.66,186.715Z" transform="translate(-329.824 -182.173)" fill="#e8a200"/>
                  </g>
                </g>
                <g id="Group_454" data-name="Group 454" transform="translate(20.658 61.747)">
                  <g id="Group_453" data-name="Group 453">
                    <path id="Path_1420" data-name="Path 1420" d="M318,187.692c4.994,2.883,13.089,2.883,18.081,0s4.993-7.556,0-10.439-13.089-2.883-18.082,0S313.006,184.81,318,187.692Z" transform="translate(-314.254 -175.09)" fill="#e8a200"/>
                  </g>
                </g>
                <g id="Group_456" data-name="Group 456" transform="translate(0 19.309)">
                  <g id="Group_455" data-name="Group 455">
                    <path id="Path_1421" data-name="Path 1421" d="M362.555,136.906c-.337,18.64-9.946,20.9-15.087,27.875-4.8,6.512-4.252,15.929-4.158,17.157,0,.046.011.091.011.137h0c0,2.1-1.387,4.2-4.162,5.8-5.549,3.2-14.547,3.2-20.1,0-2.6-1.5-3.967-3.442-4.129-5.408H314.9v-.395h0c0-.044.01-.088.011-.132.094-1.219.644-10.644-4.158-17.16-5.14-6.977-14.75-9.235-15.086-27.875Z" transform="translate(-295.667 -136.906)" fill="#f9bf30"/>
                  </g>
                </g>
                <path id="Path_1422" data-name="Path 1422" d="M334.345,157.2s-.781,2.228-3.209,8.6-1.287,22.492-1.287,22.492l4.13.285a14.582,14.582,0,0,0,1.4-.7c2.775-1.6,4.162-3.7,4.162-5.8h0c0-.046-.01-.091-.011-.137-.094-1.228-.64-10.645,4.158-17.157,5.141-6.977,14.751-9.235,15.087-27.874h-3.663Z" transform="translate(-291.889 -117.597)" fill="#e8a200"/>
                <g id="Group_458" data-name="Group 458">
                  <g id="Group_457" data-name="Group 457">
                    <ellipse id="Ellipse_132" data-name="Ellipse 132" cx="33.444" cy="19.309" rx="33.444" ry="19.309" fill="#fdd762"/>
                  </g>
                </g>
                <path id="Path_1423" data-name="Path 1423" d="M305.462,150.476c13.061,7.54,34.237,7.54,47.3,0,6.157-3.554,9.409-8.15,9.76-12.806.4,5.22-2.856,10.516-9.76,14.5-13.061,7.542-34.237,7.542-47.3,0-6.9-3.987-10.155-9.281-9.76-14.5C296.055,142.326,299.306,146.921,305.462,150.476Z" transform="translate(-295.667 -117.512)" fill="#fff"/>
                <g id="Group_460" data-name="Group 460" transform="translate(5.375 3.103)">
                  <g id="Group_459" data-name="Group 459">
                    <ellipse id="Ellipse_133" data-name="Ellipse 133" cx="28.069" cy="16.206" rx="28.069" ry="16.206" fill="#f2b42a"/>
                  </g>
                </g>
                <path id="Path_1424" data-name="Path 1424" d="M308.724,149.888a38.73,38.73,0,0,0,16.37,4.607,3.881,3.881,0,0,0,.849-3.8c-2.915-8.736-1.788-26.833-1.788-26.833l-5.28-.629a34.882,34.882,0,0,0-10.149,3.734C297.762,133.3,297.762,143.56,308.724,149.888Z" transform="translate(-295.128 -119.12)" fill="#e8a200"/>
                <path id="Path_1425" data-name="Path 1425" d="M348.421,128.51c-10.962-6.328-28.734-6.328-39.7,0-5.165,2.982-7.894,6.836-8.192,10.742-.336-4.384,2.394-8.832,8.192-12.18,10.962-6.329,28.734-6.329,39.7,0,5.8,3.346,8.526,7.794,8.191,12.178C356.313,135.345,353.584,131.491,348.421,128.51Z" transform="translate(-295.128 -119.222)" fill="#fff"/>
                <path id="Path_1426" data-name="Path 1426" d="M340.878,149.985a46.619,46.619,0,0,1-27.484,0c.291-.194.592-.387.912-.571,7.086-4.091,18.574-4.091,25.66,0C340.286,149.6,340.587,149.79,340.878,149.985Z" transform="translate(-293.692 -116.546)" fill="#e8a200"/>
              </g>
            </g>
            <g id="Group_463" data-name="Group 463" transform="translate(40.119 63.562)">
              <path id="Path_1427" data-name="Path 1427" d="M312.983,177.5c.011-.147.03-.415.043-.78.214,1.918,1.568,3.8,4.108,5.269,5.55,3.2,14.548,3.2,20.1,0,2.485-1.434,3.853-3.268,4.113-5.142.013.3.028.522.038.651,0,.046.011.091.011.137h0c0,2.1-1.387,4.2-4.162,5.8-5.549,3.2-14.547,3.2-20.1,0-2.6-1.5-3.967-3.441-4.129-5.407h-.033v-.395h0C312.972,177.593,312.982,177.55,312.983,177.5Z" transform="translate(-312.972 -176.724)" fill="#fff"/>
            </g>
          </g>
        </g>
      </g>
      <g id="Group_471" data-name="Group 471" transform="translate(417.043 30.978)">
        <ellipse id="Ellipse_134" data-name="Ellipse 134" cx="15.933" cy="9.199" rx="15.933" ry="9.199" transform="translate(1.226 126.782)" fill="#f9bf30"/>
        <g id="Group_470" data-name="Group 470">
          <path id="Path_1428" data-name="Path 1428" d="M427.76,40.164s-.458,9.439-1.176,15.782-16-4.872-16-4.872V43.852Z" transform="translate(-400.535 -28.756)" fill="#180926"/>
          <g id="Group_468" data-name="Group 468" transform="translate(0.411 0.747)">
            <path id="Path_1429" data-name="Path 1429" d="M420,146.219c-.23.573-4.188,5.393-8.147,6.6a9.106,9.106,0,0,1-3.637.5,1.2,1.2,0,0,1-.975-1.6,15.036,15.036,0,0,1,7.594-8.37C421.552,140.023,420,146.219,420,146.219Z" transform="translate(-401.326 -18.117)" fill="#173d7a"/>
            <path id="Path_1430" data-name="Path 1430" d="M420.105,147.5a32.774,32.774,0,0,0-1.951,6.425c-.28,1.785.7,4.1,1.506,5.64a1.648,1.648,0,0,0,2.567.445,9.527,9.527,0,0,0,3.213-6.142c.458-4.933,0-5.795,0-5.795Z" transform="translate(-400.108 -17.546)" fill="#173d7a"/>
            <path id="Path_1431" data-name="Path 1431" d="M430.926,94.331a93.745,93.745,0,0,1,0,13.108c-.517,6.884-2.365,39.079-2.708,46.823,0,0,.171,2.345-4.368,1.829s-4.173-3.12-4.173-3.12-6.375-.087-6.576-3.844-6.53-44.872-6.53-59.653Z" transform="translate(-401.393 -24.01)" fill="#2b3347"/>
            <g id="Group_467" data-name="Group 467" transform="translate(0 0)">
              <path id="Path_1432" data-name="Path 1432" d="M409.249,64.939l-3.676,22.486-3.345-.058.308-20.605Z" transform="translate(-401.877 -26.743)" fill="#ffc2b0"/>
              <path id="Path_1433" data-name="Path 1433" d="M410.825,47.024s-4.961-.129-6.688,7.042-3.079,16.149-1.576,16.9c4.509,2.239,7.363-.381,7.363-.381Z" transform="translate(-401.912 -28.739)" fill="url(#linear-gradient)"/>
              <path id="Path_1434" data-name="Path 1434" d="M409.009,47.329a4.057,4.057,0,0,1,2.677-.147c4.228,1.214,20.121,5.877,22.74,8.117,3.026,2.587-4.539,17.122-4.43,21.888s.647,10.384,1.068,15.565.99,8.022-3.246,10.224-11.473,2.305-16.889-1.822-4.433-6.951-4.208-9.947,2.069-15.953,1.909-19.631a13.923,13.923,0,0,1-3.322-3.817c-1.414-2.412,1.084-6.843,2.121-9.724s-.586-6.176-.265-8.527A2.668,2.668,0,0,1,409.009,47.329Z" transform="translate(-401.581 -28.739)" fill="url(#linear-gradient)"/>
              <ellipse id="Ellipse_135" data-name="Ellipse 135" cx="4.779" cy="6.02" rx="4.779" ry="6.02" transform="translate(11.902 28.286) rotate(-82.701)" fill="#fff"/>
              <path id="Path_1435" data-name="Path 1435" d="M414.7,52.242c-.24,1.872,1.477,3.633,3.834,3.934s4.461-.97,4.7-2.841S421.761,49.7,419.4,49.4,414.942,50.372,414.7,52.242Z" transform="translate(-400.49 -28.479)" fill="#ffc2b0"/>
              <path id="Path_1436" data-name="Path 1436" d="M416.932,46.577s2.868-2.361,3.432-1.165,1.028,6.324,1.028,6.324l-5.7,1.53.865-5.2S415.419,47.1,416.932,46.577Z" transform="translate(-400.377 -28.956)" fill="#ffc2b0"/>
              <circle id="Ellipse_136" data-name="Ellipse 136" cx="8.507" cy="8.507" r="8.507" transform="matrix(0.884, -0.468, 0.468, 0.884, 4.644, 7.96)" fill="#ffc2b0"/>
              <path id="Path_1437" data-name="Path 1437" d="M420.741,46.756c.05.268.1.556.145.849-.572,2.96-5,4.254-5,4.254l.655-3.931s-.537-.456-.386-.911C417.9,46.463,420.11,45.974,420.741,46.756Z" transform="translate(-400.356 -28.814)" fill="#ea9c92"/>
              <circle id="Ellipse_137" data-name="Ellipse 137" cx="8.507" cy="8.507" r="8.507" transform="matrix(0.884, -0.468, 0.468, 0.884, 4.644, 7.96)" fill="#ffc2b0"/>
              <path id="Path_1438" data-name="Path 1438" d="M435.942,73.318l-.952,22.765-3.328.343L429.5,75.933Z" transform="translate(-398.84 -25.81)" fill="#ffc2b0"/>
              <path id="Path_1439" data-name="Path 1439" d="M425.475,73.17c1.1-4.861,3.278-15.6,3.278-15.6l.929,10.682c-1.072,3.169-1.994,6.076-1.956,7.761.064,2.8.277,5.889.526,9.013v.01S424.373,78.031,425.475,73.17Z" transform="translate(-399.309 -27.564)" fill="#6927c5"/>
              <path id="Path_1440" data-name="Path 1440" d="M431.2,54.049s2.661,1.017,4.168,9.191S438,79.6,435.311,80.658s-4.928,1.849-5.718-.338-1.278-12.721-1.377-16.51S427.972,54.8,431.2,54.049Z" transform="translate(-398.986 -27.956)" fill="url(#linear-gradient)"/>
            </g>
            <path id="Path_1441" data-name="Path 1441" d="M418.671,151.642a13.188,13.188,0,0,1-1.822-.189h0L415.6,101.408Z" transform="translate(-400.387 -22.68)" fill="#9a5ae1"/>
          </g>
          <g id="Group_469" data-name="Group 469" transform="translate(22.117 70.2)">
            <path id="Path_1442" data-name="Path 1442" d="M422.837,125.538l1.77-2.312,18.624-10.782a2.593,2.593,0,0,0,1.079-2.068l-.017-15.247,1.071-1.4-1.007-.583v0a.678.678,0,0,0-.73.042l-21.1,12.219a2.587,2.587,0,0,0-1.079,2.068l.018,16.6a.94.94,0,0,0,.395.886h0Z" transform="translate(-421.443 -93.063)" fill="#0097cf"/>
            <path id="Path_1443" data-name="Path 1443" d="M435.687,116.8l1.323-.766,7.263-12.615-.008-8.285,1.071-1.4-1.007-.583v0a.678.678,0,0,0-.73.042l-21.1,12.219a2.178,2.178,0,0,0-.8.93Z" transform="translate(-421.415 -93.063)" fill="#1bc2ef"/>
            <path id="Path_1444" data-name="Path 1444" d="M442.7,94.352l.476-.62-1.007-.583v0a.678.678,0,0,0-.73.042l-.371.215Z" transform="translate(-419.257 -93.063)" fill="#d29fff"/>
            <path id="Path_1445" data-name="Path 1445" d="M422.329,104.3a2.7,2.7,0,0,0-.881,1.777l2.063,1.191.988-1.717Z" transform="translate(-421.442 -91.812)" fill="#983be9"/>
            <path id="Path_1446" data-name="Path 1446" d="M423.426,105.936l21.105-12.22c.6-.346,1.081.02,1.082.817l.018,16.6a2.59,2.59,0,0,1-1.079,2.068l-21.105,12.22c-.6.345-1.081-.02-1.082-.817l-.018-16.6A2.591,2.591,0,0,1,423.426,105.936Z" transform="translate(-421.342 -93.005)" fill="#06010a"/>
            <path id="Path_1447" data-name="Path 1447" d="M435.416,107.788a3.535,3.535,0,0,1-1.6,2.77c-.882.509-1.6.1-1.6-.924a3.537,3.537,0,0,1,1.6-2.77C434.7,106.356,435.416,106.768,435.416,107.788Z" transform="translate(-420.243 -91.55)" fill="#d29fff"/>
          </g>
          <path id="Path_1448" data-name="Path 1448" d="M434.84,93.907a51.556,51.556,0,0,1,.748,7.015c-.132,1.7-1.044,4.509-1.735,4.45s-.022-6.844-1.237-6.168-1.341,1.835-1.892,1.425.959-6.208.557-8.722S434.84,93.907,434.84,93.907Z" transform="translate(-398.306 -23.077)" fill="#ffc2b0"/>
          <path id="Path_1449" data-name="Path 1449" d="M402.3,85.4a51.563,51.563,0,0,0-.748,7.016c.132,1.7,1.044,4.509,1.735,4.449s.023-6.844,1.237-6.168,1.343,1.835,1.892,1.426-.959-6.208-.556-8.723S402.3,85.4,402.3,85.4Z" transform="translate(-401.543 -24.025)" fill="#ffc2b0"/>
          <path id="Path_1450" data-name="Path 1450" d="M414.022,42.032c-4.268,1.516-5.1.591-5.139.541-.039-.258-.07-.518-.086-.782a8.478,8.478,0,0,1,.283-2.718l11.072-1.495A12.071,12.071,0,0,1,414.022,42.032Z" transform="translate(-400.736 -29.044)" fill="#ea9c92"/>
          <path id="Path_1451" data-name="Path 1451" d="M408.72,34.171c1.006-.862,4.635-5.125,11.136-4.119,4.063.629,7.489,3.4,8.248,9.724a14.529,14.529,0,0,1-3.932,11.559,3.45,3.45,0,0,1-.461-.233c-1.628-1.071-1.8-1.66-1.8-1.666l-.36-3.226a.9.9,0,0,1,.811-.895,1.625,1.625,0,0,0,1.191-.727,1.9,1.9,0,0,0-1.365-3.2,1.435,1.435,0,0,1-1.493-1.06.763.763,0,0,0-1-.519c-2.125.769-7.361,2.426-10.731,1.471C404.655,40.062,407.714,35.034,408.72,34.171Z" transform="translate(-400.965 -29.9)" fill="#06010a"/>
          <path id="Path_1452" data-name="Path 1452" d="M413.143,45.115l-2.6-.715a6.28,6.28,0,0,0,3.055,2.453c1.814.5,2.1-1.037,2.1-1.037Z" transform="translate(-400.54 -28.284)" fill="#fff"/>
          <path id="Path_1453" data-name="Path 1453" d="M430.434,99.658l2.217-1.27-.833,1.36-1.121.414Z" transform="translate(-398.324 -22.27)" fill="#d29fff"/>
        </g>
      </g>
      <g id="Group_476" data-name="Group 476" transform="translate(476.55 164.734)">
        <g id="Group_475" data-name="Group 475">
          <g id="Group_474" data-name="Group 474">
            <g id="Group_473" data-name="Group 473" transform="translate(0 6.625)">
              <path id="Path_1454" data-name="Path 1454" d="M472.608,259.231s-2.683-1.353-4.33.661-4,6.768-4.074,9.982,2.542,3,4.1,2.235,6.1-7.347,6.372-8.639a4.481,4.481,0,0,0-.761-3.378C473.474,259.751,472.608,259.231,472.608,259.231Z" transform="translate(-454.069 -144.783)" fill="#173d7a"/>
              <path id="Path_1455" data-name="Path 1455" d="M472.8,258.668l.124,2.779a1.577,1.577,0,0,1-.786,1.446,3.092,3.092,0,0,1-2.068.322c-2.021-.326-2.2-.9-2.345-3.681S472.8,258.668,472.8,258.668Z" transform="translate(-453.677 -144.868)" fill="#e8a200"/>
              <g id="Group_472" data-name="Group 472" transform="translate(0 52.155)">
                <path id="Path_1456" data-name="Path 1456" d="M463.775,254.423s-2.683-1.353-4.33.661-4,6.77-4.074,9.981,2.542,3,4.1,2.236,6.1-7.349,6.372-8.639a4.485,4.485,0,0,0-.761-3.379C464.64,254.943,463.775,254.423,463.775,254.423Z" transform="translate(-455.053 -197.474)" fill="#173d7a"/>
                <path id="Path_1457" data-name="Path 1457" d="M463.967,253.861l.124,2.778a1.576,1.576,0,0,1-.786,1.446,3.092,3.092,0,0,1-2.068.321c-2.021-.325-2.2-.9-2.345-3.68S463.967,253.861,463.967,253.861Z" transform="translate(-454.661 -197.558)" fill="#e8a200"/>
                <path id="Path_1458" data-name="Path 1458" d="M488.324,208.424c-.794-12.917-13.988,1.9-13.988,1.9l-9.03,8.852-8.132,8.932a8.018,8.018,0,0,0-2.02,6.439l3.29,25.049a2.462,2.462,0,0,0,2.468,2.139,8.271,8.271,0,0,0,1.219-.107,3.06,3.06,0,0,0,2.717-3.248l-.6-23.427,17.078-10.295S489.117,221.339,488.324,208.424Z" transform="translate(-455.085 -203.137)" fill="#fdd762"/>
              </g>
              <path id="Path_1459" data-name="Path 1459" d="M497.158,212.852c-.794-12.917-13.988,1.9-13.988,1.9l-9.031,8.852-8.131,8.932a8.018,8.018,0,0,0-2.021,6.439l3.29,25.049a2.462,2.462,0,0,0,2.468,2.139,8.274,8.274,0,0,0,1.219-.107,3.06,3.06,0,0,0,2.717-3.248l-.6-23.427,17.078-10.295S497.951,225.767,497.158,212.852Z" transform="translate(-454.101 -150.489)" fill="#fdd762"/>
              <path id="Path_1460" data-name="Path 1460" d="M488.737,175.159c10,4.147,9.8,10.06,9.8,10.06s-1.959,21.678-1.29,36.156c.279,6.052-32.156,6.514-27.319-9.632,5.7-19.038,3.565-34.451,6.236-36.776S486.149,174.087,488.737,175.159Z" transform="translate(-453.486 -154.259)" fill="#3f0e3f"/>
              <path id="Path_1461" data-name="Path 1461" d="M490.709,180.253c-.522,2.031-3.184,3.1-5.943,2.389s-4.572-2.933-4.05-4.964,3.184-3.1,5.944-2.391S491.232,178.221,490.709,180.253Z" transform="translate(-452.239 -154.109)" fill="#ffc2b0"/>
              <path id="Path_1462" data-name="Path 1462" d="M486.52,183.389a7.32,7.32,0,0,1-1.826-.236,6.657,6.657,0,0,1-3.506-2.147,3.617,3.617,0,0,1,1.531-5.947,6.654,6.654,0,0,1,4.109-.187c3.011.776,4.981,3.264,4.393,5.547a3.823,3.823,0,0,1-2.418,2.547A6.117,6.117,0,0,1,486.52,183.389Zm-1.52-7.8a5.167,5.167,0,0,0-1.923.353,2.669,2.669,0,0,0-1.148,4.456,6.064,6.064,0,0,0,6.517,1.678,2.9,2.9,0,0,0,1.848-1.9h0c.457-1.772-1.206-3.738-3.705-4.382A6.432,6.432,0,0,0,485,175.593Z" transform="translate(-452.287 -154.157)" fill="#fff"/>
              <path id="Path_1463" data-name="Path 1463" d="M483.2,174.809a24.582,24.582,0,0,1-.087,3.571c-.054,1,3.434,1.927,4.337,1.026s.541-1.84.758-5.231S483.2,174.809,483.2,174.809Z" transform="translate(-451.962 -154.36)" fill="#ffc2b0"/>
              <path id="Path_1464" data-name="Path 1464" d="M488.211,174.038s-.859,3.144-5.1,4.35l.064-2.857Z" transform="translate(-451.962 -154.224)" fill="#ea9c92"/>
              <path id="Path_1465" data-name="Path 1465" d="M491.633,167.428a7.7,7.7,0,1,1-9.382-5.527A7.7,7.7,0,0,1,491.633,167.428Z" transform="translate(-452.702 -155.604)" fill="#ffc2b0"/>
              <path id="Path_1466" data-name="Path 1466" d="M485.953,169.023s-4.24,1.816-7.175,1.837-2.288-2.437-2.288-2.437l8.713-1.259Z" transform="translate(-452.707 -154.99)" fill="#ea9c92"/>
              <path id="Path_1467" data-name="Path 1467" d="M478.238,170.437a13.748,13.748,0,0,1,6.933-.915,3.4,3.4,0,0,1,1.957,1.164,1.161,1.161,0,0,0,.592.429c.575.13,1.515-2.254,2.632-2.307s1.862.736.946,2.2-.606,3.106-.185,3.342,4.89-3.187.948-11-13.954-3.6-15.511-2.021c0,0-1.64,1.429-2.974.157C473.577,161.492,472.081,172.695,478.238,170.437Z" transform="translate(-453.042 -155.924)" fill="#06010a"/>
              <path id="Path_1468" data-name="Path 1468" d="M472.539,175.335l-5.379-2.32a2.384,2.384,0,0,1-1.311-1.413l-5.311-15.393-2.462.428,4.293,19.155a3.228,3.228,0,0,0,1.57,2.109l8.956,5.03Z" transform="translate(-454.752 -156.21)" fill="#ffc2b0"/>
            </g>
            <path id="Path_1469" data-name="Path 1469" d="M521.609,176.254l1.234-.566a9.913,9.913,0,0,0,2.833-1.957l.859-.848a1.664,1.664,0,0,0,.365-1.83h0a.918.918,0,0,0-1.259-.463l-2.577,1.3s.4-1.141.209-1.438-2.188,1.9-3.111,3.466S521.609,176.254,521.609,176.254Z" transform="translate(-447.859 -148.001)" fill="#ffc2b0"/>
            <path id="Path_1470" data-name="Path 1470" d="M502.128,182.061l4.6-.513a8.121,8.121,0,0,0,3.093-1l12.325-6.976,1.448,2.334-12.6,9.73a5.82,5.82,0,0,1-1.267.744l-7.515,3.213Z" transform="translate(-449.844 -147.651)" fill="#ffc2b0"/>
            <path id="Path_1471" data-name="Path 1471" d="M458.258,157.3l-.469-.542a4.319,4.319,0,0,1-1.011-2.205l-.329-2.245a1.922,1.922,0,0,1,.739-1.828c.02-.016.041-.03.062-.044a1.162,1.162,0,0,1,1.7.556l1.107,2.674s-.349-1.385.1-1.538c.328-.112.949,1.607.582,2.563a4.032,4.032,0,0,0-.021,2.183Z" transform="translate(-454.935 -150.249)" fill="#ffc2b0"/>
            <path id="Path_1472" data-name="Path 1472" d="M480.857,173.409l-1.988-.547a4.8,4.8,0,0,0,2.335,1.874c1.385.38,1.6-.792,1.6-.792Z" transform="translate(-452.435 -147.73)" fill="#fff"/>
          </g>
        </g>
        <path id="Path_1473" data-name="Path 1473" d="M479.522,174.115s-8.986-1.775-11.729-2.608-3.89,6.7-3.682,8.613,9.551,4.042,10.663,7.317S479.522,174.115,479.522,174.115Z" transform="translate(-454.082 -147.888)" fill="#983be9"/>
        <path id="Path_1474" data-name="Path 1474" d="M490.336,176.824a71.021,71.021,0,0,0,17.558,4.191,1.184,1.184,0,0,1,.978.776,13.009,13.009,0,0,1,.581,6.607,2.425,2.425,0,0,1-2.4,1.909c-3.441-.024-10.845.306-12.046,3.522C493.429,198.044,490.336,176.824,490.336,176.824Z" transform="translate(-451.158 -147.288)" fill="#983be9"/>
      </g>
      <g id="Group_477" data-name="Group 477" transform="translate(398.366 36.406)">
        <rect id="Rectangle_274" data-name="Rectangle 274" width="1.945" height="5.65" transform="translate(0 0)" fill="#8a2ae3"/>
        <rect id="Rectangle_275" data-name="Rectangle 275" width="1.945" height="5.65" transform="translate(1.945 3.381)" fill="#8a2ae3"/>
      </g>
      <g id="Group_478" data-name="Group 478" transform="translate(481.556 75.282)">
        <rect id="Rectangle_276" data-name="Rectangle 276" width="2.506" height="7.278" transform="matrix(-0.574, -0.819, 0.819, -0.574, 1.439, 19.889)" fill="#fdd762"/>
        <rect id="Rectangle_277" data-name="Rectangle 277" width="2.506" height="7.278" transform="matrix(-0.574, -0.819, 0.819, -0.574, 3.565, 15.336)" fill="#fdd762"/>
        <rect id="Rectangle_278" data-name="Rectangle 278" width="2.506" height="7.278" transform="matrix(-0.574, -0.819, 0.819, -0.574, 5.691, 10.784)" fill="#fdd762"/>
        <rect id="Rectangle_279" data-name="Rectangle 279" width="2.505" height="7.278" transform="matrix(-0.574, -0.819, 0.819, -0.574, 7.817, 6.231)" fill="#fdd762"/>
      </g>
      <g id="Group_479" data-name="Group 479" transform="translate(323.215 90.973)">
        <rect id="Rectangle_280" data-name="Rectangle 280" width="1.945" height="5.65" transform="translate(13.848 0) rotate(75.627)" fill="#fdd762"/>
        <rect id="Rectangle_281" data-name="Rectangle 281" width="1.945" height="5.65" transform="translate(11.056 2.723) rotate(75.624)" fill="#fdd762"/>
        <rect id="Rectangle_282" data-name="Rectangle 282" width="1.945" height="5.65" transform="translate(8.264 5.446) rotate(75.624)" fill="#fdd762"/>
        <rect id="Rectangle_283" data-name="Rectangle 283" width="1.945" height="5.65" transform="translate(5.473 8.17) rotate(75.627)" fill="#fdd762"/>
      </g>
      <g id="Group_480" data-name="Group 480" transform="translate(510.372 136.907)">
        <rect id="Rectangle_284" data-name="Rectangle 284" width="1.945" height="5.65" transform="translate(13.621 11.957) rotate(155.535)" fill="#ff2c9c"/>
        <rect id="Rectangle_285" data-name="Rectangle 285" width="1.945" height="5.65" transform="translate(10.451 9.685) rotate(155.532)" fill="#ff2c9c"/>
        <rect id="Rectangle_286" data-name="Rectangle 286" width="1.945" height="5.65" transform="translate(7.281 7.414) rotate(155.534)" fill="#ff2c9c"/>
        <rect id="Rectangle_287" data-name="Rectangle 287" width="1.945" height="5.65" transform="translate(4.11 5.142) rotate(155.534)" fill="#ff2c9c"/>
      </g>
      <rect id="Rectangle_288" data-name="Rectangle 288" width="3.35" height="9.73" transform="matrix(0.568, 0.823, -0.823, 0.568, 373.338, 60.112)" fill="#ff2c9c"/>
      <rect id="Rectangle_289" data-name="Rectangle 289" width="1.945" height="5.65" transform="translate(457.467 23.219) rotate(122.089)" fill="#b45ef4"/>
      <rect id="Rectangle_290" data-name="Rectangle 290" width="1.945" height="2.118" transform="translate(483.612 120.347) rotate(55.356)" fill="#ff2c9c"/>
      <rect id="Rectangle_291" data-name="Rectangle 291" width="2.506" height="2.728" transform="matrix(0.568, 0.823, -0.823, 0.568, 509.311, 59.598)" fill="#ff2c9c"/>
      <rect id="Rectangle_292" data-name="Rectangle 292" width="2.506" height="2.728" transform="matrix(0.568, 0.823, -0.823, 0.568, 497.23, 54.894)" fill="#b45ef4"/>
      <rect id="Rectangle_293" data-name="Rectangle 293" width="1.945" height="2.118" transform="translate(403.797 84.822) rotate(55.356)" fill="#b45ef4"/>
      <g id="Group_481" data-name="Group 481" transform="translate(463.831 37.506)">
        <path id="Path_1475" data-name="Path 1475" d="M445.922,54.967l-1.308-2.547a3.534,3.534,0,0,0,1.564-1.989,4.9,4.9,0,0,0-.931-3.761c-3.164-5.071-.946-9.346.669-10.9l1.984,2.066-.992-1.032,1,1.025c-.3.3-2.886,3.067-.231,7.323a7.542,7.542,0,0,1,1.255,6.066A6.315,6.315,0,0,1,445.922,54.967Z" transform="translate(-443.641 -35.773)" fill="#ff2c9c"/>
      </g>
      <g id="Group_482" data-name="Group 482" transform="translate(501.552 103.043)">
        <path id="Path_1476" data-name="Path 1476" d="M477.581,102.842l1.129-1.915a2.737,2.737,0,0,0,1.954.2,3.8,3.8,0,0,0,2.082-2.171c2.016-4.179,5.74-4.5,7.427-4.08l-.532,2.159.266-1.079-.258,1.08c-.323-.074-3.21-.621-4.9,2.885a5.851,5.851,0,0,1-3.46,3.339A4.9,4.9,0,0,1,477.581,102.842Z" transform="translate(-477.581 -94.741)" fill="#b45ef4"/>
      </g>
      <g id="Group_483" data-name="Group 483" transform="translate(354.121 95.981)">
        <path id="Path_1477" data-name="Path 1477" d="M344.927,108.64l.711-3.762a4.728,4.728,0,0,0,3.285-.815c1.16-.885,1.869-2.476,2.1-4.731.828-7.949,6.678-10.635,9.655-10.945l.4,3.809-.2-1.9.213,1.9c-.567.069-5.564.866-6.259,7.535-.352,3.385-1.584,5.885-3.658,7.429A8.446,8.446,0,0,1,344.927,108.64Z" transform="translate(-344.927 -88.387)" fill="#b45ef4"/>
      </g>
      <g id="Group_484" data-name="Group 484" transform="translate(400.973 110.644)">
        <path id="Path_1478" data-name="Path 1478" d="M387.116,101.58l2.2.316a2.746,2.746,0,0,0,.558,1.884,3.794,3.794,0,0,0,2.8,1.1c4.633.277,6.342,3.6,6.6,5.32l-2.2.327,1.1-.163-1.1.172c-.053-.327-.645-3.2-4.531-3.438a5.852,5.852,0,0,1-4.4-1.929A4.891,4.891,0,0,1,387.116,101.58Z" transform="translate(-387.083 -101.58)" fill="#fdd762"/>
      </g>
      <g id="Group_486" data-name="Group 486" transform="translate(361.977 187.359)">
        <path id="Path_1479" data-name="Path 1479" d="M360.1,307.7c10.8,6.238,28.321,6.238,39.126,0s10.8-16.352,0-22.589-28.321-6.237-39.126,0S349.3,301.465,360.1,307.7Z" transform="translate(-351.996 -158.371)" fill="#cfb8ef"/>
        <g id="Group_485" data-name="Group 485" transform="translate(12.047 12.063)">
          <path id="Path_1480" data-name="Path 1480" d="M365.257,289.143a4.271,4.271,0,0,0-2.41,4.27,7.209,7.209,0,0,0,.351,2.087c.5,1.041,2.121,2.47,4.715,1.445s8.354-6.438,8.57-9.98C376.884,280.383,369.359,287.391,365.257,289.143Z" transform="translate(-362.836 -170.015)" fill="#173d7a"/>
          <path id="Path_1481" data-name="Path 1481" d="M378.766,298.944s-.622,3.794-.32,4.49a4.885,4.885,0,0,0,4.775,1.858c2.667-.321,10.34-2.966,12.049-8.023,2.65-7.84-14.811.588-14.811.588Z" transform="translate(-361.106 -168.931)" fill="#173d7a"/>
          <path id="Path_1482" data-name="Path 1482" d="M387.994,244.215l.595,59.233a4.15,4.15,0,0,1-3.228,4.107c-.223.038-.463.069-.721.091a3.689,3.689,0,0,1-3.519-1.456,4.348,4.348,0,0,1-.791-2.392l-.757-25.285L375.8,255.9l-5.224,40.015a3.454,3.454,0,0,1-1.435,2.634,4,4,0,0,1-2.382.646,4.374,4.374,0,0,1-3.166-1.559,3.178,3.178,0,0,1-.756-2.142l2.071-24.076.77-30.709Z" transform="translate(-362.836 -174.86)" fill="#fdd762"/>
          <path id="Path_1483" data-name="Path 1483" d="M378.665,196.157l-.937,5.4a2.474,2.474,0,0,0,2.022,2.352c2.056.51,2.692-.818,2.692-.818l.929-6.078Z" transform="translate(-361.177 -179.823)" fill="#fcdcd4"/>
          <ellipse id="Ellipse_138" data-name="Ellipse 138" cx="8.78" cy="7.817" rx="8.78" ry="7.817" transform="translate(10.745 15.706) rotate(-63.438)" fill="#fcdcd4"/>
          <path id="Path_1484" data-name="Path 1484" d="M380.414,201.346c-.143-.058-8.724-5.584-11.9.2-5.172,9.429-4.868,39.779-3.234,43.71,1.51,3.639,5.285,6.321,7.93,7.832a15.831,15.831,0,0,0,7.7,2.189c2.682.021,7.823-2.363,7.636-5.868-.858-16.123.568-29.714,1.884-42.9C390.431,206.506,388.786,204.736,380.414,201.346Z" transform="translate(-362.681 -179.517)" fill="#fe045e"/>
          <path id="Path_1485" data-name="Path 1485" d="M375.211,254.381,369.988,294.4a3.454,3.454,0,0,1-1.435,2.634,3.972,3.972,0,0,1-.447.252c1.085-.814,4.25-34.4,4.836-38.135S375.211,254.381,375.211,254.381Z" transform="translate(-362.249 -173.337)" fill="#d8892b"/>
        </g>
        <path id="Path_1486" data-name="Path 1486" d="M403.812,204.336l4.663-15.272-2.463-1.021-5.5,11.968Z" transform="translate(-346.591 -168.664)" fill="#fcdcd4"/>
        <path id="Path_1487" data-name="Path 1487" d="M361.188,193.467l3.5-15.9,2.783.031-1.045,13.187Z" transform="translate(-350.972 -169.831)" fill="#fcdcd4"/>
        <path id="Path_1488" data-name="Path 1488" d="M388.072,206.628s8.378,1.672,13.706-8.083a1.325,1.325,0,0,1,2.211-.232c.854,1.3,1.986,3.3,1.4,5.45-2.594,9.534-16.678,11.641-19.207,17.17S388.072,206.628,388.072,206.628Z" transform="translate(-348.275 -167.575)" fill="#fe045e"/>
        <path id="Path_1489" data-name="Path 1489" d="M375.326,200.533s-6.635.51-7.59-5.232a43.607,43.607,0,0,1-.667-5.741,1.159,1.159,0,0,0-1.3-1.126c-1.589.2-4.049.672-4.382,1.737-.5,1.589-1.436,9.388,5.118,21.354C370.8,219.363,375.326,200.533,375.326,200.533Z" transform="translate(-350.99 -168.621)" fill="#d90c56"/>
        <path id="Path_1490" data-name="Path 1490" d="M364.32,178.381l.063-1.814a3.743,3.743,0,0,1,.541-1.81l1.838-3.019.479-.6a1.4,1.4,0,0,1,1.837-.315l.422.267a1.736,1.736,0,0,1,.809,1.58l-.951,2.58,1.2-.232a.426.426,0,0,1,.5.343h0a.427.427,0,0,1-.26.471l-1.964.791-1.783,2.524Z" transform="translate(-350.623 -170.606)" fill="#fcdcd4"/>
        <path id="Path_1491" data-name="Path 1491" d="M408.277,189.912l.556-1.727a3.737,3.737,0,0,0,.106-1.887l-.7-3.463-.246-.731a1.4,1.4,0,0,0-1.622-.918l-.488.107a1.736,1.736,0,0,0-1.3,1.213l.018,2.748-1.051-.627a.426.426,0,0,0-.588.152h0a.429.429,0,0,0,.085.532l1.578,1.411.921,3.349Z" transform="translate(-346.325 -169.431)" fill="#fcdcd4"/>
        <path id="Path_1492" data-name="Path 1492" d="M384.835,217.007c-.765,3.484,1.378,30.523-5.6,37.217,2.682.022,7.823-2.363,7.636-5.868a214.471,214.471,0,0,1,.64-29.651c2.736-3.544,10.262-5.8,14.971-10.346C402.142,208.465,385.591,213.559,384.835,217.007Z" transform="translate(-348.962 -166.401)" fill="#c80e51"/>
        <path id="Path_1493" data-name="Path 1493" d="M376.014,199.853l1.191-1.224s1.961,2,3.535,2.351a18.323,18.323,0,0,0,2.821.582l.767,2.116S378.088,203.23,376.014,199.853Z" transform="translate(-349.321 -167.485)" fill="#fff"/>
        <path id="Path_1494" data-name="Path 1494" d="M384.661,195.495a1.007,1.007,0,0,0,.881-.28c.4-.409.567-2.582,1.616-2.764,1.643-.286,4.977,2.282,6.33-3.23.7-2.864-.575-3.878-.3-5.465,0,0-.014.817-7.39-.964s-10.944,4.426-11.664,7.551-.087,8.578,4.89,10.168c.825.263,4.868-1.98,4.841-2.371s-1.371-.6-.99-1.657A1.425,1.425,0,0,1,384.661,195.495Z" transform="translate(-349.557 -169.284)" fill="#173d7a"/>
      </g>
      <g id="Group_487" data-name="Group 487" transform="translate(517.138 264.364)">
        <path id="Path_1495" data-name="Path 1495" d="M521.16,264.987l-13.588-7.845-13.587,7.845,13.587,7.845Z" transform="translate(-491.339 -237.971)" fill="#721bd5"/>
        <path id="Path_1496" data-name="Path 1496" d="M506.211,266.537V257.7l16.234-9.372v8.839Z" transform="translate(-489.978 -238.953)" fill="#e8a200"/>
        <path id="Path_1497" data-name="Path 1497" d="M507.838,257.7,491.6,248.326v8.839l16.233,9.372Z" transform="translate(-491.605 -238.953)" fill="#f9bf30"/>
        <path id="Path_1498" data-name="Path 1498" d="M524.072,249.265l-16.234-9.372L491.6,249.265l16.233,9.372Z" transform="translate(-491.605 -239.892)" fill="#fdd762"/>
      </g>
      <g id="Ellipse_161" data-name="Ellipse 161" transform="translate(603.237 36.66)" fill="#fff" stroke="#e539ac" stroke-width="3">
        <circle cx="8.5" cy="8.5" r="8.5" stroke="none"/>
        <circle cx="8.5" cy="8.5" r="7" fill="none"/>
      </g>
      <g id="cross" transform="translate(507.95 68.706)">
        <rect id="Rectangle_335" data-name="Rectangle 335" width="17" height="3" rx="1.5" transform="translate(129.287 133.954)" fill="#ff861d"/>
        <rect id="Rectangle_336" data-name="Rectangle 336" width="19.264" height="2.964" rx="1.482" transform="translate(136.187 144.845) rotate(-90)" fill="#ff861d"/>
      </g>
      <g id="cross-2" data-name="cross" transform="translate(16.95 11.706)">
        <rect id="Rectangle_335-2" data-name="Rectangle 335" width="17" height="3" rx="1.5" transform="translate(129.287 133.954)" fill="#ff861d"/>
        <rect id="Rectangle_336-2" data-name="Rectangle 336" width="19.264" height="2.964" rx="1.482" transform="translate(136.187 144.845) rotate(-90)" fill="#ff861d"/>
      </g>
    </g>
    <g id="Ellipse_162" data-name="Ellipse 162" transform="translate(170.237 27.66)" fill="#0097cf" stroke="#0097cf" stroke-width="2">
      <circle cx="5.5" cy="5.5" r="5.5" stroke="none"/>
      <circle cx="5.5" cy="5.5" r="4.5" fill="none"/>
    </g>
  </g>
</svg>
