<svg xmlns="http://www.w3.org/2000/svg" xmlns:xlink="http://www.w3.org/1999/xlink" width="1920" height="670" viewBox="0 0 1920 670">
  <defs>
    <clipPath id="clip-path">
      <rect id="section_bg" data-name="section bg" width="1920" height="670" transform="translate(0 1080)" fill="#0097cf" opacity="0.1"/>
    </clipPath>
    <radialGradient id="radial-gradient" cx="0.524" cy="0.403" r="0.5" gradientUnits="objectBoundingBox">
      <stop offset="0" stop-color="#fff" stop-opacity="0"/>
      <stop offset="1" stop-color="#fff"/>
    </radialGradient>
  </defs>
  <g id="bg_winner" transform="translate(0 -1080)">
    <rect id="section_bg-2" data-name="section bg" width="1920" height="670" transform="translate(0 1080)" fill="#4439a9"/>
    <g id="rays" opacity="0.4" clip-path="url(#clip-path)">
      <g id="rays-2" data-name="rays" transform="translate(-35.888 378.112)" opacity="0.5">
        <path id="Path_597" data-name="Path 597" d="M996.846,2113.493h-.386c-32.052,0-64.423-1.384-96.215-4.115L996.388,994.031c5.266.452-5.435,0,0,0Zm97.017-4.217L996.388,994.031c5.236-.452-5.173.91,0,0l194.039,1102.6C1158.578,2102.222,1126.086,2106.475,1093.863,2109.275ZM803.7,2096.844c-31.931-5.576-63.985-12.624-95.277-20.965L996.388,994.031c5.013,1.335-5.143-.9,0,0Zm482.208-21.336L996.388,994.031c5.025-1.348-4.835,1.763,0,0l382.641,1052.1C1348.59,2057.224,1317.259,2067.108,1285.91,2075.509Zm-670.8-28.94c-30.427-11.051-60.766-23.6-90.171-37.3L996.388,994.031c4.754,2.218-4.871-1.766,0,0Zm854.118-37.881L996.388,994.031c4.7-2.2-4.516,2.613,0,0l559.294,969.525C1527.639,1979.791,1498.548,1994.975,1469.224,2008.687ZM438.276,1964.156c-28.061-16.2-55.735-33.845-82.258-52.426l640.371-917.7c4.268,2.993-4.531-2.617,0,0Zm1199.442-52.992L996.388,994.031c4.289-3.011-4.069,3.418,0,0l718.5,857.8C1690.116,1872.649,1664.15,1892.614,1637.717,1911.164Zm-1358.8-58.59c-24.733-20.751-48.854-42.828-71.693-65.628L996.388,994.031c3.768,3.765-4.091-3.43,0,0Zm1507.616-66.46L996.388,994.031c3.792-3.792-3.464,4.127,0,0l855.731,720.516C1831.38,1739.24,1809.309,1763.319,1786.532,1786.114ZM141.474,1715.337c-20.787-24.7-40.73-50.617-59.286-77.011l914.2-644.3c3.056,4.356-3.437-4.084,0,0Zm1769.931-77.963L996.388,994.031c3.008-4.29-2.626,4.539,0,0l967.451,561.163C1947.631,1583.221,1929.991,1610.869,1911.405,1637.374Zm-1881.694-81.1c-16.25-28.024-31.455-57.11-45.185-86.427L996.388,994.031c2.2,4.7-2.619-4.513,0,0Zm1979.235-87.618L996.388,994.031c2.2-4.705-1.766,4.85,0,0l1049.957,384.377C2035.258,1408.88,2022.676,1439.244,2008.946,1468.658ZM-52.978,1379.644c-11.138-30.5-21.046-61.848-29.453-93.179L996.388,994.031c1.329,4.959-1.772-4.85,0,0Zm2128.671-94.433-1079.3-291.18c1.323-4.953-.9,5.118,0,0l1100.348,195.8C2091.141,1221.81,2084.058,1253.9,2075.693,1285.21ZM-103.58,1191.16c-5.6-31.786-9.881-64.263-12.708-96.522L996.388,994.031c.461,5.3-.907-5.134,0,0Zm2212.91-97.921L996.388,994.031c.464-5.369,0,5.465,0,0h0l1117.1.889v1.537C2113.493,1028.663,2112.094,1061.229,2109.33,1093.239ZM-120.554,1000.56l-.018-4.1c0-31.768,1.365-63.886,4.048-95.464L996.388,994.031c-.452,5.3,0-5.4,0,0h0l-1116.957,3.2Zm1116.942-6.529c-.458-5.212.907,5.1,0,0L2096.265,800.44c5.661,31.871,9.981,64.4,12.841,96.694Zm0,0L-104.05,804.413c5.561-31.994,12.606-64.106,20.944-95.449L996.388,994.031C995.068,998.986,997.274,988.933,996.388,994.031Zm0,0c-1.345-4.989,1.784,4.877,0,0l1049.065-382c11.159,30.454,21.1,61.764,29.543,93.062Zm0,0L-53.874,615.73c11.045-30.466,23.584-60.829,37.272-90.25L996.388,994.031C994.187,998.76,998.151,989.166,996.388,994.031Zm0,0c-2.213-4.7,2.613,4.5,0,0L1962.546,435.5c16.284,28.009,31.527,57.08,45.294,86.4Zm0,0L28.436,438.845C44.581,410.854,62.17,383.21,80.72,356.686L996.388,994.031C993.349,998.371,999.007,989.485,996.388,994.031Zm0,0c-3.081-4.365,3.43,4.075,0,0l854.206-717.463c20.8,24.663,40.769,50.548,59.361,76.929Zm0,0L139.922,279.423c20.73-24.745,42.795-48.881,65.586-71.732l790.88,786.34C992.623,997.8,999.812,989.943,996.388,994.031Zm0,0c-3.8-3.783,4.084,3.421,0,0L1712.979,139.5c24.736,20.69,48.875,42.734,71.747,65.514Zm0,0L277.044,141.923c24.724-20.829,50.656-40.814,77.074-59.4l642.27,911.508C992.074,997.063,1000.445,990.616,996.388,994.031Zm0,0c-4.329-3.02,4.54,2.613,0,0L1553.487,28.1c28.025,16.139,55.69,33.725,82.232,52.263Zm0,0-560.295-964c27.994-16.253,57.053-31.467,86.361-45.215L996.388,994.031C991.658,996.249,1000.9,991.411,996.388,994.031Zm0,0c-4.624-2.149,4.82,1.745,0,0L1376.521-54.115c30.58,11.063,61.025,23.62,90.488,37.324Zm0,0L612.61-52.74C643.1-63.9,674.453-73.829,705.8-82.263L996.388,994.031C991.423,995.366,1001.208,992.267,996.388,994.031Zm0,0c-4.974-1.317,5.094.883,0,0l191.444-1098.2c31.985,5.537,64.1,12.561,95.446,20.877Zm0,0L801.161-103.481c31.78-5.616,64.236-9.911,96.465-12.751L996.388,994.031C991.083,994.5,1001.548,993.117,996.388,994.031Zm0,0c-5.275-.443,5.368,0,0,0h0l-1.079-1114.6h1.152c31.536,0,63.422,1.341,94.771,3.988Z" transform="translate(0 0)" fill="url(#radial-gradient)"/>
      </g>
    </g>
  </g>
</svg>
