<svg xmlns="http://www.w3.org/2000/svg" width="250.516" height="81.824" viewBox="0 0 250.516 81.824">
  <g id="logo_sa" transform="translate(0.001)">
    <path id="Path_1" data-name="Path 1" d="M23.495,44.755a4.151,4.151,0,1,1-.724,5.816A4.151,4.151,0,0,1,23.495,44.755Z" transform="translate(-21.9 -7.095)" fill="#f06022" fill-rule="evenodd"/>
    <rect id="Rectangle_56" data-name="Rectangle 56" width="22.831" height="8.302" transform="matrix(0.707, -0.707, 0.707, 0.707, 44.911, 75.956)" fill="#010000"/>
    <path id="Path_2" data-name="Path 2" d="M2.98,32.132,35.078.01l5.913,5.816L8.845,38Z" transform="translate(4.214 0.014)" fill-rule="evenodd"/>
    <path id="Path_3" data-name="Path 3" d="M30.715,49.5l9.654,9.654c1.279,1.424,1.81,1.665,3.451.41L58.3,44.96l5.816,5.816L46.45,68.8c-3.5,3.234-6.178,2-8.761-.579l-1.882-1.882L24.85,55.362Z" transform="translate(-17.729 -5.616)" fill="#f06022" fill-rule="evenodd"/>
    <path id="Path_4" data-name="Path 4" d="M40,55.287,57.618,37.67s4.392-4.175,8.037-.6l5.768,5.671L65.606,48.6l-.989-.989S62.2,44.741,60.2,46.768L45.937,61.031Z" transform="translate(3.521 -18.708)" fill-rule="evenodd"/>
    <path id="Path_5" data-name="Path 5" d="M32.475,47,26.61,41.133,42.683,25.06l-7.94-7.916,5.865-5.865,13.9,13.877Z" transform="translate(37.377 15.786)" fill="#f06022" fill-rule="evenodd"/>
    <path id="Path_6" data-name="Path 6" d="M31.805,41.275,20.052,41.2,13.56,34.71l5.913-5.84Z" transform="translate(19.167 40.537)" fill="#f06022" fill-rule="evenodd"/>
    <path id="Path_7" data-name="Path 7" d="M16.29,0l11.7.024,6.492,6.492-5.865,5.865Z" transform="translate(22.888)" fill="#f06022" fill-rule="evenodd"/>
    <path id="Path_8" data-name="Path 8" d="M24.622,44.68h0L22.86,45.742H23v.241h0l-.145.748H23.2v-.507h0v-.217l.459.29h0v.121c0,.145.121,0,.169.29h0a1.11,1.11,0,0,0,0,.314v.193a.579.579,0,0,0,.169.314h0a1.183,1.183,0,0,1,0,.29.482.482,0,0,1,0,.193l-.41.145-.676.338v.338h4.248v-.338a4.416,4.416,0,0,0-.676-.338l-.869.121v-.193h-.121v-.29h0a.627.627,0,0,0,.193-.314v-.193a2.679,2.679,0,0,0,0-.314h0c0-.169.121-.145.169-.29a1.036,1.036,0,0,1,0-.121h0l.459-.29h.169l-1.786-1.062Z" transform="translate(-20.541 -5.958)" fill-rule="evenodd"/>
    <path id="Path_9" data-name="Path 9" d="M77.918,72.662l-1.3-4.682H70.1l-1.4,4.682H62.69L70.075,48.77h7.843l7.506,23.892Zm-6.492-9.919h3.837l-1.931-6.926-1.907,6.926Zm26.282,2.727,5.937.507a8.206,8.206,0,0,1-2.606,5.068A8.5,8.5,0,0,1,95.2,73a8.761,8.761,0,0,1-9.171-9.195,9.34,9.34,0,0,1,2.413-6.733,9.509,9.509,0,0,1,12.55-.507,7.723,7.723,0,0,1,2.582,5.068l-6.13.507c-.241-1.882-.965-2.824-2.124-2.824a1.714,1.714,0,0,0-1.641,1.014,8.422,8.422,0,0,0-.531,3.475,7.24,7.24,0,0,0,.531,3.21,1.834,1.834,0,0,0,1.786,1.062c1.255,0,2-.893,2.244-2.655Zm25.871,7.24h-6.613A11.39,11.39,0,0,1,116.7,70.3a7.361,7.361,0,0,1-10.426,1.231,5.117,5.117,0,0,1-1.569-3.668,5.309,5.309,0,0,1,2.582-4.561,18.728,18.728,0,0,1,9.074-2.076v-.41a1.907,1.907,0,0,0-.531-1.569,2.606,2.606,0,0,0-1.569-.386c-1.593,0-2.413.652-2.679,1.979l-6.371-.627q1.376-5.575,9.291-5.575a16.893,16.893,0,0,1,3.934.434,6.661,6.661,0,0,1,2.848,1.327,4.634,4.634,0,0,1,1.4,1.931,13.635,13.635,0,0,1,.362,3.886v7.24a10.378,10.378,0,0,0,.531,3.451Zm-7.24-8.3c-2.968.314-4.441,1.255-4.441,2.848,0,1.062.579,1.593,1.762,1.593a2.727,2.727,0,0,0,1.882-.676c.531-.434.8-1.4.8-2.92v-.845Zm27.706,8.254H137.5V70.249a5,5,0,0,1-4.827,2.727,6.057,6.057,0,0,1-5-2.413,11.077,11.077,0,0,1-1.907-6.975,10.885,10.885,0,0,1,1.931-6.782,6.058,6.058,0,0,1,5.068-2.413,5.43,5.43,0,0,1,4.344,2.027V48.77h6.926Zm-6.878-11.415c0-1.617-.652-2.413-1.955-2.413a1.786,1.786,0,0,0-1.81,1.52,14.986,14.986,0,0,0-.41,3.741c0,2.872.724,4.3,2.2,4.3a1.738,1.738,0,0,0,1.4-.676,3.089,3.089,0,0,0,.579-2.076Zm22.324,4.972,6.492.459a7.771,7.771,0,0,1-2.944,4.465A10.208,10.208,0,0,1,156.619,73a9.847,9.847,0,0,1-7.24-2.606,8.519,8.519,0,0,1-2.655-6.42,9.895,9.895,0,0,1,16.556-6.9,9.388,9.388,0,0,1,2.655,7.023q0,.4,0,1.014h-11.9a4.658,4.658,0,0,0,.6,2.534,2.9,2.9,0,0,0,4.827-1.424Zm-.507-4.61a3.161,3.161,0,0,0-.7-2.413,2.413,2.413,0,0,0-1.738-.627c-1.641,0-2.413,1.014-2.413,3.017Zm36.659,11.029h-6.709v-11.1a2.751,2.751,0,0,0-.338-1.569,1.3,1.3,0,0,0-1.134-.434c-1.279,0-1.931.941-1.931,2.848V72.662h-6.709V61.537c0-1.4-.555-2.124-1.641-2.124s-1.689.724-1.689,2.124V72.662h-6.733V54.876h6.275v2.413a5.358,5.358,0,0,1,4.827-2.775,5.285,5.285,0,0,1,5,2.775,5.816,5.816,0,0,1,5.309-2.775,6.13,6.13,0,0,1,3.017.724,4.32,4.32,0,0,1,1.882,1.834,7.964,7.964,0,0,1,.579,3.5V72.638Zm19.838-17.762-6.975,19.307a7.747,7.747,0,0,1-2.413,3.427,7.24,7.24,0,0,1-4.634,1.231l-3.5-.145v-5.02a16.342,16.342,0,0,0,2.534.217c2,0,3.017-.434,3.017-1.3a3.284,3.284,0,0,0-.314-1.207l-6.371-16.507h7.457l2.92,9.412,3.065-9.412Z" transform="translate(34.936 -0.311)" fill-rule="evenodd"/>
    <path id="Path_10" data-name="Path 10" d="M62.69,51.48l7.24-1.3a4.3,4.3,0,0,0,4.682,3.089c1.979,0,2.944-.507,2.944-1.569a1.4,1.4,0,0,0-.676-1.255,7.24,7.24,0,0,0-2.413-.821,16.507,16.507,0,0,1-8.616-3.306,6.878,6.878,0,0,1-1.907-4.827A7.626,7.626,0,0,1,66.672,35.5,11.608,11.608,0,0,1,74.54,33.09q7.747,0,10.257,6.251L78.329,41.3a3.934,3.934,0,0,0-4.079-2.558c-1.689,0-2.558.531-2.558,1.593a1.255,1.255,0,0,0,.579,1.086,7.24,7.24,0,0,0,2.244.748,48.484,48.484,0,0,1,6.54,1.738,6.661,6.661,0,0,1,3.186,2.413,6.975,6.975,0,0,1,1.279,4.248,7.578,7.578,0,0,1-3.113,6.275,13.274,13.274,0,0,1-8.23,2.413c-6.2,0-10.016-2.582-11.488-7.771ZM98,59.251a9.823,9.823,0,0,1-7.481-2.92,9.654,9.654,0,0,1-2.775-6.9,9.485,9.485,0,0,1,2.9-7.071,10.329,10.329,0,0,1,7.53-2.824,10.209,10.209,0,0,1,7.53,2.8,9.34,9.34,0,0,1,2.848,7,9.653,9.653,0,0,1-2.9,7.1A10.426,10.426,0,0,1,98,59.251Zm.121-4.489a1.979,1.979,0,0,0,2.1-1.81,17.088,17.088,0,0,0,.386-3.741,10.522,10.522,0,0,0-.531-3.861,1.955,1.955,0,0,0-1.931-1.158A2,2,0,0,0,96.26,45.4a10.015,10.015,0,0,0-.579,3.982,9.919,9.919,0,0,0,.6,4.32,2,2,0,0,0,1.834,1.062Zm21.72-10.04V58.889h-6.926V44.722h-2.824V39.9h2.824a20.055,20.055,0,0,1,.217-3.475,4.513,4.513,0,0,1,.989-2.172,5.334,5.334,0,0,1,2.2-1.593,10.3,10.3,0,0,1,3.692-.531,31.01,31.01,0,0,1,4.827.362v4.827A23.8,23.8,0,0,0,122.2,37.1a3.5,3.5,0,0,0-1.593.338c-.459.241-.7.821-.7,1.738v.676h4.827v4.827ZM139.8,39.9v4.827H136.1v7c0,.941.193,1.52.555,1.689a2.22,2.22,0,0,0,1.11.265,9.653,9.653,0,0,0,2.124-.29V58.7a24.423,24.423,0,0,1-4.32.41,7.24,7.24,0,0,1-5.044-1.472,6.082,6.082,0,0,1-1.617-4.706V44.722h-2.727V39.9h2.824v-6.2h7.047v6.3Zm10.378-7.24V38.52h-7.337V32.631Zm0,7.24V58.865h-7.337V39.92ZM166.1,51.142l6.323.531a8.471,8.471,0,0,1-2.8,5.5,9.074,9.074,0,0,1-6.227,2.075,9.34,9.34,0,0,1-9.774-9.654,10.015,10.015,0,0,1,2.7-7.24,9.267,9.267,0,0,1,7.023-2.824,9.074,9.074,0,0,1,6.226,2.124,8.181,8.181,0,0,1,2.751,5.43l-6.516.531c-.266-2-1.038-3.017-2.269-3.017a1.834,1.834,0,0,0-1.762,1.086,9.194,9.194,0,0,0-.555,3.789,8.3,8.3,0,0,0,.555,3.451,1.979,1.979,0,0,0,1.907,1.11q2.027,0,2.413-2.824Zm21.551.845,6.9.459a8.254,8.254,0,0,1-3.137,4.827,10.884,10.884,0,0,1-6.83,1.955,10.6,10.6,0,0,1-7.723-2.727,9.316,9.316,0,0,1-2.848-6.878,10.257,10.257,0,1,1,20.49.169v1.062h-12.67a5.092,5.092,0,0,0,.628,2.679,3.065,3.065,0,0,0,5.14-1.472Zm-.531-4.947a3.475,3.475,0,0,0-.772-2.413,2.727,2.727,0,0,0-1.858-.652q-2.606,0-2.606,3.186Zm9.05,6.516,5.889-.821c.338,1.376,1.665,2.076,4.006,2.076,1.931,0,2.9-.386,2.9-1.134a.869.869,0,0,0-.555-.748,12.72,12.72,0,0,0-2.679-.555c-3.861-.531-6.275-1.351-7.24-2.413a5.744,5.744,0,0,1-1.448-3.813,5.623,5.623,0,0,1,2.413-4.827,10.546,10.546,0,0,1,6.371-1.786c4.634,0,7.554,1.641,8.833,4.972l-5.6,1.062a3.306,3.306,0,0,0-3.234-1.665,3.765,3.765,0,0,0-1.786.338c-.386.217-.6.41-.6.627,0,.627.6,1.014,1.81,1.134a39.171,39.171,0,0,1,6.323,1.062,6.251,6.251,0,0,1,2.848,1.979,5.382,5.382,0,0,1,1.158,3.475,5.768,5.768,0,0,1-2.606,4.827,12.357,12.357,0,0,1-7.24,1.81C200.663,59.251,197.5,57.344,196.174,53.555Z" transform="translate(34.936 -23.581)" fill="#f06022" fill-rule="evenodd"/>
  </g>
</svg>
