<svg xmlns="http://www.w3.org/2000/svg" width="100" height="51.654" viewBox="0 0 100 51.654">
  <g id="logo_new" transform="translate(-248.563 -331.037)">
    <path id="Path_1862" data-name="Path 1862" d="M249.769,336.228a1.553,1.553,0,0,1,.509-1.177,1.83,1.83,0,0,1,2.481.006,1.594,1.594,0,0,1,0,2.341,1.86,1.86,0,0,1-2.487.009,1.559,1.559,0,0,1-.5-1.18Zm3.93,8.515a.972.972,0,0,0,.175.692,1.138,1.138,0,0,0,.736.165h.334v1.609h-6.381V345.6h.389a1.15,1.15,0,0,0,.739-.165.976.976,0,0,0,.175-.692v-3.7a.969.969,0,0,0-.175-.695,1.172,1.172,0,0,0-.739-.162h-.389v-1.61H253.7v6.167Zm13.545,0a.989.989,0,0,0,.172.7,1.121,1.121,0,0,0,.723.162h.389v1.609H262.38V345.6h.211a.948.948,0,0,0,.658-.165,1.039,1.039,0,0,0,.162-.692v-3.119a1.67,1.67,0,0,0-.315-1.107,1.166,1.166,0,0,0-.947-.369,1.3,1.3,0,0,0-1.054.472,1.951,1.951,0,0,0-.389,1.281v2.841a.993.993,0,0,0,.172.686.97.97,0,0,0,.671.171h.188v1.609h-6.246V345.6h.467a1.15,1.15,0,0,0,.739-.165.972.972,0,0,0,.175-.692v-3.7a.966.966,0,0,0-.175-.695,1.171,1.171,0,0,0-.739-.162h-.467v-1.61h5.12v1.341a4.061,4.061,0,0,1,1.485-1.18,4.507,4.507,0,0,1,1.92-.4,3.515,3.515,0,0,1,2.49.714,3.387,3.387,0,0,1,.737,2.481v3.21Zm24.58-.534a3.758,3.758,0,0,1-1.54,2.5,5.8,5.8,0,0,1-3.324.827,5.552,5.552,0,0,1-3.826-1.25,4.782,4.782,0,0,1,0-6.78,5.461,5.461,0,0,1,3.784-1.262,4.384,4.384,0,0,1,4.864,4.844v.315h-6.109v.18a2.553,2.553,0,0,0,.483,1.671,1.7,1.7,0,0,0,1.378.583,1.837,1.837,0,0,0,1.246-.42,2.1,2.1,0,0,0,.645-1.208Zm-6.148-2.414H288.5v-.134a2.086,2.086,0,0,0-.37-1.323,1.277,1.277,0,0,0-1.054-.464,1.2,1.2,0,0,0-1.031.5,2.387,2.387,0,0,0-.366,1.421Zm18.655,2.948a.986.986,0,0,0,.172.7,1.119,1.119,0,0,0,.723.162h.389v1.609h-6.148V345.6h.211a.947.947,0,0,0,.658-.165,1.039,1.039,0,0,0,.162-.692v-3.119a1.67,1.67,0,0,0-.315-1.107,1.165,1.165,0,0,0-.947-.369,1.3,1.3,0,0,0-1.053.472,1.951,1.951,0,0,0-.389,1.281v2.841a.993.993,0,0,0,.172.686.972.972,0,0,0,.671.171h.188v1.609H292.58V345.6h.467a1.15,1.15,0,0,0,.739-.165.975.975,0,0,0,.175-.692v-3.7a.969.969,0,0,0-.175-.695,1.172,1.172,0,0,0-.739-.162h-.467v-1.61h5.12v1.341a4.062,4.062,0,0,1,1.485-1.18,4.507,4.507,0,0,1,1.92-.4,3.517,3.517,0,0,1,2.491.714,3.39,3.39,0,0,1,.736,2.481v3.21Zm3.074-8.515a1.553,1.553,0,0,1,.509-1.177,1.83,1.83,0,0,1,2.481.006,1.594,1.594,0,0,1,0,2.341,1.86,1.86,0,0,1-2.487.009,1.559,1.559,0,0,1-.5-1.18Zm3.93,8.515a.976.976,0,0,0,.175.692,1.14,1.14,0,0,0,.736.165h.334v1.609H306.2V345.6h.389a1.152,1.152,0,0,0,.74-.165.975.975,0,0,0,.175-.692v-3.7a.969.969,0,0,0-.175-.695,1.173,1.173,0,0,0-.74-.162H306.2v-1.61h5.136v6.167Zm7.533-6.5a6.232,6.232,0,0,1,4.1,1.25,4.584,4.584,0,0,1,.01,6.784,7.38,7.38,0,0,1-8.178.009,4.656,4.656,0,0,1,0-6.8,6.14,6.14,0,0,1,4.069-1.241Zm1.459,4.649a5.608,5.608,0,0,0-.328-2.308,1.162,1.162,0,0,0-1.125-.641,1.131,1.131,0,0,0-1.1.641,8.327,8.327,0,0,0,0,4.616,1.17,1.17,0,0,0,1.135.634,1.129,1.129,0,0,0,1.1-.631,5.732,5.732,0,0,0,.318-2.311Zm12.647,3.055a4.184,4.184,0,0,1-1.492,1.183,4.419,4.419,0,0,1-1.91.406,3.493,3.493,0,0,1-2.484-.714,3.445,3.445,0,0,1-.726-2.494v-3.289a.946.946,0,0,0-.182-.695,1.178,1.178,0,0,0-.739-.162h-.3v-1.61H330.2v5.576a1.722,1.722,0,0,0,.308,1.119,1.159,1.159,0,0,0,.934.366,1.294,1.294,0,0,0,1.053-.472,1.978,1.978,0,0,0,.389-1.29v-2.832a.973.973,0,0,0-.175-.7,1.175,1.175,0,0,0-.73-.155H331.6v-1.61h5.117v6.167a.956.956,0,0,0,.181.692,1.141,1.141,0,0,0,.733.165h.409v1.609h-5.062V345.95Zm7.28,1.384h-1.362v-3.161H340.6a2.414,2.414,0,0,0,.967,1.262,3.081,3.081,0,0,0,1.68.421,2.057,2.057,0,0,0,.979-.174.588.588,0,0,0,.305-.552q0-.5-1.524-.921c-.34-.094-.61-.174-.808-.232a8.519,8.519,0,0,1-2.854-1.241,2.012,2.012,0,0,1-.652-1.582,2.443,2.443,0,0,1,1.174-2.119,5.632,5.632,0,0,1,3.191-.79,8.61,8.61,0,0,1,1.729.168,8.283,8.283,0,0,1,1.615.509l.276-.509h1.433v2.723H346.6a2.693,2.693,0,0,0-1.074-.991,3.3,3.3,0,0,0-1.514-.345,1.981,1.981,0,0,0-.911.174.529.529,0,0,0-.334.478q0,.558,1.456.97c.247.07.441.128.581.168.12.036.289.085.5.143a9.649,9.649,0,0,1,2.253.884,2.035,2.035,0,0,1,.743.814,2.456,2.456,0,0,1,.263,1.143,2.483,2.483,0,0,1-1.141,2.159,5.452,5.452,0,0,1-3.136.786,8.678,8.678,0,0,1-2.011-.223,6.394,6.394,0,0,1-1.67-.631Z" transform="translate(0 -1.616)" fill="#000003" fill-rule="evenodd"/>
    <g id="Group_654" data-name="Group 654" transform="translate(294.831 351.775)">
      <path id="Path_1867" data-name="Path 1867" d="M346.338,379.481a.9.9,0,0,0,.2.692,1.337,1.337,0,0,0,.8.165h.247v1.61h-6.507v-1.61h.236a1.054,1.054,0,0,0,.693-.162,1,1,0,0,0,.169-.7v-3.113a1.615,1.615,0,0,0-.335-1.116,1.313,1.313,0,0,0-1.014-.366,1.477,1.477,0,0,0-1.162.479,1.84,1.84,0,0,0-.426,1.277v2.838a.937.937,0,0,0,.187.686,1.1,1.1,0,0,0,.718.171h.215v1.61h-6.612v-1.61h.362a1.312,1.312,0,0,0,.792-.165.9.9,0,0,0,.2-.692V372.14a.9.9,0,0,0-.2-.692,1.316,1.316,0,0,0-.792-.165h-.362v-1.61h5.493v4.945a4.274,4.274,0,0,1,1.574-1.174,5.175,5.175,0,0,1,2.039-.369,4,4,0,0,1,2.7.716,3.246,3.246,0,0,1,.789,2.485Z" transform="translate(-333.747 -369.438)" fill="#000003" fill-rule="evenodd"/>
      <path id="Path_1868" data-name="Path 1868" d="M415.865,374.2h-1.394V372.6h.081a2.477,2.477,0,0,0,1.958-.786,5.433,5.433,0,0,0,1.025-2.579h2.493V372.6h2.936V374.2h-2.936v4.689a1.313,1.313,0,0,0,.18.771.647.647,0,0,0,.56.247.666.666,0,0,0,.658-.391,4.183,4.183,0,0,0,.187-1.548v-.8h1.817v1.171a3.2,3.2,0,0,1-.859,2.524,4.34,4.34,0,0,1-2.859.75,5.967,5.967,0,0,1-1.891-.272,3.169,3.169,0,0,1-1.317-.808,2.175,2.175,0,0,1-.489-.808,5.6,5.6,0,0,1-.148-1.548Z" transform="translate(-370.688 -369.239)" fill="#000003" fill-rule="evenodd"/>
    </g>
    <g id="Group_656" data-name="Group 656" transform="translate(269.229 331.037)">
      <path id="Path_1858" data-name="Path 1858" d="M296.029,346.359c-.106.061-.177.1-.248.145a6.365,6.365,0,0,1-9.108-2.129,1,1,0,0,1,.473-1.407,1.133,1.133,0,0,1,1.507.467,3.923,3.923,0,0,0,2.849,2,3.984,3.984,0,0,0,4.515-2.841A3.741,3.741,0,0,0,293,338.186a4.053,4.053,0,0,0-4.285,1.885,1.223,1.223,0,0,1-.791.65,1.068,1.068,0,0,1-1.07-.305.914.914,0,0,1-.236-1.051,4.83,4.83,0,0,1,1.176-1.618,6.2,6.2,0,0,1,3.575-1.674,1.466,1.466,0,0,0,.213-.061c.024-.033.053-.066.077-.1a1.262,1.262,0,0,1-.284-.156q-1.242-1.093-2.47-2.191a.958.958,0,0,1-.29-1.274,1.22,1.22,0,0,1,1.318-.639,1.374,1.374,0,0,1,.6.323c.8.689,1.578,1.4,2.37,2.1a.6.6,0,0,0,.284.155c-.029-.083-.053-.167-.088-.25-.207-.461-.414-.917-.615-1.384a1,1,0,0,1,.242-1.157,1.184,1.184,0,0,1,1.2-.356.978.978,0,0,1,.674.612q.647,1.459,1.3,2.919c.035.078.077.156.118.239.024-.005.047-.005.071-.011.006-.094.023-.189.023-.284.006-.517-.006-1.04.006-1.557a1.178,1.178,0,0,1,1.324-1.151.914.914,0,0,1,.887.845c.005.056,0,.111,0,.167v14.256a4.822,4.822,0,0,1-3.747,4.621,5.281,5.281,0,0,1-5.053-1.184,1.046,1.046,0,0,1-.36-1.029,1.167,1.167,0,0,1,1.915-.522,3.018,3.018,0,0,0,4.781-.884A3.116,3.116,0,0,0,296.029,346.359Z" transform="translate(-286.544 -331.037)" fill="#4439a9" fill-rule="evenodd"/>
      <path id="Path_1866" data-name="Path 1866" d="M351.752,392.349q2.835-3.72,5.668-7.442c1.155-1.525,1.493-1.611,3.406-.74l.754-.891a12.3,12.3,0,0,1-5.81-10.169c0-5.06,3.406-9.437,8.356-11.537a15.947,15.947,0,0,1,6.886-1.322,16.951,16.951,0,0,1,6.3,1.29,13.218,13.218,0,0,1,5.281,3.68h0a11.7,11.7,0,0,1,3.15,7.889c0,7.1-6.709,12.862-14.985,12.862a16.889,16.889,0,0,1-7.164-1.563l-.577.908c1.756,1.5,1.761,1.5.416,3.29q-2.454,3.271-4.924,6.534a1.705,1.705,0,0,1-2.581.51c-1.323-.746-2.621-1.526-3.93-2.292l-.242-1.006Zm28.354-27.22a4.4,4.4,0,0,1-.544-.385,12.412,12.412,0,0,0-1.86-1.257,15.088,15.088,0,0,0-13.49-.207l-.063.031-.17.087-.144.075-.035.019a10.677,10.677,0,0,0-5.437,12.207c1.218,4.6,6,8.133,11.479,8.479,7.166.452,14.1-4.792,14.1-11.072a10.539,10.539,0,0,0-3.833-7.977Zm-14.123,11.328v1.309h4.529v-1.673h-.366a.913.913,0,0,1-.656-.171,1.11,1.11,0,0,1-.162-.719v-6.41H364.75v1.673h.339a.936.936,0,0,1,.653.162,1.131,1.131,0,0,1,.157.728V374.3a2.289,2.289,0,0,1-.348,1.34,1.1,1.1,0,0,1-.943.491.968.968,0,0,1-.836-.38,2,2,0,0,1-.276-1.162v-5.8h-4.527v1.673h.273a.945.945,0,0,1,.662.168,1.1,1.1,0,0,1,.163.722v3.419a3.981,3.981,0,0,0,.65,2.592,2.839,2.839,0,0,0,2.223.741,3.5,3.5,0,0,0,1.71-.421,3.9,3.9,0,0,0,1.335-1.229ZM381.5,375.2v-3.336a3.912,3.912,0,0,0-.659-2.579,2.856,2.856,0,0,0-2.229-.741,3.565,3.565,0,0,0-1.718.415,3.784,3.784,0,0,0-1.329,1.226v-1.395h-4.582v1.673h.418a.94.94,0,0,1,.662.168,1.132,1.132,0,0,1,.156.722V375.2a1.138,1.138,0,0,1-.156.719.922.922,0,0,1-.662.171h-.418v1.673h5.589v-1.673H376.4a.784.784,0,0,1-.6-.177,1.155,1.155,0,0,1-.154-.713v-2.953a2.257,2.257,0,0,1,.348-1.33,1.1,1.1,0,0,1,.943-.491.974.974,0,0,1,.848.383,1.933,1.933,0,0,1,.281,1.15V375.2a1.212,1.212,0,0,1-.145.719.762.762,0,0,1-.589.171h-.189v1.673h5.5v-1.673H382.3a.9.9,0,0,1-.647-.168A1.153,1.153,0,0,1,381.5,375.2Z" transform="translate(-316.384 -344.368)" fill="#4439a9" fill-rule="evenodd"/>
      <path id="Path_1863" data-name="Path 1863" d="M297.18,352.611c.159-.228.136-.445-.047-.567a.429.429,0,0,0-.6.162,1.715,1.715,0,0,1-2.8.016c-.177-.239-.4-.305-.591-.189-.213.128-.23.344-.042.606a2.523,2.523,0,0,0,4.078-.028Z" transform="translate(-289.485 -340.612)" fill="#4439a9" fill-rule="evenodd"/>
      <path id="Path_1864" data-name="Path 1864" d="M293.566,349.271a.591.591,0,1,0-.626-.6.589.589,0,0,0,.626.6Zm0-.249a.341.341,0,1,1,.362-.344A.339.339,0,0,1,293.566,349.022Z" transform="translate(-289.471 -338.836)" fill="#4439a9" fill-rule="evenodd"/>
      <path id="Path_1865" data-name="Path 1865" d="M299.595,348.685a.362.362,0,1,1-.362-.344.34.34,0,0,1,.362.344Zm-.989.008a.627.627,0,1,0,.626-.6A.594.594,0,0,0,298.606,348.692Z" transform="translate(-292.064 -338.836)" fill="#4439a9" fill-rule="evenodd"/>
    </g>
  </g>
</svg>
