<svg xmlns="http://www.w3.org/2000/svg" width="266.855" height="82.955" viewBox="0 0 266.855 82.955">
  <g id="logo_scpl" transform="translate(0)">
    <rect id="Rectangle_8" data-name="Rectangle 8" width="23.07" height="8.39" transform="matrix(0.707, -0.707, 0.707, 0.707, 45.545, 77.024)" fill="#333"/>
    <path id="Path_28" data-name="Path 28" d="M.036,57.436a4.191,4.191,0,1,1,3.621,4.689A4.192,4.192,0,0,1,.036,57.436Z" transform="translate(0 -16.478)" fill="#2196f3" fill-rule="evenodd"/>
    <path id="Path_29" data-name="Path 29" d="M10.454,32.49,42.905.039l5.982,5.882-32.5,32.5Z" transform="translate(-3.203 -0.012)" fill="#333" fill-rule="evenodd"/>
    <path id="Path_30" data-name="Path 30" d="M16.318,62.235l9.839,9.872c1.3,1.443,1.843,1.678,3.491.418L44.4,57.773l5.884,5.884L32.209,81.73c-3.529,3.283-6.237,2.032-8.852-.585l-1.893-1.891L10.385,68.162Z" transform="translate(-3.182 -17.703)" fill="#2196f3" fill-rule="evenodd"/>
    <path id="Path_31" data-name="Path 31" d="M63.807,44.618,81.6,26.825s4.444-4.217,8.113-.615l5.825,5.723-5.963,6-1-1s-2.417-2.9-4.459-.852L69.689,50.5Z" transform="translate(-19.551 -7.585)" fill="#333" fill-rule="evenodd"/>
    <path id="Path_32" data-name="Path 32" d="M99.491,75.75l-5.931-5.931,16.227-16.226-8.015-8.021,5.927-5.927,14.043,14.042Z" transform="translate(-28.668 -12.148)" fill="#2196f3" fill-rule="evenodd"/>
    <path id="Path_33" data-name="Path 33" d="M66.11,114.04l-11.889-.059-6.556-6.556,5.977-5.9Z" transform="translate(-14.605 -31.109)" fill="#2196f3" fill-rule="evenodd"/>
    <path id="Path_34" data-name="Path 34" d="M57.281,0,69.107.02l6.551,6.555L69.731,12.5Z" transform="translate(-17.552)" fill="#2196f3" fill-rule="evenodd"/>
    <path id="Path_35" data-name="Path 35" d="M295.8,45.087V43.1a22.881,22.881,0,0,0,2.539.5,16.956,16.956,0,0,0,2.482.178,7.443,7.443,0,0,0,4.123-.915,3.1,3.1,0,0,0,1.368-2.784q0-2.432-3.858-4.5l-.3-.162-1.538-.857a13.925,13.925,0,0,1-4.209-3.113,5.368,5.368,0,0,1-1.187-3.462,6.366,6.366,0,0,1,2.461-5.339q2.448-1.913,6.925-1.907c.65,0,1.359.038,2.142.114s1.689.189,2.725.34v2.037c-1.584-.189-2.668-.311-3.246-.367s-1-.087-1.254-.087a6.577,6.577,0,0,0-3.632.831,2.683,2.683,0,0,0-1.255,2.377q0,1.938,3.416,3.906l.329.189,2.425,1.47a14.237,14.237,0,0,1,4.293,3.331,5.822,5.822,0,0,1,1.028,3.519,6.4,6.4,0,0,1-2.566,5.422c-1.719,1.295-4.141,1.934-7.274,1.934a24.926,24.926,0,0,1-2.765-.167Q297.518,45.426,295.8,45.087ZM274.271,25.67c0-1.8.291-2.981.868-3.526s1.8-.831,3.65-.831h11.563v2.094H282.08a3.257,3.257,0,0,0-1.953.415,1.934,1.934,0,0,0-.48,1.519v6.1h8.773v2.377h-8.773v7.716a1.849,1.849,0,0,0,.5,1.5,4.188,4.188,0,0,0,2.323.405h8.159v2.093H277.94a3.832,3.832,0,0,1-2.858-.858q-.809-.85-.811-3.5Zm-4.689,14.539a11.7,11.7,0,0,1-4.057,4.527,10.185,10.185,0,0,1-5.574,1.595,10.835,10.835,0,0,1-8.342-3.688,13.309,13.309,0,0,1-3.367-9.329,12.834,12.834,0,0,1,3.408-9.048,11.014,11.014,0,0,1,8.433-3.688,10.685,10.685,0,0,1,5.566,1.4A8.859,8.859,0,0,1,269.223,26L267.2,27.086a8.8,8.8,0,0,0-2.606-3.408,6,6,0,0,0-3.632-1.122,5.912,5.912,0,0,0-5.244,2.765c-1.217,1.84-1.821,4.53-1.821,8.048a14.2,14.2,0,0,0,1.916,7.783,5.715,5.715,0,0,0,4.934,2.971,6.319,6.319,0,0,0,3.877-1.311,10.569,10.569,0,0,0,3.018-3.84Zm-32.263-18.9h5.377V45.537h-5.377Zm-.454-6.925a3.049,3.049,0,0,1,.925-2.226,3.107,3.107,0,0,1,2.256-.922,2.991,2.991,0,0,1,2.188.9,3.188,3.188,0,0,1,.019,4.451,2.98,2.98,0,0,1-2.207.925,3.1,3.1,0,0,1-2.256-.925A3.02,3.02,0,0,1,236.864,14.388ZM221.3,45.537V23.407h-5.153V21.313h15.68v2.094h-5.15v22.13Zm-17.954,0V14.123q0-4.726,1.613-6.432c1.076-1.141,2.981-1.719,5.728-1.719h.688l2.708.057V8.237h-1.435c-1.622.037-2.679.294-3.178.774s-.748,1.492-.748,3.038v9.264h5.606V23.69h-5.606V45.537Zm-16.989.793a12.337,12.337,0,0,1-9.159-3.753,12.949,12.949,0,0,1-3.691-9.454,12.988,12.988,0,0,1,3.151-9.048,10.552,10.552,0,0,1,8.226-3.5,12.4,12.4,0,0,1,9.218,3.756,12.914,12.914,0,0,1,3.688,9.424,13.03,13.03,0,0,1-3.159,9.076A10.648,10.648,0,0,1,186.358,46.331Zm-.717-1.81a5.345,5.345,0,0,0,4.7-3.03,15.555,15.555,0,0,0,1.792-8,15.737,15.737,0,0,0-1.792-8.046q-1.8-3.059-4.7-3.059c-1.943,0-3.51,1.02-4.716,3.068a15.687,15.687,0,0,0-1.81,8.037,15.478,15.478,0,0,0,1.81,7.991C182.13,43.511,183.7,44.52,185.64,44.52Zm-36.953-6a9.85,9.85,0,0,0,3.113,3.623,7.04,7.04,0,0,0,4.076,1.3,6.37,6.37,0,0,0,6.661-6.658q0-4.686-8.274-8.077l-.076-.027a15.657,15.657,0,0,1-6.31-4.122,8.888,8.888,0,0,1-1.867-5.8,10.435,10.435,0,0,1,3.205-7.886,11.454,11.454,0,0,1,8.294-3.084A12.736,12.736,0,0,1,164.179,9.5a10.429,10.429,0,0,1,4.246,4.859l-2.433,1.633a8.266,8.266,0,0,0-2.738-3.983,6.913,6.913,0,0,0-4.338-1.395,5.924,5.924,0,0,0-4.4,1.727,6.125,6.125,0,0,0-1.716,4.519,5.368,5.368,0,0,0,1.416,3.753,15.74,15.74,0,0,0,5.282,3.2q6.1,2.63,8.045,5.026A9.464,9.464,0,0,1,169.5,35a10.764,10.764,0,0,1-3.443,8.206,12.2,12.2,0,0,1-8.717,3.235,13.9,13.9,0,0,1-6.574-1.462,13.146,13.146,0,0,1-4.81-4.527Z" transform="translate(-44.723 -1.83)" fill="#2196f3" fill-rule="evenodd"/>
    <path id="Path_36" data-name="Path 36" d="M303.481,99.023l-6.048-15.27h3.582l4.271,10.756,4.473-10.756h1.576l-8.849,21.569h-1.678Zm-6.83-3.308a7.414,7.414,0,0,1-2.568,2.865,6.454,6.454,0,0,1-3.529,1.008,6.857,6.857,0,0,1-5.28-2.333,8.434,8.434,0,0,1-2.131-5.906,8.128,8.128,0,0,1,2.156-5.728,6.974,6.974,0,0,1,5.339-2.336,6.764,6.764,0,0,1,3.523.885,5.591,5.591,0,0,1,2.264,2.55l-1.279.687a5.55,5.55,0,0,0-1.648-2.156,3.8,3.8,0,0,0-2.3-.712,3.74,3.74,0,0,0-3.319,1.751,9.252,9.252,0,0,0-1.155,5.094,8.974,8.974,0,0,0,1.214,4.926,3.614,3.614,0,0,0,3.121,1.881,4.007,4.007,0,0,0,2.455-.828,6.683,6.683,0,0,0,1.91-2.431ZM269.6,99.088h-1.47V86.37a4.083,4.083,0,0,1,.532-2.355,1.967,1.967,0,0,1,1.692-.728,2.793,2.793,0,0,1,1.742.639,6.348,6.348,0,0,1,1.56,1.934l4,7.138a.189.189,0,0,0,.078.07.249.249,0,0,0,.132.037.23.23,0,0,0,.2-.092.652.652,0,0,0,.06-.345V83.753h1.468v14.04a2.781,2.781,0,0,1-.251,1.432.979.979,0,0,1-.866.364,1.262,1.262,0,0,1-.744-.213,2.213,2.213,0,0,1-.585-.723l-7.041-12.111a.668.668,0,0,0-.124-.167.167.167,0,0,0-.121-.044.238.238,0,0,0-.208.073.7.7,0,0,0-.054.345Zm-14.668-6.054h4.988L258.1,86.524a2.1,2.1,0,0,0-.329-.7.532.532,0,0,0-.407-.167.375.375,0,0,0-.305.184,2.556,2.556,0,0,0-.286.707Zm-.351,1.325-1.362,4.73h-1.506l3.764-13.435a3.449,3.449,0,0,1,1.014-1.762,2.55,2.55,0,0,1,1.713-.6,2.756,2.756,0,0,1,1.85.674,3.9,3.9,0,0,1,1.16,1.9l3.936,13.227h-3.483l-1.4-4.73Zm-11.287,4.73V85.078h-3.259V83.753h9.922v1.325H246.7v14.01ZM232.755,74.044h3.4V96.557a1.187,1.187,0,0,0,.318.955,2.723,2.723,0,0,0,1.473.251h.861v1.325h-3.731a2.437,2.437,0,0,1-1.81-.542,3.371,3.371,0,0,1-.513-2.215Zm-12.5,9.709v9.931a4.246,4.246,0,0,0,.866,2.86,3.125,3.125,0,0,0,2.5,1,2.742,2.742,0,0,0,2.425-1.049A6.348,6.348,0,0,0,226.776,93V83.753h1.506V94.067a5.571,5.571,0,0,1-1.435,4.05,5.239,5.239,0,0,1-3.939,1.472,6.19,6.19,0,0,1-4.517-1.511,5.931,5.931,0,0,1-1.54-4.43v-9.9ZM203.211,98.8V97.547a14.988,14.988,0,0,0,1.608.318,10.885,10.885,0,0,0,1.57.113A4.7,4.7,0,0,0,209,97.4a1.96,1.96,0,0,0,.866-1.762q0-1.542-2.441-2.849l-.192-.1-.974-.542a8.8,8.8,0,0,1-2.663-1.973,3.381,3.381,0,0,1-.753-2.19A4.031,4.031,0,0,1,204.4,84.6a7,7,0,0,1,4.384-1.206c.41,0,.858.024,1.355.073s1.068.119,1.726.214v1.292c-1-.121-1.692-.2-2.056-.235s-.631-.053-.793-.053a4.175,4.175,0,0,0-2.3.526,1.7,1.7,0,0,0-.8,1.506q0,1.226,2.163,2.471l.208.119,1.535.934a9.02,9.02,0,0,1,2.717,2.107,3.68,3.68,0,0,1,.651,2.228,4.054,4.054,0,0,1-1.624,3.434,7.526,7.526,0,0,1-4.6,1.222,15.5,15.5,0,0,1-1.751-.105Q204.3,99.016,203.211,98.8Zm-14.488.286h-1.468V86.37a4.062,4.062,0,0,1,.531-2.355,1.965,1.965,0,0,1,1.689-.728,2.807,2.807,0,0,1,1.746.639,6.353,6.353,0,0,1,1.556,1.934l4,7.138a.235.235,0,0,0,.078.07.261.261,0,0,0,.132.037.229.229,0,0,0,.2-.092.633.633,0,0,0,.059-.345V83.753h1.47v14.04a2.774,2.774,0,0,1-.251,1.432.982.982,0,0,1-.866.364,1.268,1.268,0,0,1-.748-.213,2.267,2.267,0,0,1-.585-.723l-7.038-12.111a.631.631,0,0,0-.127-.167.165.165,0,0,0-.119-.044.246.246,0,0,0-.21.073.688.688,0,0,0-.054.345Zm-12.224.5a7.808,7.808,0,0,1-5.8-2.376,9.01,9.01,0,0,1-.34-11.709,6.669,6.669,0,0,1,5.207-2.217,7.851,7.851,0,0,1,5.833,2.377,9,9,0,0,1,.334,11.711A6.729,6.729,0,0,1,176.5,99.589Zm-.453-1.146a3.383,3.383,0,0,0,2.973-1.915,9.855,9.855,0,0,0,1.136-5.065,9.955,9.955,0,0,0-1.136-5.093,3.258,3.258,0,0,0-5.959.006,9.941,9.941,0,0,0-1.146,5.087,9.8,9.8,0,0,0,1.146,5.056A3.4,3.4,0,0,0,176.046,98.443Zm-9.359-4.9a10.391,10.391,0,0,1-3.809,4.533,10.172,10.172,0,0,1-5.679,1.583,10.42,10.42,0,0,1-8-3.445,12.476,12.476,0,0,1-3.189-8.816,12.279,12.279,0,0,1,3.267-8.725,10.642,10.642,0,0,1,8.091-3.485,10.286,10.286,0,0,1,5.107,1.205,9.61,9.61,0,0,1,3.577,3.618l-1.4.979a8.179,8.179,0,0,0-2.687-3.2,6.872,6.872,0,0,0-9.281,1.84,13.532,13.532,0,0,0-2.056,7.929q0,4.848,1.959,7.524a6.427,6.427,0,0,0,5.5,2.677,7.06,7.06,0,0,0,4.192-1.3,9.353,9.353,0,0,0,2.987-3.82Z" transform="translate(-44.741 -22.688)" fill="#333" fill-rule="evenodd"/>
  </g>
</svg>
