<svg xmlns="http://www.w3.org/2000/svg" width="199.668" height="103.137" viewBox="0 0 199.668 103.137">
  <g id="logo_footer" transform="translate(-248.563 -331.037)">
    <path id="Path_1862" data-name="Path 1862" d="M250.971,337.883a3.1,3.1,0,0,1,1.016-2.352,3.652,3.652,0,0,1,4.953.012,3.186,3.186,0,0,1,0,4.678,3.712,3.712,0,0,1-4.966.018,3.116,3.116,0,0,1-1-2.357Zm7.848,17.012a1.944,1.944,0,0,0,.35,1.383,2.271,2.271,0,0,0,1.469.329h.666v3.215H248.563v-3.215h.777a2.3,2.3,0,0,0,1.476-.329,1.95,1.95,0,0,0,.349-1.383V347.5a1.938,1.938,0,0,0-.349-1.388,2.338,2.338,0,0,0-1.476-.323h-.777v-3.216h10.256V354.9Zm27.045,0a1.978,1.978,0,0,0,.342,1.389,2.238,2.238,0,0,0,1.444.323h.777v3.215H276.151v-3.215h.421a1.891,1.891,0,0,0,1.315-.329,2.076,2.076,0,0,0,.324-1.383v-6.231a3.338,3.338,0,0,0-.629-2.212,2.328,2.328,0,0,0-1.891-.737,2.589,2.589,0,0,0-2.1.944,3.9,3.9,0,0,0-.776,2.559V354.9a1.985,1.985,0,0,0,.342,1.371,1.935,1.935,0,0,0,1.34.341h.376v3.215H262.4v-3.215h.932a2.3,2.3,0,0,0,1.476-.329,1.944,1.944,0,0,0,.35-1.383V347.5a1.931,1.931,0,0,0-.35-1.388,2.338,2.338,0,0,0-1.476-.323H262.4v-3.216h10.223v2.68a8.11,8.11,0,0,1,2.966-2.357,8.995,8.995,0,0,1,3.833-.8q3.506,0,4.972,1.426c.979.949,1.471,2.606,1.471,4.958V354.9Zm49.078-1.066a7.509,7.509,0,0,1-3.076,5,11.572,11.572,0,0,1-6.636,1.651,11.081,11.081,0,0,1-7.64-2.5,9.558,9.558,0,0,1,.007-13.547,10.9,10.9,0,0,1,7.555-2.522q4.691,0,7.2,2.5t2.512,7.175v.629h-12.2v.359a5.1,5.1,0,0,0,.965,3.338,3.392,3.392,0,0,0,2.751,1.164,3.666,3.666,0,0,0,2.487-.84,4.185,4.185,0,0,0,1.288-2.413Zm-12.276-4.823H328.3v-.269a4.17,4.17,0,0,0-.738-2.643,2.548,2.548,0,0,0-2.1-.927,2.4,2.4,0,0,0-2.059,1,4.772,4.772,0,0,0-.731,2.839Zm37.249,5.89a1.971,1.971,0,0,0,.344,1.389,2.232,2.232,0,0,0,1.443.323h.777v3.215H350.2v-3.215h.42a1.889,1.889,0,0,0,1.315-.329,2.078,2.078,0,0,0,.324-1.383v-6.231a3.339,3.339,0,0,0-.629-2.212,2.326,2.326,0,0,0-1.891-.737,2.587,2.587,0,0,0-2.1.944,3.9,3.9,0,0,0-.777,2.559V354.9a1.985,1.985,0,0,0,.342,1.371,1.939,1.939,0,0,0,1.34.341h.376v3.215H336.451v-3.215h.933a2.294,2.294,0,0,0,1.476-.329,1.949,1.949,0,0,0,.35-1.383V347.5a1.937,1.937,0,0,0-.35-1.388,2.338,2.338,0,0,0-1.476-.323h-.933v-3.216h10.223v2.68a8.11,8.11,0,0,1,2.966-2.357,8.994,8.994,0,0,1,3.833-.8q3.506,0,4.973,1.426c.977.949,1.469,2.606,1.469,4.958V354.9Zm6.138-17.012a3.1,3.1,0,0,1,1.016-2.352,3.652,3.652,0,0,1,4.954.012,3.186,3.186,0,0,1,0,4.678,3.712,3.712,0,0,1-4.966.018,3.116,3.116,0,0,1-1-2.357ZM373.9,354.9a1.95,1.95,0,0,0,.349,1.383,2.274,2.274,0,0,0,1.47.329h.667v3.215H363.645v-3.215h.776a2.3,2.3,0,0,0,1.477-.329,1.949,1.949,0,0,0,.349-1.383V347.5a1.937,1.937,0,0,0-.349-1.388,2.341,2.341,0,0,0-1.477-.323h-.776v-3.216H373.9V354.9Zm15.04-12.98q5.177,0,8.184,2.5a9.164,9.164,0,0,1,.02,13.553q-2.991,2.476-8.164,2.479-5.215,0-8.164-2.461a9.308,9.308,0,0,1,0-13.589q2.952-2.477,8.125-2.48Zm2.914,9.289a11.21,11.21,0,0,0-.654-4.611,2.319,2.319,0,0,0-2.247-1.28,2.259,2.259,0,0,0-2.2,1.28,16.646,16.646,0,0,0,.006,9.222,2.336,2.336,0,0,0,2.266,1.267,2.255,2.255,0,0,0,2.194-1.26,11.46,11.46,0,0,0,.635-4.617Zm25.252,6.1a8.353,8.353,0,0,1-2.979,2.363,8.817,8.817,0,0,1-3.813.811q-3.506,0-4.96-1.426c-.964-.956-1.45-2.613-1.45-4.983V347.5a1.892,1.892,0,0,0-.363-1.388,2.351,2.351,0,0,0-1.476-.323h-.608v-3.216h10.1v11.141a3.443,3.443,0,0,0,.615,2.236,2.314,2.314,0,0,0,1.865.73,2.584,2.584,0,0,0,2.1-.944,3.952,3.952,0,0,0,.777-2.577V347.5a1.946,1.946,0,0,0-.349-1.4,2.344,2.344,0,0,0-1.457-.31h-.758v-3.216h10.218V354.9a1.91,1.91,0,0,0,.362,1.383,2.277,2.277,0,0,0,1.463.329h.816v3.215H417.107v-2.515Zm14.535,2.766h-2.719v-6.317h3.418a4.823,4.823,0,0,0,1.93,2.522,6.148,6.148,0,0,0,3.354.841,4.1,4.1,0,0,0,1.955-.348,1.175,1.175,0,0,0,.609-1.1q0-1-3.043-1.84c-.68-.189-1.218-.347-1.612-.463q-4.4-1.325-5.7-2.479a4.021,4.021,0,0,1-1.3-3.161,4.881,4.881,0,0,1,2.344-4.233,11.241,11.241,0,0,1,6.371-1.578,17.175,17.175,0,0,1,3.451.335,16.523,16.523,0,0,1,3.224,1.017l.551-1.017h2.862v5.44h-3.03a5.379,5.379,0,0,0-2.144-1.98,6.582,6.582,0,0,0-3.023-.689,3.952,3.952,0,0,0-1.82.348,1.058,1.058,0,0,0-.666.956q0,1.115,2.906,1.937c.493.14.881.256,1.16.335.239.073.576.17,1,.286a19.254,19.254,0,0,1,4.5,1.766,4.065,4.065,0,0,1,1.484,1.627,4.909,4.909,0,0,1,.525,2.284,4.961,4.961,0,0,1-2.279,4.313,10.882,10.882,0,0,1-6.262,1.571,17.317,17.317,0,0,1-4.015-.445,12.764,12.764,0,0,1-3.334-1.26Z" transform="translate(0 0.296)" fill="#fff" fill-rule="evenodd"/>
    <g id="Group_654" data-name="Group 654" transform="translate(340.874 372.435)">
      <path id="Path_1867" data-name="Path 1867" d="M358.9,389.269a1.8,1.8,0,0,0,.394,1.383,2.671,2.671,0,0,0,1.6.329h.493V394.2h-13v-3.216h.472a2.105,2.105,0,0,0,1.385-.323,1.988,1.988,0,0,0,.338-1.389V383.05a3.226,3.226,0,0,0-.669-2.229,2.623,2.623,0,0,0-2.025-.731,2.952,2.952,0,0,0-2.322.957,3.677,3.677,0,0,0-.851,2.552v5.671a1.872,1.872,0,0,0,.373,1.371,2.193,2.193,0,0,0,1.435.341h.429V394.2H333.747v-3.216h.724a2.621,2.621,0,0,0,1.583-.329,1.8,1.8,0,0,0,.393-1.383V374.6a1.807,1.807,0,0,0-.393-1.383,2.63,2.63,0,0,0-1.583-.329h-.724v-3.216h10.974v9.881a8.539,8.539,0,0,1,3.145-2.345,10.339,10.339,0,0,1,4.074-.737q3.809,0,5.388,1.43t1.576,4.965Z" transform="translate(-333.747 -369.203)" fill="#fff" fill-rule="evenodd"/>
      <path id="Path_1868" data-name="Path 1868" d="M417.257,379.143h-2.786v-3.179h.161a4.95,4.95,0,0,0,3.912-1.571,10.855,10.855,0,0,0,2.047-5.153h4.981v6.724h5.867v3.179h-5.867v9.369a2.623,2.623,0,0,0,.359,1.541,1.292,1.292,0,0,0,1.118.493,1.331,1.331,0,0,0,1.315-.78,8.357,8.357,0,0,0,.373-3.094v-1.608h3.63v2.34q0,3.544-1.717,5.044t-5.712,1.5a11.923,11.923,0,0,1-3.778-.543,6.331,6.331,0,0,1-2.632-1.613,4.346,4.346,0,0,1-.977-1.615,11.192,11.192,0,0,1-.295-3.094Z" transform="translate(-326.993 -369.239)" fill="#fff" fill-rule="evenodd"/>
    </g>
    <g id="Group_656" data-name="Group 656" transform="translate(289.722 331.037)">
      <path id="Path_1858" data-name="Path 1858" d="M305.5,361.65c-.212.122-.354.2-.5.289a12.718,12.718,0,0,1-18.2-4.255,2.008,2.008,0,0,1,.945-2.811,2.263,2.263,0,0,1,3.011.933,7.839,7.839,0,0,0,5.693,4,7.96,7.96,0,0,0,9.021-5.677,7.474,7.474,0,0,0-6.022-8.809,8.1,8.1,0,0,0-8.562,3.766,2.444,2.444,0,0,1-1.581,1.3,2.134,2.134,0,0,1-2.138-.61,1.827,1.827,0,0,1-.472-2.1,9.649,9.649,0,0,1,2.35-3.233,12.388,12.388,0,0,1,7.144-3.344,2.935,2.935,0,0,0,.425-.122c.048-.066.106-.132.154-.2a2.519,2.519,0,0,1-.567-.311q-2.481-2.183-4.936-4.377a1.913,1.913,0,0,1-.579-2.545,2.438,2.438,0,0,1,2.633-1.278,2.745,2.745,0,0,1,1.193.645c1.594,1.377,3.152,2.788,4.735,4.188a1.189,1.189,0,0,0,.567.31c-.058-.166-.106-.333-.177-.5-.413-.922-.827-1.832-1.228-2.766a1.989,1.989,0,0,1,.484-2.311,2.366,2.366,0,0,1,2.4-.711,1.955,1.955,0,0,1,1.347,1.222q1.292,2.916,2.6,5.832c.07.155.154.311.236.477.048-.011.094-.011.142-.022.012-.189.047-.377.047-.567.012-1.033-.012-2.077.012-3.11a2.355,2.355,0,0,1,2.645-2.3,1.826,1.826,0,0,1,1.772,1.688c.011.112,0,.222,0,.334V363.16a9.634,9.634,0,0,1-7.487,9.232,10.552,10.552,0,0,1-10.1-2.366,2.09,2.09,0,0,1-.72-2.056,2.332,2.332,0,0,1,3.827-1.044,6.03,6.03,0,0,0,9.553-1.766A6.226,6.226,0,0,0,305.5,361.65Z" transform="translate(-286.544 -331.037)" fill="#4439a9" fill-rule="evenodd"/>
      <path id="Path_1866" data-name="Path 1866" d="M351.752,424.392q5.665-7.433,11.325-14.869c2.308-3.046,2.982-3.218,6.805-1.479l1.506-1.781c-7.062-4.7-11.609-12.052-11.609-20.318,0-10.111,6.8-18.856,16.7-23.051a31.862,31.862,0,0,1,13.758-2.642,33.871,33.871,0,0,1,12.583,2.578,26.41,26.41,0,0,1,10.552,7.352h0a23.384,23.384,0,0,1,6.294,15.763c0,14.193-13.405,25.7-29.941,25.7a33.744,33.744,0,0,1-14.314-3.123l-1.153,1.814c3.508,2.988,3.518,2.993.831,6.573q-4.9,6.536-9.839,13.055c-1.49,1.969-2.936,2.272-5.157,1.019-2.643-1.491-5.236-3.049-7.851-4.58l-.484-2.009ZM408.4,370.007a8.791,8.791,0,0,1-1.087-.769,24.79,24.79,0,0,0-3.717-2.511,30.146,30.146,0,0,0-26.953-.414l-.127.063c-.114.056-.228.115-.34.173-.1.05-.193.1-.288.151l-.07.038a21.333,21.333,0,0,0-10.864,24.389c2.434,9.2,11.982,16.25,22.935,16.941,14.319.9,28.171-9.574,28.171-22.122a21.057,21.057,0,0,0-7.659-15.939Zm-28.218,22.632v2.615h9.05v-3.343h-.73a1.824,1.824,0,0,1-1.31-.341,2.217,2.217,0,0,1-.324-1.437V377.326h-9.149v3.343h.678a1.871,1.871,0,0,1,1.3.323,2.261,2.261,0,0,1,.313,1.455v5.881a4.573,4.573,0,0,1-.7,2.678,2.194,2.194,0,0,1-1.884.981,1.934,1.934,0,0,1-1.67-.76,3.992,3.992,0,0,1-.551-2.322V377.326h-9.045v3.343h.545a1.888,1.888,0,0,1,1.322.335,2.2,2.2,0,0,1,.325,1.443v6.83c0,2.463.435,4.184,1.3,5.178s2.348,1.481,4.441,1.481a6.985,6.985,0,0,0,3.416-.842,7.783,7.783,0,0,0,2.667-2.455Zm31-2.507v-6.666c0-2.444-.441-4.166-1.317-5.153s-2.359-1.481-4.453-1.481a7.122,7.122,0,0,0-3.432.829,7.56,7.56,0,0,0-2.656,2.45v-2.786h-9.155v3.343h.836a1.879,1.879,0,0,1,1.322.335,2.262,2.262,0,0,1,.312,1.443v7.685a2.275,2.275,0,0,1-.312,1.437,1.842,1.842,0,0,1-1.322.341h-.836v3.343h11.167v-3.343h-.336a1.567,1.567,0,0,1-1.2-.354,2.308,2.308,0,0,1-.308-1.424v-5.9a4.51,4.51,0,0,1,.7-2.658,2.2,2.2,0,0,1,1.884-.981,1.947,1.947,0,0,1,1.694.766,3.862,3.862,0,0,1,.562,2.3v6.476a2.423,2.423,0,0,1-.29,1.437,1.523,1.523,0,0,1-1.177.341h-.377v3.343h10.993v-3.343h-.7a1.788,1.788,0,0,1-1.293-.335A2.3,2.3,0,0,1,411.187,390.133Z" transform="translate(-281.088 -328.594)" fill="#4439a9" fill-rule="evenodd"/>
      <path id="Path_1863" data-name="Path 1863" d="M301.38,353.244c.319-.456.271-.889-.094-1.134a.856.856,0,0,0-1.193.323,3.426,3.426,0,0,1-5.6.033c-.354-.477-.791-.61-1.18-.377-.426.256-.46.688-.083,1.21a5.042,5.042,0,0,0,8.148-.055Z" transform="translate(-286.006 -329.285)" fill="#4439a9" fill-rule="evenodd"/>
      <path id="Path_1864" data-name="Path 1864" d="M294.192,350.447a1.18,1.18,0,1,0-1.252-1.189,1.177,1.177,0,0,0,1.252,1.189Zm0-.5a.681.681,0,1,1,.723-.687A.677.677,0,0,1,294.192,349.949Z" transform="translate(-286.008 -329.61)" fill="#4439a9" fill-rule="evenodd"/>
      <path id="Path_1865" data-name="Path 1865" d="M300.581,349.276a.724.724,0,1,1-.724-.687.679.679,0,0,1,.724.687Zm-1.975.015a1.253,1.253,0,1,0,1.252-1.2A1.187,1.187,0,0,0,298.606,349.292Z" transform="translate(-285.534 -329.61)" fill="#4439a9" fill-rule="evenodd"/>
    </g>
  </g>
</svg>
