<svg xmlns="http://www.w3.org/2000/svg" width="35" height="55" viewBox="0 0 35 55">
  <g id="numer-1" transform="translate(1 4.393)">
    <rect id="canvas" width="35" height="55" transform="translate(-1 -4.393)" fill="none" opacity="0.17"/>
    <path id="Path_1802" data-name="Path 1802" d="M195.011,280.787l1.225,1.164q.735.735,1.225,1.164a.348.348,0,0,1,.092.582.344.344,0,0,1-.582.031q-.551-.428-1.347-1.164l-.245-.184a2.3,2.3,0,0,1,.061.551v.735a6.785,6.785,0,0,1,.827.858,13.432,13.432,0,0,1,.8,1.1q.4.613.643.919a.344.344,0,0,1-.031.582.348.348,0,0,1-.582-.092q-.307-.368-.827-1.1a8.811,8.811,0,0,0-.827-1.041v.919a3.093,3.093,0,0,0-.061.612l1.1,1.164a15.162,15.162,0,0,0,1.164,1.164.348.348,0,0,1,.092.582.344.344,0,0,1-.582.031,14.227,14.227,0,0,1-1.286-1.164l-.49-.551a14.1,14.1,0,0,0-.061,1.715q.368.308,1.1,1.042.919.8,1.408,1.163a.409.409,0,0,1,.092.643.371.371,0,0,1-.582.092q-.552-.428-1.47-1.286l-.613-.551v1.593a.361.361,0,0,1,.307.184,33.78,33.78,0,0,0,2.45,3,.433.433,0,0,1-.613.612q-.8-.857-2.144-2.634-.061,1.164-.061,2.572a12.971,12.971,0,0,0,2.2,2.7q.306.245.031.582a.4.4,0,0,1-.643.031,15.17,15.17,0,0,1-1.654-1.837v1.347a18.533,18.533,0,0,1,1.531,1.408q.979.981,1.225,1.164a.363.363,0,0,1,.031.582.4.4,0,0,1-.643.031l-1.1-1.042q-.735-.735-1.1-1.041v1.715a7.932,7.932,0,0,0,1.164,1.531l1.409,1.654a.372.372,0,0,1-.092.582.409.409,0,0,1-.643-.092q-.307-.428-1.286-1.531l-.612-.735v1.1a.182.182,0,0,1,.061.123q.368,1.654,2.94,3.552a.409.409,0,0,1,.092.643.371.371,0,0,1-.582.092,10.359,10.359,0,0,1-2.511-2.511v2.511q1.041.981,2.695,2.818a.4.4,0,0,1-.031.643q-.337.276-.582-.031-1.286-1.408-2.082-2.2,0,.858.061,1.715a7.724,7.724,0,0,0,2.7,3.308.348.348,0,0,1,.092.582.344.344,0,0,1-.582.031,9.786,9.786,0,0,1-2.082-1.96l.123,1.47a14,14,0,0,0,2.389,2.94.363.363,0,0,1,.031.582.4.4,0,0,1-.643.031,16.284,16.284,0,0,1-1.593-1.715q.061.184.245,1.225.368.429,1.041,1.347a17.2,17.2,0,0,0,1.409,1.776.433.433,0,0,1-.612.613,15.537,15.537,0,0,1-1.47-1.9l-.061-.062q.122.8.184,1.286a5.386,5.386,0,0,1,.061.735,1.529,1.529,0,0,1-.123.674q.06.062,1.409,1.777a.344.344,0,0,1-.031.582.348.348,0,0,1-.582-.092,1.8,1.8,0,0,1-.428-.49l-.49-.612-.49-.551a.843.843,0,0,1-.276.184c-.1.04-.215.081-.337.123a15.764,15.764,0,0,0,2.756,3.185q.306.244.031.581a.4.4,0,0,1-.643.031,18.087,18.087,0,0,1-3.062-3.552q-.429.121-1.041.245a14.364,14.364,0,0,0,1.47,1.838.4.4,0,0,1-.031.643q-.337.275-.582-.031a17.621,17.621,0,0,1-1.776-2.328,10.008,10.008,0,0,1-1.164.184q-.43.061-.8.123a7.9,7.9,0,0,1,1.286,2.266.446.446,0,0,1-.858.245,8.64,8.64,0,0,0-1.408-2.389q-.8.061-1.47.123h-.184l.184.306a5.89,5.89,0,0,1,.98,2.082q.061.368-.337.459a.4.4,0,0,1-.521-.337,5.113,5.113,0,0,0-.8-1.715l-.551-.8h-.367a.992.992,0,0,1-.551-.245,1.434,1.434,0,0,1-.306-.49v-.368a2.541,2.541,0,0,1,0-.8q0-.735.122-2.144,0-.06.184-2.2.122-1.1.123-1.347,0-.735.092-2.879t.215-5.329q.122-3.184.184-5.635.122-5.145.061-8.146v-.306a.535.535,0,0,1-.245-.061,1.367,1.367,0,0,1-.49-.245c-.163-.123-.306-.224-.428-.306a1.32,1.32,0,0,1-.368-.429l-.367-.368-.245-.429a2.887,2.887,0,0,1-.306-.428l-.49.367a4.674,4.674,0,0,0,1.592,2.2.442.442,0,1,1-.49.735,5.708,5.708,0,0,1-1.838-2.45l-.49.307-.245.123.184.306q.735,1.164.98,1.593a.411.411,0,0,1-.735.367q-.245-.368-.919-1.47l-.245-.367a2.13,2.13,0,0,1-.674.122h-.183l.551.98a.357.357,0,0,1-.153.582.368.368,0,0,1-.582-.214q-.307-.552-1.286-1.96l-.551-.919q-.246-.306-.49-.674-.429-.612-.49-.674l-.123-.245-.735.245a.655.655,0,0,1-.888-.52.688.688,0,0,1,.52-.95,62.883,62.883,0,0,0,8.361-3.154,50.686,50.686,0,0,0,7.687-4.257l.123-.061.184-.184a5.5,5.5,0,0,1,.674-.49,2.823,2.823,0,0,1,.735-.49,2.4,2.4,0,0,1,.49-.184h.184v-.061A.383.383,0,0,1,195.011,280.787Zm-1.041,1.838-.123.061q-.246.183-.612.49l-.184.184a.717.717,0,0,0-.184.123,58.176,58.176,0,0,1-14.393,6.921l.428.551a8.411,8.411,0,0,0,.551.8,2.734,2.734,0,0,0,.858.8.348.348,0,0,1,.245-.429.42.42,0,0,1,.49.061l.184-.061,1.776-1.225a16.319,16.319,0,0,1,1.96-1.041,4.427,4.427,0,0,1,.919-.245,1.3,1.3,0,0,1,1.041.429,1.618,1.618,0,0,1,.368.8,6.083,6.083,0,0,1,.184,1.041q.123,1.042.184,2.878.06,3-.061,8.146-.061,2.513-.184,5.7t-.215,5.3q-.092,2.113-.092,2.848,0,.307-.123,1.47-.184,2.144-.184,2.2-.124,1.348-.123,2.082v.368h.919q1.346-.124,3.063-.306c.245-.04.469-.082.674-.123a.348.348,0,0,1,.245-.429.363.363,0,0,1,.551.184l.061.123q.919-.184,1.592-.368a5.559,5.559,0,0,0,.919-.245.176.176,0,0,1,.123-.061V321.4l-.061-.062v-.306q-.062-.673-.245-1.715-.124-.489-.245-1.225t-.215-1.194a3.9,3.9,0,0,1-.092-.7,68.309,68.309,0,0,1-.46-7.809q-.031-4.318.123-9.923t.153-7.871q0-.184.031-.919t.061-1.868q.03-1.133.092-1.991v-3.185Zm-9.494,9.126a5.832,5.832,0,0,0,1.654,1.776q-.061-.857-.123-1.531-.061-.49-.123-.8l-.061-.061a1.032,1.032,0,0,0-.306.061A8.89,8.89,0,0,0,184.476,291.751Z" transform="translate(-170.393 -280.634)" fill="#c6c2e4"/>
  </g>
</svg>
