<svg xmlns="http://www.w3.org/2000/svg" width="35" height="55" viewBox="0 0 35 55">
  <g id="numer-3" transform="translate(0.492 5.034)">
    <rect id="canvas" width="35" height="55" transform="translate(-0.492 -5.033)" fill="none" opacity="0.17"/>
    <path id="Path_1804" data-name="Path 1804" d="M419.811,289.232a10.465,10.465,0,0,0,.735,1.439q.428.705,1.164,1.746l.919,1.409a.442.442,0,1,1-.735.49l-1.531-2.328a7.228,7.228,0,0,1-.123,1.286,19.894,19.894,0,0,0,1.715,2.573.372.372,0,0,1-.092.582.409.409,0,0,1-.643-.092q-.675-.919-1.225-1.776a11.58,11.58,0,0,1-.49,1.409,12.047,12.047,0,0,1,1.531,1.96.441.441,0,1,1-.735.49q-.859-1.286-1.164-1.654-.307.551-.673,1.1,1.163,1.593,1.9,2.695a.442.442,0,0,1-.735.49q-.675-1.041-1.715-2.45-.429.552-.919,1.1l2.143,2.817a.344.344,0,0,1-.031.582.348.348,0,0,1-.582-.092l-2.143-2.756a16.071,16.071,0,0,1-1.593,1.164l1.9,1.837a.384.384,0,0,1,0,.612l-.245.123c.245.2.469.409.674.613a11.042,11.042,0,0,1,2.021,3.246,16.873,16.873,0,0,0,2.94,3.92.349.349,0,0,1,.092.582.344.344,0,0,1-.582.031,8.829,8.829,0,0,1-1.654-1.776v.49a7.543,7.543,0,0,0,2.572,2.634.442.442,0,0,1-.49.735,9.642,9.642,0,0,1-2.021-1.837,12.25,12.25,0,0,1-.184,1.286,29.872,29.872,0,0,0,1.96,3.185.442.442,0,0,1-.735.49q-.8-1.163-1.47-2.389a15.486,15.486,0,0,1-.919,2.266q.368.367,1.715,2.143a.372.372,0,0,1-.092.582.409.409,0,0,1-.643-.092q-1.226-1.653-1.409-1.837a8.774,8.774,0,0,1-.858,1.286,19.036,19.036,0,0,0,1.9,2.266.433.433,0,0,1-.612.613,19.99,19.99,0,0,1-1.837-2.144q-.492.551-1.042,1.1.8,1.286.919,1.47c.163.164.285.245.367.245a.671.671,0,0,0,.429-.245.433.433,0,0,1,.612.613,1.36,1.36,0,0,1-1.1.49,1.48,1.48,0,0,1-.919-.551,7.393,7.393,0,0,1-.919-1.408q-.8.674-1.593,1.225a20.857,20.857,0,0,0,1.531,2.2.372.372,0,0,1-.092.582.409.409,0,0,1-.643-.092,21.039,21.039,0,0,1-1.531-2.205l-.919.551a4.652,4.652,0,0,1-.8.306l.368.429a16.507,16.507,0,0,1,1.041,1.409.442.442,0,1,1-.735.49q-.307-.491-.98-1.347l-.49-.612a14.45,14.45,0,0,1-1.9.49,18.392,18.392,0,0,0,1.654,1.838.433.433,0,0,1-.612.612,16.025,16.025,0,0,1-1.96-2.266q-.735.061-1.531.061a22.45,22.45,0,0,0,1.776,1.9q.306.244.031.582a.4.4,0,0,1-.643.031q-.551-.491-2.328-2.511a16.1,16.1,0,0,1-1.96-.245q.612.8.8.98a.4.4,0,0,1-.031.643.429.429,0,0,1-.643-.031l-.735-.98q-.552-.675-.8-.919a18.566,18.566,0,0,1-1.776-.612q.8,1.162,1.164,1.837a.357.357,0,0,1-.153.582.369.369,0,0,1-.582-.214q-.307-.491-1.409-2.144l-.429-.673q-.858-.368-1.654-.8a13.826,13.826,0,0,1,1.531,2.7q.183.428-.215.581c-.266.1-.439.031-.52-.214a20.069,20.069,0,0,0-1.9-3.185,8.376,8.376,0,0,1-.735-1.041q-.735-.49-1.041-.674a4.386,4.386,0,0,1-.8-.612,1.862,1.862,0,0,1-.612-.858.4.4,0,0,1,0-.428.251.251,0,0,1,.061-.184l.123-.245c.123-.2.285-.449.49-.735a18.461,18.461,0,0,1,1.47-1.9,15.14,15.14,0,0,1,1.593-1.776,4.086,4.086,0,0,1,.735-.613,2.417,2.417,0,0,1,.49-.184.776.776,0,0,1,.735.123,4.6,4.6,0,0,1,1.409,2.266q.857,2.328.98,2.572a3.371,3.371,0,0,0,1.531,1.715,5.775,5.775,0,0,0,6.247-2.083q1.531-2.265.919-6.8-.675-4.594-2.94-6a2.1,2.1,0,0,0-.857-.123h-.429a8.159,8.159,0,0,1,1.593,2.389.411.411,0,0,1-.735.368A11.6,11.6,0,0,0,403.7,305.4l-.919.061q1.1,1.348,1.715,2.266a.442.442,0,0,1-.735.49,24.8,24.8,0,0,0-2.082-2.695.674.674,0,0,1-.306-.061.7.7,0,0,1-.459-.276,1.371,1.371,0,0,1-.215-.581v-.429c.04-.245.1-.53.184-.858l.306-.857a1.8,1.8,0,0,1,.643-.735,3.75,3.75,0,0,1,.766-.306,4.587,4.587,0,0,1,.7-.153c.184-.02.408-.04.674-.061s.438-.031.52-.031a3.157,3.157,0,0,0,2.021-1.164,10.852,10.852,0,0,0,2.266-5.635,9.648,9.648,0,0,0-.245-4.41.39.39,0,0,1-.612-.123c-.083-.123-.184-.265-.307-.429a.412.412,0,0,1-.183.367.39.39,0,0,1-.613-.123,11.086,11.086,0,0,0-1.286-1.715,8.3,8.3,0,0,1-.735-1.042h-.184a6.9,6.9,0,0,0-1.286,0q.061.062,1.715,2.144a.345.345,0,0,1-.031.582.348.348,0,0,1-.582-.092l-2.021-2.45a4.31,4.31,0,0,0-1.286.674l-.123.123a11.432,11.432,0,0,1,2.021,2.021.442.442,0,1,1-.735.49,9.3,9.3,0,0,0-1.715-1.776l-.123.184v.061a2.055,2.055,0,0,0,.429.98c.04.041.184.245.428.612a5.708,5.708,0,0,1,.551.735.442.442,0,0,1-.735.49q-.184-.306-.49-.735a6,6,0,0,1-.429-.612.962.962,0,0,1-.245-.367l-.306.674-.367.98a7.851,7.851,0,0,1,1.531,1.654.442.442,0,0,1-.735.49,8.69,8.69,0,0,0-1.1-1.286l-.184.49a2,2,0,0,1-.123.214,1.023,1.023,0,0,1-.122.154.958.958,0,0,1-.368.245l.735,1.286a.357.357,0,0,1-.153.582.368.368,0,0,1-.582-.215q-.981-1.653-1.776-2.817l-.612-.673a11.833,11.833,0,0,0-2.082-1.96q-.675-.368-.368-.98a.8.8,0,0,1,.368-.367,10.752,10.752,0,0,1,5.114-4.594,18.417,18.417,0,0,1,7.5-1.654,17.984,17.984,0,0,1,7.6,1.5,11.228,11.228,0,0,1,5.329,4.563,8.562,8.562,0,0,1,.429.857C419.77,289.151,419.811,289.192,419.811,289.232Zm-3.92,9.433a9.947,9.947,0,0,0,2.726-4.655,7.071,7.071,0,0,0-.582-5.022,10.339,10.339,0,0,0-4.778-3.981,16.258,16.258,0,0,0-6.921-1.348,15.784,15.784,0,0,0-6.676,1.409,9.792,9.792,0,0,0-4.532,3.92,14.79,14.79,0,0,1,1.715,1.776l.857.919.613-1.531a17.162,17.162,0,0,1,.8-1.96,5.119,5.119,0,0,1,1.041-1.531,5.869,5.869,0,0,1,4.655-1.225,5.731,5.731,0,0,1,4.288,2.266q1.776,2.512,1.1,6.921a11.948,11.948,0,0,1-2.573,6.37,4.526,4.526,0,0,1-2.94,1.654,7.752,7.752,0,0,0-2.082.368.179.179,0,0,1-.061.123,4.572,4.572,0,0,0-.245.612,1.029,1.029,0,0,1-.061.306q.244,0,.735-.031a3.053,3.053,0,0,0,.673-.092,12.12,12.12,0,0,1,1.715,0,3.359,3.359,0,0,1,1.531.367q2.878,1.715,3.675,6.983.735,5.145-1.164,7.9a6.727,6.727,0,0,1-3.859,2.7,6.02,6.02,0,0,1-4.288-.184,4.722,4.722,0,0,1-2.2-2.327q-.124-.368-.98-2.756a5.126,5.126,0,0,0-.673-1.286,1.289,1.289,0,0,0-.306.245q-.613.613-1.531,1.654-.735.919-1.347,1.838a.367.367,0,0,1,.245.245,3.569,3.569,0,0,0,.368.919,2.992,2.992,0,0,0,.612.429q.428.246.551.307a9.911,9.911,0,0,0,1.409.857.177.177,0,0,1,.123-.061.363.363,0,0,1,.551.184,1.562,1.562,0,0,1,.184.368,17.086,17.086,0,0,0,6.493,1.9,12.492,12.492,0,0,0,6.431-1.286,14.119,14.119,0,0,0,4.287-3.338,13.144,13.144,0,0,0,2.573-4.41,9.474,9.474,0,0,0,.306-4.9,10.069,10.069,0,0,0-2.328-4.686,5.536,5.536,0,0,0-3.92-1.776h-1.9a.176.176,0,0,1-.123-.061.758.758,0,0,1-.306-.184.833.833,0,0,1-.214-.612.892.892,0,0,1,.276-.551,4.11,4.11,0,0,1,.429-.245,1.829,1.829,0,0,0,.306-.061l.123-.061a22.629,22.629,0,0,0,4.777-2.94l.061-.061a.24.24,0,0,1,.184-.245A.2.2,0,0,1,415.891,298.665Zm-8.514-9.8a.491.491,0,0,0-.061-.184v-.673a3.088,3.088,0,0,0-1.225-.735l.123.123Q407.132,288.5,407.377,288.865Zm8.207,14.516-1.531-1.47-.98.551A7.756,7.756,0,0,1,415.585,303.381Z" transform="translate(-390.74 -282.187)" fill="#c6c2e4"/>
  </g>
</svg>
