<svg xmlns="http://www.w3.org/2000/svg" width="35" height="55" viewBox="0 0 35 55">
  <g id="numer-2" transform="translate(1.063 6.008)">
    <rect id="canvas" width="35" height="55" transform="translate(-1.063 -6.008)" fill="none" opacity="0.17"/>
    <path id="Path_1803" data-name="Path 1803" d="M304.837,290.5a20.3,20.3,0,0,0,2.94,4.594.433.433,0,0,1-.612.612,13.455,13.455,0,0,1-1.408-1.838,15.638,15.638,0,0,1,.061,2.389q.367.429.735.919l.735,1.164q.428.675.612.919a.442.442,0,0,1-.735.49q-.124-.244-.674-1.1l-.857-1.225a13.087,13.087,0,0,1-.368,1.715l2.021,2.633a.394.394,0,1,1-.612.49l-1.715-2.082a14.476,14.476,0,0,1-.612,1.715,18.216,18.216,0,0,0,2.389,2.94.433.433,0,0,1-.612.613,19.145,19.145,0,0,1-2.2-2.634,15.087,15.087,0,0,1-.674,1.409,15.838,15.838,0,0,0,.98,1.409l1.1,1.593a.442.442,0,0,1-.735.49,11.314,11.314,0,0,0-1.041-1.592l-.8-1.042q-.307.552-.674,1.1.123.183.8,1.1a8.907,8.907,0,0,1,1.1,1.9q.184.43-.214.582c-.266.1-.44.031-.521-.214a8.365,8.365,0,0,0-1.041-1.715l-.612-.858-1.286,1.715a20.073,20.073,0,0,1,1.654,2.021.372.372,0,0,1-.092.582.409.409,0,0,1-.643-.092q-1.348-1.714-1.47-1.837l-.857.98a24.982,24.982,0,0,1,1.776,2.021.442.442,0,0,1-.735.49,11.278,11.278,0,0,0-1.654-1.837q-.613.613-1.225,1.164l-.184.184,1.9,2.144a.4.4,0,0,1-.031.643c-.224.184-.419.174-.582-.031l-1.9-2.144-.306.368a8.49,8.49,0,0,1-.858.858,8.575,8.575,0,0,1,1.838,2.328.357.357,0,0,1-.153.582.368.368,0,0,1-.582-.215,7.46,7.46,0,0,0-1.776-2.144,17.7,17.7,0,0,1-1.531.98,8.394,8.394,0,0,0,1.1,1.47.756.756,0,0,1,.123.184,39.377,39.377,0,0,0,5.88.245,15.709,15.709,0,0,0,2.082-.551,9.723,9.723,0,0,1,1.347-.306,2.6,2.6,0,0,1,1.286.062.981.981,0,0,1,.551.429l.123.49a1.989,1.989,0,0,1,.123.735l.551.674a15.7,15.7,0,0,0,1.593,1.776.363.363,0,0,1,.031.582.4.4,0,0,1-.643.031,16.645,16.645,0,0,1-1.531-1.654,12.691,12.691,0,0,1-.123,1.654,2.046,2.046,0,0,1-.061.49,24.344,24.344,0,0,0,2.266,2.634.433.433,0,0,1-.612.613,21.568,21.568,0,0,1-1.776-2.021,6.021,6.021,0,0,1-.184.98,3.425,3.425,0,0,1-.184.858,11.611,11.611,0,0,0,1.409,1.838.433.433,0,0,1-.612.612,8.971,8.971,0,0,1-1.225-1.593.67.67,0,0,0-.184.123,3.726,3.726,0,0,1-1.286.245h-.184a5.1,5.1,0,0,0,1.837,1.776.411.411,0,1,1-.367.735,6.725,6.725,0,0,1-2.511-2.511H301.1q-.98-.062-2.327-.123l.306.429a14.759,14.759,0,0,1,1.1,1.593q.244.428-.153.643c-.266.142-.459.092-.582-.153a14.7,14.7,0,0,0-1.041-1.531c-.327-.45-.572-.8-.735-1.042l-1.531-.123-.429-.061q.489.552,2.082,2.144a.433.433,0,0,1-.612.612q-2.021-2.021-2.756-2.879l-1.286-.122a10.993,10.993,0,0,0,1.776,2.082.433.433,0,0,1-.612.612,12.932,12.932,0,0,1-2.2-2.756l-1.1-.123h-.184q.368.368,1.041,1.1t.858.98a.4.4,0,0,1-.031.643q-.337.275-.582-.031-2.329-2.635-2.45-2.817-.613-.062-1.041-.061a15.443,15.443,0,0,0,1.715,2.572.4.4,0,0,1-.031.643q-.337.275-.582-.031a18.807,18.807,0,0,1-2.082-3.246q-.061,0-1.715.061l.8.98q.612.735.919,1.163a.442.442,0,1,1-.735.49q-.184-.246-.919-1.164t-1.1-1.47a13.116,13.116,0,0,1-1.776,0l.122.184a14.026,14.026,0,0,0,.98,1.409.4.4,0,0,1-.031.643q-.337.275-.582-.031t-1.1-1.531a3.2,3.2,0,0,0-.49-.673,13.232,13.232,0,0,1-1.96-.123,1.923,1.923,0,0,0,.368.49q1.592,2.021,1.654,2.082a.442.442,0,1,1-.735.49q0-.062-1.593-2.021-.551-.735-.858-1.225a2.918,2.918,0,0,1-.857-.306,1.115,1.115,0,0,1-.674-1.225,3.236,3.236,0,0,1,.184-.429.954.954,0,0,1,.245-.367q.244-.306.673-.8l2.021-2.021q3.062-3,3.308-3.308a75.945,75.945,0,0,0,8.453-13.6,22.854,22.854,0,0,0,2.45-7.84,7.533,7.533,0,0,0-.183-2.572.18.18,0,0,1-.061.123c-.205.163-.409.123-.612-.123a39.382,39.382,0,0,1-2.512-3.553c-.245-.081-.45-.142-.612-.184q-.613-.122-1.1-.184.122.123,1.96,2.573a.371.371,0,0,1-.092.581.409.409,0,0,1-.643-.092q-.184-.244-.551-.8c-.245-.367-.45-.652-.612-.858s-.367-.438-.612-.7a6.408,6.408,0,0,0-.674-.643,3.169,3.169,0,0,0-1.286.368q1.408,1.653,2.266,2.817a.442.442,0,0,1-.735.49,29.879,29.879,0,0,0-2.266-2.817,4.321,4.321,0,0,0-.858,1.041l.8.919q.857,1.042,1.164,1.47a.442.442,0,0,1-.735.49,8.918,8.918,0,0,0-1.1-1.347l-.49-.674q-.123.246-.245.551-.123.429-.245.919.306.43.735.98.919,1.042,1.225,1.47a.442.442,0,1,1-.735.49q-.245-.367-1.1-1.408l-.306-.306q-.062.491-.123,1.163v.123q.244.368.735.98.857,1.042,1.164,1.47a.442.442,0,0,1-.735.49,10.792,10.792,0,0,0-1.1-1.409l-.184-.245a.686.686,0,0,1-.061.306.776.776,0,0,1-.551.613.547.547,0,0,1-.245.061q.428.551.8.98a.433.433,0,0,1-.612.612q-.859-.979-2.45-3.062a33.489,33.489,0,0,0-2.328-2.94.655.655,0,0,1-.122-.368,2.506,2.506,0,0,0-.307-.367.66.66,0,0,1,.184-1.041,2.473,2.473,0,0,1,.306-.123,10.308,10.308,0,0,1,5.513-5.206,19.354,19.354,0,0,1,8.514-1.654,17.359,17.359,0,0,1,7.013,1.531,10.306,10.306,0,0,1,4.808,4.226A.408.408,0,0,1,304.837,290.5Zm-12.8,24.01q1.225-.735,1.715-1.1.368-.306,1.1-1.041l1.225-1.286a27.519,27.519,0,0,0,6.248-8.33q2.573-5.083,1.9-9.249a7.611,7.611,0,0,0-3.767-5.421,14.723,14.723,0,0,0-7.687-2.052,17.247,17.247,0,0,0-7.932,1.562,8.965,8.965,0,0,0-4.808,4.747,8.358,8.358,0,0,0,.858.858q1.224,1.164,1.593,1.593a2,2,0,0,1,.368.612v-.184a17.766,17.766,0,0,1,.612-3.614,6.3,6.3,0,0,1,2.328-3.43,6.435,6.435,0,0,1,5.145-.8,5.5,5.5,0,0,1,2.695,1.225q2.817,2.2,2.512,6.676a26.271,26.271,0,0,1-2.573,8.391,81.615,81.615,0,0,1-8.575,13.781q-.307.429-3.491,3.552-1.348,1.286-1.96,1.96a5.433,5.433,0,0,0-.49.551c.04,0,.081.041.123.123h.245a12.657,12.657,0,0,0,2.879.245,19.5,19.5,0,0,0,2.2,0h1.96c.653-.04,1.042-.061,1.164-.061q.857,0,3.553.245.428.062,2.236.214t2.848.276q3.124.246,4.9.307h.245a.4.4,0,0,1,.429,0h1.041a2.253,2.253,0,0,0,.551-.061,1,1,0,0,1,.061-.306v-.184a2.547,2.547,0,0,0,.123-.306q.184-1.1.306-2.512l-.061-.122a.39.39,0,0,1,.122-.612,10.446,10.446,0,0,0,.062-1.9,2.929,2.929,0,0,0-.062-.674h-.367a8.179,8.179,0,0,0-1.1.306,12.743,12.743,0,0,1-2.389.612,11.909,11.909,0,0,1-2.389.031q-1.716-.092-2.328-.153l-2.205-.245-2.266-.245h-1.715a.175.175,0,0,1-.123-.061h-.122a.925.925,0,0,1-.307-.368,1.232,1.232,0,0,1,.184-1.225l.429-.429a10.379,10.379,0,0,1,2.021-1.47.449.449,0,0,1,.123-.612.391.391,0,0,1,.612.122Zm.858,2.695a10.07,10.07,0,0,1-.735-1.041,7.829,7.829,0,0,0-1.347.858h.245Q291.728,317.08,292.893,317.2Zm-.184-27.5q.306.491,1.531,2.021a4.918,4.918,0,0,0-1.47-2.021Z" transform="translate(-276.382 -284.548)" fill="#c6c2e4"/>
  </g>
</svg>
