<svg xmlns="http://www.w3.org/2000/svg" width="35" height="55" viewBox="0 0 35 55">
  <g id="numer-4" transform="translate(0.791 4.334)">
    <rect id="canvas" width="35" height="55" transform="translate(-0.791 -4.334)" fill="none" opacity="0.17"/>
    <path id="Path_1805" data-name="Path 1805" d="M527.411,310.165l.49.735.49.8a4.212,4.212,0,0,0,.429.643,6.823,6.823,0,0,0,.582.674,3.018,3.018,0,0,0,.582.459.442.442,0,0,1-.49.735,6.877,6.877,0,0,1-1.593-1.654.84.84,0,0,1,.061.551,1.1,1.1,0,0,1-.735.735l-.061.062.551.551a6.118,6.118,0,0,0,.613.551.433.433,0,1,1-.613.612l-.673-.612q-.551-.552-.858-.919a8.344,8.344,0,0,1-1.409.184,14.669,14.669,0,0,0,2.2,2.328.362.362,0,0,1,.031.581.4.4,0,0,1-.643.031,15.282,15.282,0,0,1-2.573-2.878c-.45.041-.817.083-1.1.123a1.152,1.152,0,0,1-.367.061q1.592,1.837,2.512,3.124a.442.442,0,1,1-.735.49q-.8-1.1-2.021-2.634v.245a15.229,15.229,0,0,0,.306,2.634l.429,2.511q.123.551.184.858v.49a.932.932,0,0,1-.245.49.182.182,0,0,1-.123.061,15.038,15.038,0,0,1,1.47,1.286.433.433,0,0,1-.612.613,17.154,17.154,0,0,0-1.838-1.593.556.556,0,0,1-.245.061h-2.143a3.332,3.332,0,0,0,.674.612,6.36,6.36,0,0,0,.857.551l.858.551a.442.442,0,1,1-.49.735l-.858-.551a6.48,6.48,0,0,1-.857-.551,3.5,3.5,0,0,1-1.225-1.409,2.392,2.392,0,0,0-.8,0q-.368.06-1.164.184a12.267,12.267,0,0,0,2.327,1.715.411.411,0,0,1-.367.735,13.525,13.525,0,0,1-3-2.266l-.429.123a10.112,10.112,0,0,0-1.286.245,8.882,8.882,0,0,0,2.634,2.082q.367.122.214.521t-.582.214a3.788,3.788,0,0,1-1.133-.643,10.873,10.873,0,0,1-.95-.827q-.367-.367-.949-1.011a7.517,7.517,0,0,0-.827-.827.382.382,0,0,1,0-.613.672.672,0,0,1,.184-.123,1.156,1.156,0,0,1,.061-.367l.123-.551.061-.184q.306-2.143.429-4.778l-.061.061q-.368.307-.612,0a21.058,21.058,0,0,0-1.96-1.96.987.987,0,0,1-.49,0,12.246,12.246,0,0,0,1.1,1.225l.98.98a.433.433,0,0,1-.612.612l-.8-.8-.98-.98a7.526,7.526,0,0,1-.735-.98v-.061q-1.654-.06-2.021-.061h-.551l.674.673a14,14,0,0,1,1.47,1.654.345.345,0,0,1-.031.582.348.348,0,0,1-.582-.092l-1.47-1.531a12.951,12.951,0,0,1-1.164-1.286q-1.286.061-2.144.061,1.225,1.47,1.838,2.328a.442.442,0,0,1-.735.49q-.491-.735-2.205-2.817h-1.1l.306.368a12.472,12.472,0,0,1,1.531,1.9.442.442,0,1,1-.735.49,15.857,15.857,0,0,0-1.47-1.838l-.858-.919a5.065,5.065,0,0,1-.919-.061h-.368a.928.928,0,0,1-.49-.245,1.389,1.389,0,0,1-.367-1.409,2.167,2.167,0,0,1,.031-.368,1.83,1.83,0,0,1,.061-.276.519.519,0,0,0,.031-.153,18.51,18.51,0,0,1,.306-4.1,17.8,17.8,0,0,1,1.654-3.736,57.21,57.21,0,0,1,3-4.93q1.53-2.235,3.951-5.3t3.338-4.348a10.217,10.217,0,0,0,1.256-2.021q.52-1.1,1.133-2.6a25.062,25.062,0,0,1,1.041-2.3.819.819,0,0,1-.184-.674.669.669,0,0,1,.919-.551,13.364,13.364,0,0,0,6.8.184,4.772,4.772,0,0,0,.735-.429,2.015,2.015,0,0,1,1.287-.429.437.437,0,0,1,.245-.49q.368-.245.551.184A16.655,16.655,0,0,0,526,284.012a.433.433,0,1,1-.612.612,24.648,24.648,0,0,1-1.715-1.9,19.692,19.692,0,0,1,0,2.205v.061a8.949,8.949,0,0,0,2.082,2.021.442.442,0,1,1-.49.735,12.406,12.406,0,0,1-1.654-1.47q-.062.858-.184,1.96.184.124,2.695,2.328a.363.363,0,0,1,.031.582.4.4,0,0,1-.643.031q-.184-.184-.949-.888a14.3,14.3,0,0,0-1.195-1.011l-.123,1.409,2.45,2.94a.372.372,0,0,1-.092.582.408.408,0,0,1-.643-.092q-.552-.735-1.838-2.2l-.306,2.45q.735.859,2.634,2.756a.433.433,0,0,1-.612.612q-1.593-1.592-2.083-2.2l-.184,1.531a24.9,24.9,0,0,0,2.45,2.327.363.363,0,0,1,.031.582.4.4,0,0,1-.643.031q-1.9-1.714-1.96-1.776-.062.858-.123,1.531a14.107,14.107,0,0,0,3.307,3.308.442.442,0,0,1-.49.735,17.168,17.168,0,0,1-2.94-2.756,8.5,8.5,0,0,0,0,1.47v.061l1.47,1.531q.919.919,1.593,1.531a.418.418,0,0,1,.123.306l1.041-.306.123-.061a.635.635,0,0,1,.245-.123.989.989,0,0,1,.429-.123.887.887,0,0,1,.8.368,1.1,1.1,0,0,1,.122.49v.306l.613.613a6.46,6.46,0,0,0,1.1,1.1.409.409,0,0,1,.092.643.371.371,0,0,1-.582.092,16.354,16.354,0,0,1-1.225-1.225l-.306-.307-.184.551-.245.613a27.114,27.114,0,0,1,2.205,2.2.433.433,0,0,1-.612.613q-1.287-1.408-1.9-1.96v.062a2.047,2.047,0,0,1-.061.49A.413.413,0,0,1,527.411,310.165Zm-28.175,3.185h.184q.979.062,2.634,0,.857,0,1.9-.031t1.776-.031h.858q.612,0,1.715.031t1.807.062a10.432,10.432,0,0,0,1.562-.062,6.515,6.515,0,0,0,1.531-.337.623.623,0,0,1,.8.245.6.6,0,0,1,.306.551,57.828,57.828,0,0,1-.49,7.963,1.92,1.92,0,0,1-.061.306l-.061.245.858-.184q2.206-.428,2.634-.49.245,0,2.695.061h1.593a3.746,3.746,0,0,0-.062-.551q-.429-2.143-.49-2.511a16.606,16.606,0,0,1-.306-2.817,3.43,3.43,0,0,1,.429-2.2,1.08,1.08,0,0,1,.735-.429,3.23,3.23,0,0,1,.735-.184q.368,0,1.9-.123.673-.061,1.1-.123a.4.4,0,0,1,.184-.184.685.685,0,0,1,.306-.061,5.914,5.914,0,0,1-.368-3.124,2.814,2.814,0,0,1,.245-.858l.368-1.1.123-.245a10.281,10.281,0,0,1-2.266.551,2.765,2.765,0,0,1-2.082-.368,3.273,3.273,0,0,1-.98-1.838,21.866,21.866,0,0,1-.307-2.878,59.861,59.861,0,0,1,.429-6.186.465.465,0,0,1-.061-.184.371.371,0,0,1,.123-.551l.49-4.532q.368-4.164.49-6.309a16.532,16.532,0,0,0,0-2.021.252.252,0,0,0-.061-.184,8.963,8.963,0,0,1-1.225.735,13.877,13.877,0,0,1-6.493.061q-.367.674-1.01,2.236t-1.256,2.848a14.326,14.326,0,0,1-1.347,2.205l-3.43,4.41q-2.388,3.063-3.859,5.206a47.4,47.4,0,0,0-2.879,4.839,19.03,19.03,0,0,0-1.593,3.369,18.417,18.417,0,0,0-.244,3.736q0,.062-.184,1.041h.061v-.061A.41.41,0,0,1,499.237,313.35Zm14.087-24.316a.792.792,0,0,1,.8-.061.73.73,0,0,1,.306,1.041l-.429.735q.184,3.063.123,8.268,0,3.431-.184,5.574a17.783,17.783,0,0,1-.184,1.9c-.041.286-.083.511-.122.674a1.264,1.264,0,0,1-.49.673,3.171,3.171,0,0,1-.735.184,5.735,5.735,0,0,1-.919.061,19.414,19.414,0,0,1-2.2,0q-.735-.061-2.114-.123t-1.684-.061l-.674.061h-1.164a4.36,4.36,0,0,1-1.164-.123,1.352,1.352,0,0,1-1.042-1.041,1.418,1.418,0,0,1,.49-1.286q.428-.551.49-.551a73.519,73.519,0,0,1,5.39-7.84,70.047,70.047,0,0,0,4.655-6.737,1.6,1.6,0,0,0-.061-.49.659.659,0,0,1,.612-.858Zm-.674,8.514a.653.653,0,0,1-.368-.123,10.893,10.893,0,0,1-1.47-1.837l-.858,1.1a4.122,4.122,0,0,0,1.838,2.144.442.442,0,1,1-.49.735,5.32,5.32,0,0,1-1.96-2.083l-.368.49-.367.49.858.98,1.164,1.409a.4.4,0,0,1-.031.643c-.225.184-.419.174-.582-.031L508.792,300l-.735-.8-1.1,1.531a2.457,2.457,0,0,0,.459.643q.275.276.827.735t.735.643a.433.433,0,0,1-.612.612q-.123-.122-.551-.49l-.857-.735a4.267,4.267,0,0,1-.551-.674l-.8,1.1a13.466,13.466,0,0,1,1.715,1.96.442.442,0,1,1-.735.49,15.021,15.021,0,0,0-1.47-1.715l-.49.8a10.368,10.368,0,0,0,.98,1.593.394.394,0,1,1-.612.49,10.946,10.946,0,0,1-.858-1.225l-.49.735a9.274,9.274,0,0,1-.612.735,2.572,2.572,0,0,0,.612.061h1.042c.49-.04.755-.061.8-.061q.306,0,1.715.061t2.083.123h2.144a3.267,3.267,0,0,0,.735-.061h.123a1,1,0,0,1,.061-.306q.061-.612.123-1.777.184-2.081.184-5.451Zm0-2.328a.182.182,0,0,0-.123-.061l-.429-.306a2.152,2.152,0,0,1-.214-.245,1.057,1.057,0,0,1-.153-.306l-.368.49a7.035,7.035,0,0,0,1.286,1.776Zm-1.286,19.6q.857.8,1.347,1.347a.18.18,0,0,1,.061.123q.061-.857.062-1.715A7.863,7.863,0,0,1,511.364,314.82Zm.919-21.315a2.787,2.787,0,0,1,.245.49v.122h.123a10.433,10.433,0,0,1-.062-1.164l-.306.49Zm12.25,12.618q-.613-.552-1.47-1.47l-.735-.735a7.879,7.879,0,0,0,.184,1.287q.122.8.429.98a1.407,1.407,0,0,0,.919.123A5.463,5.463,0,0,0,524.533,306.123Zm3.062,5.941-.429-.673.123.49.184.123A.172.172,0,0,0,527.6,312.064Z" transform="translate(-496.961 -280.493)" fill="#c6c2e4"/>
  </g>
</svg>
