<svg xmlns="http://www.w3.org/2000/svg" width="900" height="660" viewBox="0 0 900 660">
  <defs>
    <style>
      .cls-1, .cls-2, .cls-3 {
        fill: #4439a9;
      }

      .cls-1 {
        fill-rule: evenodd;
      }

      .cls-2 {
        font-size: 26px;
        font-family: Playball;
      }

      .cls-2, .cls-3 {
        text-anchor: middle;
      }

      .cls-3 {
        font-size: 69px;
        font-family: Algerian;
      }
    </style>
  </defs>
  <path id="Stars" class="cls-1" d="M219.184,496.922a7.486,7.486,0,0,1-.753-0.716q1.818-6.978,4.293-16.943-9.682,7.373-13.973,10.6c-0.124-.083-0.564-0.358-1.321-0.829l-13.512-8.543q5.767,16.623,5.743,16.659-0.224.333-13.394,11.092,17.578-.2,17.467-0.273l6.521,16.295q0.828-2.767,2.517-8.385t2.5-8.446q13.271-.88,17.492-1.112-8.538-5.971-13.585-9.4h0Zm66.54,34.281a7.579,7.579,0,0,1-.877-0.559q0.446-7.2.962-17.452-8.088,9.1-11.68,13.085-0.206-.086-1.455-0.559l-14.9-5.789q8.85,15.206,8.833,15.246-0.153.369-11.015,13.459,17.213-3.573,17.09-3.624l9.527,14.739q0.282-2.874.861-8.712t0.836-8.771q12.855-3.413,16.954-4.452-9.526-4.22-15.136-6.611h0Zm71.8,20.773a7.469,7.469,0,0,1-.968-0.379q-0.954-7.148-2.428-17.309-6.179,10.488-8.932,15.1-0.219-.043-1.535-0.267l-15.737-2.8q11.619,13.208,11.611,13.251-0.079.393-8.208,15.335,16.2-6.832,16.068-6.859l12.194,12.619q-0.279-2.876-.838-8.715t-0.873-8.767q11.952-5.835,15.773-7.647-10.161-2.3-16.127-3.559h0Zm74.534,6.5a7.548,7.548,0,0,1-1.022-.185q-2.313-6.829-5.718-16.517-4.041,11.482-5.855,16.537-0.224,0-1.558.033l-15.981.29q13.947,10.719,13.947,10.763,0,0.4-5.1,16.631,14.577-9.831,14.444-9.831l14.4,10.03q-0.826-2.766-2.5-8.389t-2.546-8.434q10.6-8.031,14-10.547-10.414-.294-16.511-0.381h0Zm74.439-7.843a7.4,7.4,0,0,1-1.039.012q-3.565-6.266-8.747-15.131-1.788,12.042-2.611,17.349-0.219.041-1.523,0.328l-15.636,3.319q15.728,7.876,15.735,7.919,0.073,0.395-1.85,17.3,12.446-12.42,12.316-12.4l16.038,7.114q-1.338-2.559-4.048-7.761t-4.1-7.8q8.886-9.9,11.748-13.014-10.279,1.689-16.283,2.761h0Zm71.522-21.958a7.408,7.408,0,0,1-1.016.213q-4.71-5.46-11.5-13.157,0.57,12.16.786,17.526-0.207.083-1.431,0.618l-14.7,6.276q16.95,4.689,16.967,4.731,0.147,0.372,1.521,17.329,9.816-14.59,9.693-14.541l17.108,3.883q-1.806-2.253-5.469-6.834t-5.527-6.859q6.81-11.43,9.016-15.039-9.761,3.643-15.444,5.854h0Zm65.939-35.4a7.531,7.531,0,0,1-.957.406q-5.674-4.446-13.828-10.684,2.909,11.823,4.158,17.044c-0.125.081-.552,0.375-1.285,0.883l-13.209,9q17.537,1.321,17.56,1.359,0.217,0.338,4.843,16.708,6.81-16.213,6.7-16.142l17.537,0.5q-2.208-1.862-6.687-5.646t-6.749-5.661q4.471-12.531,5.939-16.5-8.873,5.462-14.02,8.731h0Zm57.857-47.4a7.539,7.539,0,0,1-.862.582q-6.421-3.276-15.618-7.833,5.12,11.045,7.347,15.93-0.16.154-1.092,1.113l-11.239,11.369q17.465-2.067,17.5-2.035,0.278,0.289,7.955,15.47,3.576-17.222,3.48-17.128l17.307-2.874q-2.525-1.4-7.646-4.26t-7.708-4.261q1.987-13.157,2.667-17.332-7.661,7.062-12.086,11.259h0Z"/>
  <text id="Group" class="cls-2" transform="matrix(4.758, -0.863, 0.863, 4.76, 461.939, 416.683)"><tspan x="0">Group</tspan></text>
  <text id="Softices" class="cls-3" transform="matrix(2.618, -0.459, 0, 2.62, 453.009, 281.51)"><tspan x="0">Softices</tspan></text>
</svg>
